<?xml version="1.0" encoding="UTF-8"?>
<svg width="1920px" height="1080px" viewBox="0 0 1920 1080" version="1.1" xmlns="http://www.w3.org/2000/svg" xmlns:xlink="http://www.w3.org/1999/xlink">
    <!-- Generator: Sketch 51.3 (57544) - http://www.bohemiancoding.com/sketch -->
    <title>about_bg</title>
    <desc>Created with Sketch.</desc>
    <defs>
        <linearGradient x1="50.0021533%" y1="16.3881225%" x2="50.0021533%" y2="88.2519004%" id="linearGradient-1">
            <stop stop-color="#919CA6" stop-opacity="0" offset="0%"></stop>
            <stop stop-color="#20396A" stop-opacity="0.253991168" offset="26.6550759%"></stop>
            <stop stop-color="#233A6C" stop-opacity="0.209408967" offset="66.1924285%"></stop>
            <stop stop-color="#BCBCBC" stop-opacity="0" offset="100%"></stop>
        </linearGradient>
    </defs>
    <g id="Page-1" stroke="none" stroke-width="1" fill="none" fill-rule="evenodd" opacity="0.5578125">
        <g id="LandingPage-v3" transform="translate(0.000000, -1309.000000)" fill="url(#linearGradient-1)">
            <path d="M1616.20398,1262 L1616.20398,1251.11478 L1609.63003,1251.11478 L1609.63003,1262 L1550,1262 L1550,1214 L1619.23168,1214 C1619.67404,1218.13212 1622.9008,1221.38481 1627,1221.83072 L1627,1251.11478 L1622.77301,1251.11478 L1622.77301,1262 L1616.20398,1262 Z M1548,1321.048 C1543.26519,1321.49955 1539.53339,1325.24764 1539.08351,1330 L1486,1330 L1486,1271.80215 C1490.10547,1271.36048 1493.33577,1268.11821 1493.77581,1264 L1548,1264 L1548,1321.048 Z M1485,1533 L1415,1533 L1415,1340.94725 C1419.77261,1340.49594 1423.52783,1336.74984 1423.98331,1332 L1485,1332 L1485,1533 Z M1485,1612 L1432.54332,1612 C1432.06309,1602.56438 1424.46354,1594.99218 1415,1594.51337 L1415,1534 L1485,1534 L1485,1612 Z M1608.20488,1614 C1608.64863,1618.11112 1611.8855,1621.34727 1616,1621.79092 L1616,1732 L1568.1002,1732 C1567.36802,1728.63815 1564.72528,1725.99845 1561.36268,1725.26644 L1561.36268,1615.2151 L1486,1615.2151 L1486,1614 L1608.20488,1614 Z M1616,1826.21677 C1611.90007,1826.65738 1608.67026,1829.88931 1608.22782,1834 L1415,1834 L1415,1734.29736 L1486.3826,1734.29736 L1486.3826,1617 L1559.64557,1617 L1559.64557,1724.81571 C1554.7812,1724.81571 1550.83858,1728.76394 1550.83858,1733.63276 C1550.83858,1738.50405 1554.7812,1742.45228 1559.64557,1742.45228 C1564.50748,1742.45228 1568.45256,1738.50405 1568.45256,1733.63276 L1616,1733.63276 L1616,1826.21677 Z M1379.06323,1965 L1343,1965 L1343,1734 L1413,1734 L1413,1903.98639 C1407.91778,1904.46696 1403.9223,1908.68372 1403.9223,1913.87149 C1403.9223,1917.0162 1405.41504,1919.78876 1407.69993,1921.61988 C1401.88991,1930.42061 1391.69328,1945.86809 1379.06323,1965 Z M1614.23526,1966 C1614.6751,1970.12048 1617.9014,1973.36205 1622,1973.80644 L1622,2066 L1343,2066 L1343,2022.277 C1356.18041,2002.1264 1368.86937,1982.72386 1379.80881,1966 L1614.23526,1966 Z M1622,2087 L1542.52441,2087 L1542.52441,2076.27053 L1535.95387,2076.27053 L1535.95387,2087 L1529.37841,2087 L1529.37841,2076.27053 L1522.80786,2076.27053 L1522.80786,2087 L1516.2324,2087 L1516.2324,2076.27053 L1509.66186,2076.27053 L1509.66186,2087 L1503.08886,2087 L1503.08886,2076.27053 L1496.51831,2076.27053 L1496.51831,2087 L1350.7672,2087 C1350.32736,2082.92456 1347.10106,2079.71842 1343,2079.28133 L1343,2068 L1622,2068 L1622,2087 Z M1622,2128 L1343,2128 L1343,2096.71944 C1347.10106,2096.28244 1350.32736,2093.07211 1350.7672,2089 L1496.51831,2089 L1496.51831,2099.72714 L1503.08886,2099.72714 L1503.08886,2089 L1509.66186,2089 L1509.66186,2099.72714 L1516.2324,2099.72714 L1516.2324,2089 L1522.80786,2089 L1522.80786,2099.72714 L1529.37841,2099.72714 L1529.37841,2089 L1535.95387,2089 L1535.95387,2099.72714 L1542.52441,2099.72714 L1542.52441,2089 L1622,2089 L1622,2128 Z M1342,2183 L1267.85233,2183 C1261.88674,2177.00127 1255.91621,2170.9926 1250,2165.03857 C1255.452,2156.69251 1263.38801,2144.54352 1272.88703,2130 L1342,2130 L1342,2183 Z M1525,2185 L1525,2251 L1350.76061,2251 C1350.32115,2246.92309 1347.09758,2243.71579 1343,2243.27854 L1343,2185 L1525,2185 Z M1342,2244.04097 C1338.53347,2244.41217 1335.69431,2246.77796 1334.61671,2250 C1315.80297,2231.07363 1293.02081,2208.16055 1270,2185 L1342,2185 L1342,2244.04097 Z M1389.0103,2295 C1388.52529,2289.97417 1384.39394,2286.03466 1379.30499,2286.03466 C1376.93959,2286.03466 1374.80303,2286.9143 1373.1092,2288.32577 L1371,2286.18589 C1373.24103,2284.22747 1376.1188,2283 1379.30499,2283 C1386.03305,2283 1391.50503,2288.30813 1392,2295 L1389.0103,2295 Z M1372.15079,2289.10149 C1370.7844,2290.78713 1369.93041,2292.91337 1369.93041,2295.26485 C1369.93041,2300.65347 1374.23697,2305.0198 1379.54636,2305.0198 C1384.53855,2305.0198 1388.59135,2301.14851 1389.06715,2296.21287 L1392,2296.21287 C1391.512,2302.78218 1386.1465,2308 1379.54636,2308 C1372.62903,2308 1367,2302.28465 1367,2295.26485 C1367,2292.09653 1368.18583,2289.23267 1370.08169,2287 L1372.15079,2289.10149 Z M1526,2253 L1526,2288.6299 C1522.68972,2289.0592 1520.0923,2291.67226 1519.66803,2295 L1395.36713,2295 C1394.87626,2286.30966 1387.71549,2279.38866 1378.96124,2279.38866 C1374.76049,2279.38866 1370.93713,2280.99421 1368.02645,2283.60975 C1362.17056,2277.7161 1354.29691,2269.79752 1345,2260.44213 C1348.20915,2259.3577 1350.5673,2256.49648 1350.93976,2253 L1526,2253 Z M1553.5098,2253.39853 C1553.90374,2257.06674 1556.51607,2260.0407 1560,2260.95652 L1560,2439 L1283.39594,2439 L1283.39594,2355.95325 C1287.01036,2355.48303 1289.8172,2352.42783 1289.8172,2348.68823 C1289.8172,2344.62858 1286.51793,2341.33212 1282.4554,2341.33212 C1278.71541,2341.33212 1275.6599,2344.13621 1275.19456,2347.75025 L1242,2347.75025 L1242,2185.92321 C1243.10796,2185.80257 1244.14452,2185.48991 1245.08752,2185 L1267.01533,2185 C1290.83406,2208.81627 1314.50014,2232.4799 1333.90672,2251.88694 C1333.89441,2252.07896 1333.84763,2252.26361 1333.84763,2252.46056 C1333.84763,2257.3277 1337.7969,2261.27903 1342.66701,2261.27903 C1342.86398,2261.27903 1343.04864,2261.23225 1343.24315,2261.21994 L1367.12097,2285.0953 C1364.52834,2288.00032 1362.94026,2291.81624 1362.94026,2296.00637 C1362.94026,2305.0661 1370.30944,2312.43452 1379.36272,2312.43452 C1388.10085,2312.43452 1395.24844,2305.56833 1395.73841,2296.94927 L1519.81051,2296.94927 C1520.27585,2300.56332 1523.33137,2303.36494 1527.07382,2303.36494 C1531.13388,2303.36494 1534.42823,2300.06848 1534.42823,2296.00637 C1534.42823,2292.26923 1531.62631,2289.21157 1528.01435,2288.74627 L1528.01435,2253.39853 L1553.5098,2253.39853 Z M1159,2348 L1159,2185 L1236.90661,2185 C1237.85558,2185.49067 1238.89328,2185.80381 1240,2185.92462 L1240,2348 L1159,2348 Z M1140,2413 L1157,2413 L1157,2349 L1140,2349 L1140,2413 Z M1139,2432.62384 C1135.69959,2433.05338 1133.10114,2435.66543 1132.67258,2439 L1043,2439 L1043,2421.78585 C1046.35952,2421.04842 1048.99985,2418.38672 1049.73135,2415 L1139,2415 L1139,2432.62384 Z M953.459515,2438 C953.287228,2436.68101 952.777751,2435.4846 952,2434.48187 C997.582142,2389.07721 1037.57973,2349.23536 1037.81601,2349 L1139,2349 L1139,2412.42923 L1050.00653,2412.42923 C1050.00653,2407.57986 1046.0587,2403.6474 1041.18791,2403.6474 C1036.31712,2403.6474 1032.36929,2407.57986 1032.36929,2412.42923 C1032.36929,2417.28106 1036.31712,2421.21106 1041.18791,2421.21106 L1041.18791,2438 L953.459515,2438 Z M1140,2348 L1157,2348 L1157,2185 L1140,2185 L1140,2348 Z M809,2296.13703 L842.184349,2296.13703 C842.64955,2299.7463 845.704125,2302.54422 849.442964,2302.54422 C853.504244,2302.54422 856.797573,2299.25211 856.797573,2295.19537 C856.797573,2291.46317 853.99652,2288.40955 850.383212,2287.94487 L850.383212,2200.45943 L994.196826,2200.45943 C994.674334,2204.87513 998.373791,2208.32705 1002.91996,2208.32705 C1007.79104,2208.32705 1011.73417,2204.38586 1011.73417,2199.52023 C1011.73417,2194.97422 1008.28085,2191.28136 1003.86021,2190.80685 L1003.86021,2137.77419 C1007.96826,2137.33409 1011.20005,2134.10837 1011.64064,2130 L1157,2130 L1157,2182.4598 L1138.19012,2182.4598 L1138.19012,2346.87087 L1036.22,2346.87087 L949.85011,2433.14421 C948.607113,2432.18534 947.068749,2431.59281 945.37778,2431.59281 C941.638941,2431.59281 938.584366,2434.38827 938.116703,2438 L809,2438 L809,2296.13703 Z M808,2468.12998 C803.881888,2468.57799 800.640233,2471.84596 800.193364,2476 L708,2476 L708,2440 L808,2440 L808,2468.12998 Z M646,2475 L646,2296 L689.307774,2296 C689.782527,2305.02511 697.001713,2312.26826 706,2312.74198 L706,2439.49846 L706,2475 L646,2475 Z M618,2295 L618,2208.78857 C622.108891,2208.34752 625.34135,2205.11235 625.782028,2201 L644,2201 L644,2295 L618,2295 Z M591,2294 L591,2120.42374 C608.852456,2102.42581 626.770716,2084.35908 643,2068 L643,2198.38367 L624.964754,2198.38367 C624.494376,2193.9708 620.833708,2190.52109 616.329771,2190.52109 C611.508999,2190.52109 607.5973,2194.46221 607.5973,2199.32472 C607.5973,2203.8629 611.02156,2207.55586 615.398763,2208.03007 L615.398763,2294 L591,2294 Z M485.315872,2379 C484.890221,2375.7076 482.296949,2373.12229 479,2372.69508 L479,2248.97829 C487.613895,2248.48725 494.473517,2241.3623 494.473517,2232.64639 C494.473517,2228.46767 492.884092,2224.65968 490.29082,2221.76501 C492.852107,2219.21162 495.792297,2216.27522 499.074483,2213 L577.556634,2291.31796 C576.599535,2292.55783 576.006576,2294.09232 576.006576,2295.77658 C576.006576,2299.82763 579.298604,2303.11513 583.35582,2303.11513 C585.63662,2303.11513 587.649235,2302.05694 589,2300.43161 L589,2379 L485.315872,2379 Z M466,2232.54514 C466,2225.62714 471.711743,2220 478.735676,2220 C481.904739,2220 484.769276,2221.18594 487,2223.07955 C486.259726,2223.80918 485.559066,2224.49976 484.902971,2225.15129 C483.21693,2223.78233 481.087715,2222.92826 478.735676,2222.92826 C473.345791,2222.92826 468.978425,2227.2328 468.978425,2232.54514 C468.978425,2237.53538 472.850625,2241.59102 477.787432,2242.06686 L477.787432,2245 C471.2141,2244.51196 466,2239.14104 466,2232.54514 Z M479,2242.0103 C484.025835,2241.52529 487.967864,2237.39145 487.967864,2232.30499 C487.967864,2229.94208 487.085696,2227.80303 485.674228,2226.1092 C486.342155,2225.45008 487.05293,2224.74867 487.811594,2224 C489.772527,2226.24103 491,2229.12128 491,2232.30499 C491,2239.03056 485.689351,2244.50255 479,2245 L479,2242.0103 Z M584.329982,2288.31176 C582.634415,2288.31176 581.089619,2288.90396 579.841424,2289.86229 C568.644746,2278.72847 538.989613,2249.2488 501,2211.4808 C522.011692,2190.58923 555.752499,2157.04771 590,2123 L590,2291 C588.643052,2289.37084 586.621223,2288.31176 584.329982,2288.31176 Z M430.814437,2140.22452 C432.399882,2138.88151 433.425613,2136.90261 433.425613,2134.66836 C433.425613,2130.93153 430.619647,2127.88952 427,2127.42548 L427,1993 L590,1993 L590,2119.2668 C555.482672,2153.63736 521.268625,2187.70346 499.883613,2209 C478.789553,2187.99564 455.207603,2164.51396 430.814437,2140.22452 Z M392,2105 L419,2131.83191 C418.680286,2132.5061 418.472837,2133.23365 418.372774,2134 L392,2134 L392,2105 Z M391,2174.27554 C386.858187,2174.71512 383.597347,2177.92408 383.153138,2182 L336,2182 L336,2136 L391,2136 L391,2174.27554 Z M392,1993 L425,1993 L425,2127.49681 C423.139524,2127.73263 421.510991,2128.64892 420.353746,2130 C410.950202,2120.63821 401.467699,2111.20027 392,2101.77215 L392,1993 Z M342.295851,1992 C341.871715,1988.69948 339.290122,1986.10287 336,1985.67954 L336,1806.45951 C337.316539,1806.28969 338.51785,1805.78021 339.518126,1805 C384.922787,1850.5846 424.764641,1890.57973 425,1890.81601 L425,1981.92615 L390.336042,1981.92615 L390.336042,1992 L342.295851,1992 Z M349.153672,1561 L349.153672,1609.27812 L477.862971,1609.27812 L477.862971,1695.86099 C474.256161,1696.32653 471.458239,1699.38332 471.458239,1703.12488 C471.458239,1707.18911 474.745428,1710.48483 478.804627,1710.48483 C482.539286,1710.48483 485.590446,1707.68174 486.055128,1704.06581 L573.54303,1704.06581 L573.54303,1847.98634 C569.124871,1848.45927 565.670496,1852.16141 565.670496,1856.71335 C565.670496,1861.5855 569.616597,1865.53642 574.479768,1865.53642 C579.023317,1865.53642 582.718638,1862.07813 583.193154,1857.65428 L636.225811,1857.65428 C636.665906,1861.76531 639.894087,1864.99699 644,1865.44036 L644,1982 L427.131593,1982 L427.131593,1890.03757 L340.858254,1803.60495 C341.817119,1802.36105 342.409649,1800.81911 342.409649,1799.12937 C342.409649,1795.38535 339.611728,1792.33102 336,1791.86549 L336,1561 L349.153672,1561 Z M351,1471 L356.975167,1471 L356.975167,1481.78794 L363.558438,1481.78794 L363.558438,1471 L370.14417,1471 L370.14417,1481.78794 L376.729902,1481.78794 L376.729902,1471 L478,1471 L478,1542.25096 C468.947388,1542.72725 461.684618,1549.97241 461.206998,1559 L351,1559 L351,1471 Z M479,1444.19727 C482.607158,1443.7319 485.407808,1440.67624 485.407808,1436.93607 C485.407808,1435.2445 484.812762,1433.70558 483.856263,1432.46214 C494.291696,1422.01232 520.835169,1395.43223 555.217511,1361 L740.630862,1361 C741.125094,1370.73085 749.158213,1378.49928 758.993683,1378.49928 C768.826693,1378.49928 776.859813,1370.73085 777.354045,1361 L790,1361 L790,1811 L763.690119,1811 L763.690119,1607.50906 L574.684364,1607.50906 L574.684364,1478.7797 C579.102948,1478.30448 582.555198,1474.60371 582.555198,1470.05592 C582.555198,1465.1831 578.611175,1461.23118 573.745076,1461.23118 C569.203548,1461.23118 565.507871,1464.69065 565.03085,1469.11287 L479,1469.11287 L479,1444.19727 Z M487.926473,1359 C487.476213,1354.23217 483.738806,1350.47187 479,1350.01885 L479,1289 L625,1289 L555.428622,1359 L487.926473,1359 Z M418.802153,1288 C418.358008,1283.8533 415.118214,1280.58861 411,1280.14387 L411,1245 L415.57223,1245 L415.57223,1255.91709 L422.170256,1255.91709 L422.170256,1245 L428.770749,1245 L428.770749,1255.91709 L435.371243,1255.91709 L435.371243,1245 L477,1245 L477,1288 L418.802153,1288 Z M411,1226 L468.048004,1226 C468.499551,1230.85187 472.247645,1234.67646 477,1235.13722 L477,1244 L435.371243,1244 L435.371243,1232.93412 L428.770749,1232.93412 L428.770749,1244 L422.170256,1244 L422.170256,1232.93412 L415.57223,1232.93412 L415.57223,1244 L411,1244 L411,1226 Z M581.909406,1245 C582.380656,1249.46224 586.069667,1252.95054 590.605457,1252.95054 C595.141246,1252.95054 598.832711,1249.46224 599.303962,1245 L669,1245 L626.521153,1288 L479,1288 L479,1245 L581.909406,1245 Z M753.779431,1163 C755.154557,1164.35184 756.979055,1165.2186 759,1165.43529 L759,1243 L674,1243 L753.779431,1163 Z M881.342448,1359 L881.342448,1287.6174 L792.966001,1287.6174 L792.966001,1243.19899 L761,1243.19899 L761,1165.77218 C765.10647,1165.3322 768.337024,1162.10485 768.777442,1158 L973.222558,1158 C973.662976,1162.10485 976.89353,1165.3322 981,1165.77218 L981,1359 L881.342448,1359 Z M1165,1430.18556 L1165,1431 L881,1431 L881,1361 L1050.75029,1361 C1051.23019,1366.08717 1055.43605,1370.0777 1060.61646,1370.0777 C1063.75671,1370.0777 1066.52534,1368.58496 1068.3514,1366.30007 C1084.42423,1376.92496 1122.76177,1402.26675 1165,1430.18556 Z M1167,1204 L1234,1204 L1234,1231.08677 L1223.25015,1231.08677 L1223.25015,1237.67258 L1234,1237.67258 L1234,1244.25839 L1223.25015,1244.25839 L1223.25015,1250.84174 L1234,1250.84174 L1234,1257.42755 L1223.25015,1257.42755 L1223.25015,1264.01336 L1234,1264.01336 L1234,1270.59917 L1223.25015,1270.59917 L1223.25015,1277.18252 L1234,1277.18252 L1234,1423.2152 C1229.91589,1423.65836 1226.70537,1426.89095 1226.2649,1431 L1169.76271,1431 C1168.84018,1430.38943 1167.92009,1429.78132 1167,1429.17321 L1167,1204 Z M1413,1593.51454 C1403.29426,1594.0031 1395.53949,1602.02641 1395.53949,1611.84932 C1395.53949,1612.57849 1395.59355,1613.29293 1395.67709,1614 L1212.0715,1614 L1212.0715,1512.67993 L1167,1512.67993 L1167,1432 L1169.21143,1432 C1228.51966,1470.94301 1294.19927,1514.06707 1316.00402,1528.38529 C1315.38236,1529.5883 1315.0015,1530.9337 1315.0015,1532.38222 C1315.0015,1537.23843 1318.94031,1541.17889 1323.80301,1541.17889 C1328.34136,1541.17889 1332.032,1537.72945 1332.50869,1533.32007 L1413,1533.32007 L1413,1593.51454 Z M1425.24065,1612 C1424.76978,1606.53806 1420.45899,1602.22998 1415,1601.76138 L1415,1598 C1422.51115,1598.48119 1428.51655,1604.49235 1429,1612 L1425.24065,1612 Z M1428.86261,1614.986 L1425,1614.986 C1425.08036,1614.666 1425.09073,1614.33 1425.12962,1614 L1429,1614 C1428.97148,1614.332 1428.92482,1614.66 1428.86261,1614.986 Z M1415,1631.29376 C1423.40158,1630.86946 1430.33772,1624.89983 1432.12992,1617 L1485,1617 L1485,1732 L1415,1732 L1415,1631.29376 Z M1403.79319,1617 C1405.27981,1620.96348 1408.79805,1623.80368 1413,1624.17981 L1413,1628 C1406.80292,1627.58548 1401.65693,1623.06932 1400,1617 L1403.79319,1617 Z M1415,1624.17981 C1419.20603,1623.80112 1422.72118,1620.96348 1424.20752,1617 L1428,1617 C1426.34338,1623.06932 1421.20079,1627.58293 1415,1628 L1415,1624.17981 Z M1399,1612.81514 C1399,1604.94117 1405.19935,1598.49384 1413,1598 L1413,1601.72374 C1407.24238,1602.21009 1402.69953,1606.95892 1402.69953,1612.81514 C1402.69953,1613.56338 1402.77985,1614.29416 1402.92291,1615 L1399.18071,1615 C1399.07279,1614.28418 1399,1613.56089 1399,1612.81514 Z M1315,2066 C1323.93379,2052.43244 1333.06125,2038.57499 1342,2025 L1342,2066 L1315,2066 Z M1213.08153,2128 C1189.38476,2104.4177 1169.51251,2084.63899 1159,2074.17971 L1159,2064.95079 L1260.43329,2064.95079 L1260.43329,2060 C1265.41057,2064.95079 1268.49771,2068.02302 1268.49771,2068.02302 L1311,2068.02302 C1296.67281,2089.72187 1282.93305,2110.53036 1271.39805,2128 L1213.08153,2128 Z M1215,2130 L1270,2130 C1261.0333,2143.56618 1253.50637,2154.95817 1248.1905,2163 C1236.73115,2151.61045 1225.5142,2140.45706 1215,2130 Z M1159,2077 C1169.31603,2087.31847 1187.88342,2105.88342 1210,2128 L1159,2128 L1159,2077 Z M809,2199 L848,2199 L848,2176 L809,2176 L809,2199 Z M724.840312,2295 C724.361347,2285.94003 717.078116,2278.66889 708,2278.19334 L708,2201 L808,2201 L808,2295 L724.840312,2295 Z M708,2312.78652 C717.078116,2312.31154 724.361347,2305.04912 724.840312,2296 L808,2296 L808,2438 L708,2438 L708,2312.78652 Z M696.44898,2296 C696.903439,2301.08503 700.917423,2305.0941 706,2305.55102 L706,2309 C699.038171,2308.53326 693.464286,2302.96429 693,2296 L696.44898,2296 Z M706,2282 L706,2285.44898 C700.917423,2285.90098 696.903439,2289.91742 696.44898,2295 L693,2295 C693.464286,2288.03817 699.035714,2282.46674 706,2282 Z M717.553477,2295 C717.099017,2289.91742 713.082577,2285.90098 708,2285.44898 L708,2282 C714.964286,2282.46674 720.535714,2288.03817 721,2295 L717.553477,2295 Z M708,2305.55102 C713.082577,2305.09656 717.096561,2301.08503 717.55102,2296 L721,2296 C720.535714,2302.96429 714.964286,2308.53326 708,2309 L708,2305.55102 Z M708.22971,2003.75703 L708.22971,1983 L791,1983 L791,2036.75368 C790.451103,2037.29876 706.349183,2121.19114 706.349183,2121.19114 L706.349183,2198 L646,2198 L646,2065.83169 C681.336197,2030.58354 708.22971,2003.75703 708.22971,2003.75703 Z M963,1987.44623 L963,1983 L1183.45595,1983 C1183.88337,1983.43251 1235.7714,2035.63802 1258,2058.00015 L1258,2063 L1158.50066,2063 L1158.50066,1987.44623 L963,1987.44623 Z M963,1990 L1157,1990 L1157,2073 L1150.80752,2066.78347 L963,2066.78347 L963,1990 Z M857.465837,2065.56407 C857.000058,2061.9597 853.941688,2059.16312 850.198203,2059.16312 C846.131877,2059.16312 842.834456,2062.45076 842.834456,2066.50444 C842.834456,2070.23157 845.641453,2073.27859 849.256787,2073.7451 L849.256787,2173.18438 L807.819688,2173.18438 L807.819688,2198 L708,2198 L708,2121.96701 C708.547106,2121.42193 792.754565,2037.5271 792.754565,2037.5271 L792.754565,1983 L962,1983 L962,2065.56407 L857.465837,2065.56407 Z M851,2074.32274 C854.308977,2073.89449 856.9073,2071.30042 857.334185,2068 L962,2068 L962,2174 L851,2174 L851,2074.32274 Z M1249.08792,1825 C1249.535,1829.74295 1253.26638,1833.47923 1258,1833.92965 L1258,2055 C1235.26291,2032.21807 1184.22973,1981.08426 1184.22973,1981.08426 L963,1981.08426 L963,1825 L1249.08792,1825 Z M793,1981 L962,1981 L962,1812 L793,1812 L793,1981 Z M963,1810 L970,1810 L970,1617 L963,1617 L963,1810 Z M972,1810 L1134,1810 L1134,1617 L972,1617 L972,1810 Z M1164,1614.33539 L1133.97998,1614.33539 L1133.97998,1615 L972,1615 L972,1523.89984 C976.728375,1523.4486 980.457555,1519.72582 980.906824,1515 L1164,1515 L1164,1614.33539 Z M1167,1615 L1210,1615 L1210,1515 L1167,1515 L1167,1615 Z M879.424441,1361 L879.424441,1432.50646 L1165,1432.50646 L1165,1513.42122 L981.656282,1513.42122 C981.174439,1508.36374 976.973064,1504.39458 971.798168,1504.39458 C966.301225,1504.39458 961.844177,1508.85619 961.844177,1514.3618 C961.844177,1519.54732 965.809548,1523.75532 970.859066,1524.23793 L970.859066,1615.70346 L961.829427,1615.70346 L961.829427,1811 L793,1811 L793,1361 L879.424441,1361 Z M793,1359 L879,1359 L879,1289 L793,1289 L793,1359 Z M771.238618,1359 C770.77002,1353.54254 766.459421,1349.22846 761,1348.76003 L761,1345 C768.507648,1345.48102 774.518805,1351.49253 775,1359 L771.238618,1359 Z M748.642394,1361 C749.125768,1366.76264 753.77153,1371.30047 759.501221,1371.30047 C765.22847,1371.30047 769.874232,1366.76264 770.355165,1361 L774,1361 C773.514185,1368.80065 767.20591,1375 759.501221,1375 C751.79409,1375 745.485815,1368.80065 745,1361 L748.642394,1361 Z M759,1345 L759,1348.76003 C753.536524,1349.22846 749.229219,1353.54254 748.758186,1359 L745,1359 C745.481108,1351.49253 751.491184,1345.48102 759,1345 Z M759,1288 L629,1288 C643.054588,1273.84804 657.392932,1259.41035 671.704134,1245 L759,1245 L759,1288 Z M761,1288 L791,1288 L791,1245 L761,1245 L761,1288 Z M558,1359 L627.544667,1289 L759,1289 L759,1341.45606 C749.595226,1341.93878 742.049763,1349.53365 741.570179,1359 L558,1359 Z M778.382237,1359 C777.906281,1349.53365 770.379293,1341.93631 761,1341.45606 L761,1289 L791,1289 L791,1359 L778.382237,1359 Z M575,1609 L761.855322,1609 L761.855322,1812.17192 L790,1812.17192 L790,1981 L707.436877,1981 L707.436877,1709.91727 C711.041203,1709.45018 713.837747,1706.3993 713.837747,1702.665 C713.837747,1698.60864 710.55015,1695.3193 706.498967,1695.3193 C702.769422,1695.3193 699.722441,1698.11942 699.258396,1701.72589 L575,1701.72589 L575,1609 Z M479,1577.52704 C488.372651,1577.03643 495.853031,1569.31189 495.853031,1559.85798 C495.853031,1550.40651 488.372651,1542.67952 479,1542.18892 L479,1471 L565.206705,1471 C565.650206,1475.09408 568.885298,1478.31243 573,1478.75398 L573,1607 L479,1607 L479,1577.52704 Z M468.44898,1561 C468.900983,1566.08407 472.914966,1570.0973 478,1570.55167 L478,1574 C471.038171,1573.53335 465.464286,1567.96297 465,1561 L468.44898,1561 Z M478,1549.44587 C472.914966,1549.90025 468.900983,1553.91593 468.44898,1559 L465,1559 C465.464286,1552.03949 471.038171,1546.4642 478,1546 L478,1549.44587 Z M479,1570.53608 C484.376694,1570.05252 488.608057,1565.54498 488.608057,1559.99877 C488.608057,1554.45255 484.376694,1549.94748 479,1549.46145 L479,1546 C486.246423,1546.4885 492,1552.57256 492,1559.99877 C492,1567.42744 486.246423,1573.5115 479,1574 L479,1570.53608 Z M351,1561 L461.206998,1561 C461.684618,1569.97972 468.947388,1577.18401 478,1577.65778 L478,1607 L351,1607 L351,1561 Z M485.324815,1702 C484.898561,1698.69354 482.304081,1696.09719 479,1695.66817 L479,1609 L573,1609 L573,1702 L485.324815,1702 Z M645.599481,1865.41276 C650.023958,1864.93725 653.482737,1861.2367 653.482737,1856.68368 C653.482737,1851.80792 649.531255,1847.85852 644.658417,1847.85852 C640.105837,1847.85852 636.403171,1851.31517 635.927712,1855.74253 L582.789642,1855.74253 C582.348672,1851.63053 579.111611,1848.39562 575,1847.95461 L575,1704 L699.676151,1704 C700.102339,1707.30636 702.696423,1709.89822 706,1710.32692 L706,1982 L645.599481,1982 L645.599481,1865.41276 Z M646,1983 L706,1983 L706,2002.93447 C705.816461,2003.11821 680.077005,2028.88333 646,2063 L646,1983 Z M392,1991 L425,1991 L425,1983 L392,1983 L392,1991 Z M427,1983 L644,1983 L644,2065.39645 C627.69431,2081.73521 609.597651,2099.87377 591.510832,2118 L591.510832,1991.20513 L427,1991.20513 L427,1983 Z M646,2295 L646,2201 L706,2201 L706,2278.19334 C697.001713,2278.66889 689.782527,2285.94003 689.307774,2295 L646,2295 Z M848,2288.67502 C844.741292,2289.10128 842.182441,2291.69583 841.762041,2295 L809,2295 L809,2201 L848,2201 L848,2288.67502 Z M1012.45897,2128.40545 C1011.98579,2123.98097 1008.28171,2120.51726 1003.72739,2120.51726 C998.852694,2120.51726 994.899704,2124.47121 994.899704,2129.34405 C994.899704,2133.89663 998.359803,2137.59683 1002.78597,2138.07475 L1002.78597,2191.21282 C998.672789,2191.65625 995.436956,2194.88839 994.993353,2199 L851,2199 L851,2175.98336 L963.74649,2175.98336 L963.74649,2068 L1151.01819,2068 C1151.07241,2068.05912 1153.59108,2070.57191 1158,2074.97914 L1158,2128.40545 L1012.45897,2128.40545 Z M1244.50162,2169.13957 C1243.29778,2168.5161 1241.9542,2168.12612 1240.50763,2168.12612 C1235.65797,2168.12612 1231.72529,2172.11286 1231.72529,2177.0261 C1231.72529,2179.33369 1232.61529,2181.41773 1234.03733,2183 L1159,2183 L1159,2130 L1212.16728,2130 C1223.14644,2141.12312 1234.94205,2153.07339 1247,2165.28945 C1246.08058,2166.7053 1245.26167,2167.96963 1244.50162,2169.13957 Z M1247,2169.45341 C1247.67572,2168.41252 1248.42572,2167.25247 1249.23802,2166 C1254.46166,2171.30415 1259.73083,2176.65207 1265,2182 L1247.89137,2182 C1249.28594,2180.45083 1250.15335,2178.4104 1250.15335,2176.15109 C1250.15335,2173.44186 1248.90974,2171.05366 1247,2169.45341 Z M1342,2079.30506 C1337.5572,2079.77488 1334.07916,2083.45024 1334.07916,2087.97471 C1334.07916,2092.49429 1337.5572,2096.177 1342,2096.64682 L1342,2128 L1274,2128 C1285.63389,2110.4894 1299.45949,2089.67781 1313.85652,2068 L1342,2068 L1342,2079.30506 Z M1343,1966 L1378,1966 C1367.53508,1981.84255 1355.51511,2000.04737 1343,2019 L1343,1966 Z M1341,2021.79041 C1331.42692,2036.38975 1321.60549,2051.36862 1312.01028,2066 L1269.03103,2066 L1260.18583,2057.13541 L1260.18583,1833.90148 C1265.23672,1833.42091 1269.20562,1829.20919 1269.20562,1824.01908 C1269.20562,1818.50859 1264.74491,1814.03809 1259.24648,1814.03809 C1254.07018,1814.03809 1249.86767,1818.01816 1249.38815,1823.07766 L963,1823.07766 L963,1812 L1320.32432,1812 L1320.32432,1966.17785 L1341,1966.17785 L1341,2021.79041 Z M1341.655,1965 L1322.8778,1965 L1322.8778,1811.0135 L1137,1811.0135 L1137,1617.66457 L1167.03664,1617.66457 L1167.03664,1617 L1396.00151,1617 C1397.77777,1624.92811 1404.66659,1630.92158 1413,1631.34493 L1413,1732.41173 L1341.655,1732.41173 L1341.655,1965 Z M1484,1614 L1484,1614.986 L1432,1614.986 C1432.04654,1614.66 1432.06859,1614.33 1432.08819,1614 L1484,1614 Z M1548,1214 L1548,1261.7064 L1493.74066,1261.7064 C1493.26589,1257.2844 1489.56856,1253.82756 1485.0201,1253.82756 C1480.15676,1253.82756 1476.20606,1257.77683 1476.20606,1262.64694 C1476.20606,1267.19697 1479.66476,1270.89757 1484.08285,1271.37276 L1484.08285,1329.44476 L1423.44729,1329.44476 C1422.9676,1324.38753 1418.76107,1320.41856 1413.57793,1320.41856 C1408.08238,1320.41856 1403.62247,1324.88242 1403.62247,1330.38776 C1403.62247,1335.57057 1407.59285,1339.78082 1412.64315,1340.26094 L1412.64315,1532 L1332.05977,1532 C1331.585,1527.57554 1327.88768,1524.12116 1323.34413,1524.12116 C1320.60374,1524.12116 1318.18806,1525.39654 1316.57186,1527.35887 C1295.55642,1513.53642 1231.03905,1471.10146 1172,1432.27107 L1225.93955,1432.27107 C1226.41432,1436.69307 1230.10918,1440.15237 1234.65765,1440.15237 C1239.20119,1440.15237 1242.90097,1436.69307 1243.37575,1432.27107 L1389.82456,1432.27107 C1390.29933,1436.69307 1393.99665,1440.15237 1398.54512,1440.15237 C1403.41092,1440.15237 1407.35423,1436.2031 1407.35423,1431.33053 C1407.35423,1426.7805 1403.90291,1423.0799 1399.48482,1422.60471 L1399.48482,1220.4902 C1403.1477,1220.09626 1406.11933,1217.48639 1407.03444,1214 L1548,1214 Z M891,2505.85112 C891,2512.55087 885.549063,2518 878.852624,2518 C875.845553,2518 873.123806,2516.86104 871,2515.04467 C871.650043,2514.39454 872.30753,2513.73945 872.962536,2513.08189 C874.575239,2514.3995 876.607245,2515.22084 878.852624,2515.22084 C884.025679,2515.22084 888.218707,2511.0273 888.218707,2505.85112 C888.218707,2503.60794 887.397469,2501.5732 886.082496,2499.9603 C886.73502,2499.30769 887.385064,2498.65509 888.045032,2498 C889.861183,2500.12159 891,2502.84367 891,2505.85112 Z M867,2506.14835 C867,2499.45026 872.449132,2494 879.146402,2494 C882.153846,2494 884.875931,2495.13868 887,2496.95956 L885.039702,2498.91937 C883.424318,2497.5996 881.39206,2496.77847 879.146402,2496.77847 C873.972705,2496.77847 869.776675,2500.97594 869.776675,2506.14835 C869.776675,2508.39097 870.598015,2510.4252 871.915633,2512.04019 L869.955335,2514 C868.138958,2511.87398 867,2509.15505 867,2506.14835 Z M268.148883,1744 C261.449132,1744 256,1738.54771 256,1731.85209 C256,1728.84427 257.138958,1726.12185 258.955335,1724 L260.918114,1725.96054 C259.600496,1727.57364 258.779156,1729.60615 258.779156,1731.85209 C258.779156,1737.02643 262.975186,1741.22298 268.148883,1741.22298 C270.394541,1741.22298 272.426799,1740.40154 274.039702,1739.08376 C274.692308,1739.73644 275.342432,1740.38913 276,1741.0443 C273.875931,1742.8609 271.156328,1744 268.148883,1744 Z M267.851117,1720 C274.550868,1720 280,1725.44981 280,1732.14791 C280,1735.15573 278.861042,1737.87567 277.044665,1740 L275.084367,1738.03946 C276.399504,1736.42636 277.220844,1734.39136 277.220844,1732.14791 C277.220844,1726.97109 273.027295,1722.77454 267.851117,1722.77454 C265.605459,1722.77454 263.573201,1723.59846 261.960298,1724.91376 L260,1722.95322 C262.124069,1721.1391 264.843672,1720 267.851117,1720 Z M1656.12013,1274.62 L1656.12013,1263.80847 L1713,1263.80847 L1713,1261.92863 L1656.12013,1261.92863 L1656.12013,1251.1171 L1649.53823,1251.1171 L1649.53823,1261.92863 L1642.95634,1261.92863 L1642.95634,1251.1171 L1636.37199,1251.1171 L1636.37199,1261.92863 L1629.79501,1261.92863 L1629.79501,1251.1171 L1629.32259,1251.1171 L1629.32259,1222.03128 C1633.74169,1221.5564 1637.1938,1217.85823 1637.1938,1213.31365 C1637.1938,1208.44428 1633.24958,1204.4976 1628.38267,1204.4976 C1623.83809,1204.4976 1620.13993,1207.95217 1619.66258,1212.37127 L1550.34724,1212.37127 L1550.34724,1061.66188 L1548.46248,1061.66188 L1548.46248,1212.37127 L1407.74773,1212.37127 C1407.75265,1212.25317 1407.78463,1212.13998 1407.78463,1212.01942 C1407.78463,1207.1525 1403.84042,1203.20583 1398.97351,1203.20583 C1394.10414,1203.20583 1390.15746,1207.1525 1390.15746,1212.01942 C1390.15746,1216.56646 1393.60957,1220.26462 1398.02867,1220.7395 L1398.02867,1422.72124 C1393.92206,1423.16413 1390.69385,1426.3948 1390.25096,1430.50141 L1243.76875,1430.50141 C1243.32585,1426.3948 1240.09519,1423.16413 1235.98858,1422.72124 L1235.98858,1276.77542 L1246.80011,1276.77542 L1246.80011,1270.19598 L1235.98858,1270.19598 L1235.98858,1263.61409 L1246.80011,1263.61409 L1246.80011,1257.03219 L1235.98858,1257.03219 L1235.98858,1250.4503 L1246.80011,1250.4503 L1246.80011,1243.87086 L1235.98858,1243.87086 L1235.98858,1237.28897 L1246.80011,1237.28897 L1246.80011,1230.70708 L1235.98858,1230.70708 L1235.98858,1203.63642 L1388.62948,1203.63642 L1388.62948,1061.66188 L1386.74964,1061.66188 L1386.74964,1201.75412 L1235.98858,1201.75412 L1235.98858,1061 L1234.10628,1061 L1234.10628,1201.75412 L1164.85983,1201.75412 L1164.85983,1427.44052 C1123.27456,1400.11397 1085.54,1375.31683 1069.26365,1364.62095 C1070.00181,1363.23075 1070.45701,1361.66832 1070.45701,1359.98533 C1070.45701,1354.48606 1065.99608,1350.02513 1060.49682,1350.02513 C1055.31742,1350.02513 1051.10993,1353.99396 1050.63013,1359.04541 L982.458922,1359.04541 L982.458922,1165.61891 C986.878019,1165.14402 990.332591,1161.44586 990.332591,1156.89882 C990.332591,1152.03191 986.383454,1148.08523 981.516543,1148.08523 C976.97196,1148.08523 973.271336,1151.5398 972.798916,1155.96136 L768.34928,1155.96136 C768.130293,1153.93635 767.26665,1152.10818 765.913363,1150.73029 L854.314973,1062.32868 L852.983831,1061 L764.451814,1149.53202 C763.06408,1148.62408 761.41061,1148.08523 759.629192,1148.08523 C754.75982,1148.08523 750.813144,1152.03191 750.813144,1156.89882 C750.813144,1158.6827 751.351998,1160.33371 752.262391,1161.72144 L670.858504,1243.12533 L599.109703,1243.12533 C598.66927,1239.01626 595.438605,1235.78559 591.331995,1235.34516 L591.331995,1061.66188 L589.452157,1061.66188 L589.452157,1235.34516 C585.343087,1235.78559 582.112422,1239.01626 581.671989,1243.12533 L478.507252,1243.12533 L478.507252,1234.46429 C483.561162,1233.98449 487.527523,1229.777 487.527523,1224.59514 C487.527523,1219.09341 483.069058,1214.63249 477.564872,1214.63249 C472.385475,1214.63249 468.180444,1218.60131 467.698182,1223.65522 L410.810929,1223.65522 L410.810929,1163.95313 L421.62246,1163.95313 L421.62246,1157.37124 L410.810929,1157.37124 L410.810929,1150.78934 L421.62246,1150.78934 L421.62246,1144.20991 L410.810929,1144.20991 L410.810929,1137.62555 L421.62246,1137.62555 L421.62246,1131.04612 L410.810929,1131.04612 L410.810929,1124.46423 L421.62246,1124.46423 L421.62246,1117.88233 L410.810929,1117.88233 L410.810929,1061 L408.931091,1061 L408.931091,1117.88233 L398.11956,1117.88233 L398.11956,1124.46423 L408.931091,1124.46423 L408.931091,1131.04612 L398.11956,1131.04612 L398.11956,1137.62555 L408.931091,1137.62555 L408.931091,1144.20991 L398.11956,1144.20991 L398.11956,1150.78934 L408.931091,1150.78934 L408.931091,1157.37124 L398.11956,1157.37124 L398.11956,1163.95313 L408.931091,1163.95313 L408.931091,1223.65522 L208.664341,1223.65522 L208.664341,1225.53506 L408.931091,1225.53506 L408.931091,1243.12533 L408.78592,1243.12533 L408.78592,1232.31134 L402.206486,1232.31134 L402.206486,1243.12533 L395.624591,1243.12533 L395.624591,1232.31134 L389.042697,1232.31134 L389.042697,1243.12533 L208.664341,1243.12533 L208.664341,1245.00516 L389.042697,1245.00516 L389.042697,1255.8167 L395.624591,1255.8167 L395.624591,1245.00516 L402.206486,1245.00516 L402.206486,1255.8167 L408.78592,1255.8167 L408.78592,1245.00516 L408.931091,1245.00516 L408.931091,1279.80924 C404.511994,1280.28412 401.054962,1283.98228 401.054962,1288.53179 C401.054962,1293.3987 405.004099,1297.34291 409.87101,1297.34291 C414.415593,1297.34291 418.113756,1293.8908 418.591097,1289.46925 L476.624953,1289.46925 L476.624953,1350.11863 C471.571042,1350.6009 467.604682,1354.80839 467.604682,1359.98533 C467.604682,1365.48705 472.065607,1369.94798 477.564872,1369.94798 C482.744269,1369.94798 486.951761,1365.98162 487.434023,1360.92524 L553.056126,1360.92524 L482.975558,1431.00581 C481.732995,1430.04867 480.195169,1429.45568 478.507252,1429.45568 C474.444931,1429.45568 471.155214,1432.74786 471.155214,1436.80772 C471.155214,1440.54525 473.955287,1443.59876 477.564872,1444.0638 L477.564872,1468.96181 L376.353789,1468.96181 L376.353789,1458.15028 L369.771894,1458.15028 L369.771894,1468.96181 L363.19,1468.96181 L363.19,1458.15028 L356.610566,1458.15028 L356.610566,1468.96181 L350.63888,1468.96181 L350.63888,1385.37052 L208.664341,1385.37052 L208.664341,1387.25282 L348.756582,1387.25282 L348.756582,1458.15028 L343.446777,1458.15028 L343.446777,1468.96181 L336.864882,1468.96181 L336.864882,1458.15028 L330.282988,1458.15028 L330.282988,1468.96181 L208.664341,1468.96181 L208.664341,1470.84411 L330.282988,1470.84411 L330.282988,1481.65564 L336.864882,1481.65564 L336.864882,1470.84411 L343.446777,1470.84411 L343.446777,1481.65564 L348.756582,1481.65564 L348.756582,1559.03658 L333.712954,1559.03658 L333.712954,1791.53124 C332.391655,1791.70101 331.18846,1792.2128 330.184567,1792.98786 L279.704512,1742.50781 C282.187178,1739.71758 283.70778,1736.05386 283.70778,1732.03337 C283.70778,1723.3182 276.616558,1716.22698 267.898931,1716.22698 C263.878439,1716.22698 260.217183,1717.74758 257.422031,1720.22779 L209.331142,1672.13444 L208,1673.46312 C208,1673.46312 228.124604,1693.58772 256.093349,1721.55647 C253.610683,1724.34916 252.090081,1728.01288 252.090081,1732.03337 C252.090081,1740.74854 259.181304,1747.8373 267.898931,1747.8373 C271.919422,1747.8373 275.583139,1746.31916 278.37337,1743.83895 C294.484863,1759.95044 311.868446,1777.33157 328.853425,1794.31901 C327.893822,1795.55911 327.300836,1797.09447 327.300836,1798.78731 C327.300836,1802.52484 330.100909,1805.58081 333.712954,1806.04585 L333.712954,1985.21363 C330.100909,1985.67867 327.300836,1988.73464 327.300836,1992.47217 C327.300836,1996.53203 330.593013,1999.82421 334.652874,1999.82421 C338.392866,1999.82421 341.446373,1997.02167 341.911411,1993.41209 L390.125326,1993.41209 L390.125326,2100.47921 L209.331142,1919.68503 L208,1921.01617 L390.125326,2103.13903 L390.125326,2134.44425 L333.712954,2134.44425 L333.712954,2182.67047 L208.664341,2182.67047 L208.664341,2184.54784 L333.712954,2184.54784 L333.712954,2566 L335.592793,2566 L335.592793,2184.54784 L382.347619,2184.54784 C382.790512,2188.65691 386.021177,2191.88758 390.125326,2192.32801 L390.125326,2338.88896 L379.313796,2338.88896 L379.313796,2345.4684 L390.125326,2345.4684 L390.125326,2352.05275 L379.313796,2352.05275 L379.313796,2358.62973 L390.125326,2358.62973 L390.125326,2365.21408 L379.313796,2365.21408 L379.313796,2371.79351 L390.125326,2371.79351 L390.125326,2378.37787 L379.313796,2378.37787 L379.313796,2384.95484 L390.125326,2384.95484 L390.125326,2565.3332 L392.007625,2565.3332 L392.007625,2384.95484 L402.819156,2384.95484 L402.819156,2378.37787 L392.007625,2378.37787 L392.007625,2371.79351 L402.819156,2371.79351 L402.819156,2365.21408 L392.007625,2365.21408 L392.007625,2358.62973 L402.819156,2358.62973 L402.819156,2352.05275 L392.007625,2352.05275 L392.007625,2345.4684 L402.819156,2345.4684 L402.819156,2338.88896 L392.007625,2338.88896 L392.007625,2192.32801 C396.426721,2191.85313 399.878833,2188.15497 399.878833,2183.60546 C399.878833,2179.06334 396.426721,2175.36518 392.007625,2174.88784 L392.007625,2136.32409 L418.596018,2136.32409 C419.061057,2139.93367 422.114564,2142.7362 425.854556,2142.7362 C426.981475,2142.7362 428.039499,2142.46309 428.994181,2142.00789 L498.193883,2211.20759 C494.92631,2214.47762 491.985987,2217.42041 489.409821,2219.99411 C486.508867,2217.40318 482.692598,2215.81369 478.507252,2215.81369 C469.452533,2215.81369 462.088193,2223.17557 462.088193,2232.22536 C462.088193,2240.96021 468.950587,2248.09819 477.564872,2248.59275 L477.564872,2372.57842 C473.955287,2373.04838 471.155214,2376.10189 471.155214,2379.83696 C471.155214,2383.89928 474.444931,2387.19146 478.507252,2387.19146 C482.244783,2387.19146 485.29829,2384.38892 485.763329,2380.77688 L589.452157,2380.77688 L589.452157,2566 L591.331995,2566 L591.331995,2379.83696 L591.331995,2378.89704 L591.331995,2296.43513 L615.964274,2296.43513 L615.964274,2397.64867 L605.152744,2397.64867 L605.152744,2404.22565 L615.964274,2404.22565 L615.964274,2410.80754 L605.152744,2410.80754 L605.152744,2417.38943 L615.964274,2417.38943 L615.964274,2423.97379 L605.152744,2423.97379 L605.152744,2430.55568 L615.964274,2430.55568 L615.964274,2437.13512 L605.152744,2437.13512 L605.152744,2443.71701 L615.964274,2443.71701 L615.964274,2565.3332 L617.844112,2565.3332 L617.844112,2443.71701 L628.655643,2443.71701 L628.655643,2437.13512 L617.844112,2437.13512 L617.844112,2430.55568 L628.655643,2430.55568 L628.655643,2423.97379 L617.844112,2423.97379 L617.844112,2417.38943 L628.655643,2417.38943 L628.655643,2410.80754 L617.844112,2410.80754 L617.844112,2404.22565 L628.655643,2404.22565 L628.655643,2397.64867 L617.844112,2397.64867 L617.844112,2296.43513 L643.829678,2296.43513 L643.829678,2477.75832 L706.036578,2477.75832 L706.036578,2566 L707.916416,2566 L707.916416,2477.75832 L799.797202,2477.75832 C800.240096,2481.86247 803.473221,2485.09314 807.577371,2485.53357 L807.577371,2566 L809.45967,2566 L809.45967,2485.53357 C813.878766,2485.05869 817.333338,2481.36299 817.333338,2476.81594 C817.333338,2472.27136 813.878766,2468.5732 809.45967,2468.09586 L809.45967,2440.28705 L938.531236,2440.28705 C938.703472,2441.60835 939.21526,2442.81154 939.990325,2443.81543 L889.51273,2494.29549 C886.720038,2491.81282 883.056322,2490.29222 879.03583,2490.29222 C870.320664,2490.29222 863.229442,2497.38344 863.229442,2506.10107 C863.229442,2510.12156 864.750044,2513.78528 867.23271,2516.57797 L819.1369,2564.67132 L820.465581,2566 C820.465581,2566 840.590185,2545.87786 868.558931,2517.90665 C871.351622,2520.38686 875.015339,2521.91238 879.03583,2521.91238 C887.750997,2521.91238 894.839759,2514.8187 894.839759,2506.10107 C894.839759,2502.08058 893.321617,2498.41932 890.841412,2495.62417 C906.952905,2479.51514 924.336488,2462.13155 941.321467,2445.14411 C942.561569,2446.10372 944.099395,2446.6967 945.789773,2446.6967 C949.527305,2446.6967 952.580812,2443.89909 953.048311,2440.28705 L1040.75113,2440.28705 L1040.75113,2566 L1042.63097,2566 L1042.63097,2440.28705 L1132.21363,2440.28705 C1132.68113,2443.89909 1135.73956,2446.6967 1139.47217,2446.6967 C1143.53203,2446.6967 1146.82667,2443.40453 1146.82667,2439.34713 C1146.82667,2435.60467 1144.02413,2432.55363 1140.41209,2432.08859 L1140.41209,2414.62381 L1159.21785,2414.62381 L1159.21785,2349.08536 L1240.0755,2349.08536 L1240.0755,2566 L1241.95534,2566 L1241.95534,2349.08536 L1275.12809,2349.08536 C1275.55622,2352.38738 1278.14715,2354.98077 1281.44671,2355.40644 L1281.44671,2440.28705 L1559.74643,2440.28705 L1559.74643,2472.66258 C1555.64228,2473.10302 1552.4067,2476.33122 1551.96626,2480.43783 L1494.19076,2480.43783 C1493.71342,2476.01874 1490.01526,2472.56662 1485.46821,2472.56662 C1480.60376,2472.56662 1476.65217,2476.51084 1476.65217,2481.38021 C1476.65217,2485.92726 1480.11166,2489.62542 1484.53075,2490.09784 L1484.53075,2566 L1486.40813,2566 L1486.40813,2490.09784 C1490.5172,2489.65741 1493.75033,2486.42674 1494.19076,2482.32259 L1551.96626,2482.32259 C1552.44114,2486.73923 1556.14177,2490.1938 1560.68635,2490.1938 C1565.55572,2490.1938 1569.49994,2486.24712 1569.49994,2481.38021 C1569.49994,2476.83317 1566.04537,2473.135 1561.62627,2472.66258 L1561.62627,2440.28705 L1713,2440.28705 L1713,2438.40721 L1561.62627,2438.40721 L1561.62627,2260.74773 C1561.74437,2260.75265 1561.85756,2260.78463 1561.97812,2260.78463 C1566.84996,2260.78463 1570.79171,2256.8355 1570.79171,2251.97105 C1570.79171,2247.09922 1566.84996,2243.155 1561.97812,2243.155 C1557.43354,2243.155 1553.73538,2246.60957 1553.2605,2251.02867 L1527.7818,2251.02867 L1527.7818,2184.54784 L1713,2184.54784 L1713,2182.67047 L1526.84188,2182.67047 L1525.8995,2182.67047 L1343.49859,2182.67047 L1343.49859,2130.17032 L1624.76079,2130.17032 L1624.76079,2088.98612 L1713,2088.98612 L1713,2087.10628 L1624.76079,2087.10628 L1624.76079,2067.96096 L1713,2067.96096 L1713,2066.08358 L1624.76079,2066.08358 L1624.76079,1974.20034 C1628.8674,1973.75744 1632.0956,1970.52678 1632.53603,1966.42017 L1713,1966.42017 L1713,1964.54033 L1632.53603,1964.54033 C1632.06115,1960.12123 1628.36791,1956.66666 1623.81841,1956.66666 C1619.27136,1956.66666 1615.5732,1960.12123 1615.10078,1964.54033 L1381.59239,1964.54033 C1393.74736,1946.04459 1403.60913,1931.03787 1409.37659,1922.26119 C1410.76679,1922.99689 1412.32922,1923.45701 1414.00975,1923.45701 C1419.51886,1923.45701 1423.97487,1918.99362 1423.97487,1913.49436 C1423.97487,1908.31742 1420.0085,1904.10993 1414.95213,1903.6252 L1414.95213,1835.454 L1608.37863,1835.454 C1608.85351,1839.87556 1612.55168,1843.33013 1617.09626,1843.33013 C1621.96809,1843.33013 1625.91477,1839.38591 1625.91477,1834.51654 C1625.91477,1829.9695 1622.4602,1826.27134 1618.03864,1825.79646 L1618.03864,1733.24887 L1713,1733.24887 L1713,1731.36903 L1618.03864,1731.36903 L1618.03864,1621.34682 C1622.4602,1620.86948 1625.91477,1617.17131 1625.91477,1612.62673 C1625.91477,1607.75736 1621.96809,1603.81068 1617.09626,1603.81068 C1612.55414,1603.81068 1608.85598,1607.26526 1608.37863,1611.68435 L1486.40813,1611.68435 L1486.40813,1533.9245 L1713,1533.9245 L1713,1532.04466 L1486.40813,1532.04466 L1486.40813,1331.50479 L1539.53817,1331.50479 C1540.01797,1336.5587 1544.223,1340.52506 1549.4024,1340.52506 C1554.90659,1340.52506 1559.36997,1336.0666 1559.36997,1330.56487 C1559.36997,1325.38547 1555.39869,1321.18044 1550.34724,1320.69818 L1550.34724,1263.80847 L1610.04933,1263.80847 L1610.04933,1274.62 L1616.63122,1274.62 L1616.63122,1263.80847 L1623.2082,1263.80847 L1623.2082,1274.62 L1627.44029,1274.62 L1627.44029,1279.80924 C1623.0212,1280.28658 1619.56909,1283.98474 1619.56909,1288.53179 C1619.56909,1293.3987 1623.51576,1297.34291 1628.38267,1297.34291 C1632.92726,1297.34291 1636.62542,1293.8908 1637.1003,1289.46925 L1713,1289.46925 L1713,1287.58941 L1637.1003,1287.58941 C1636.65987,1283.4828 1633.42674,1280.25213 1629.32259,1279.80924 L1629.32259,1274.62 L1629.79501,1274.62 L1629.79501,1263.80847 L1636.37199,1263.80847 L1636.37199,1274.62 L1642.95634,1274.62 L1642.95634,1263.80847 L1649.53823,1263.80847 L1649.53823,1274.62 L1656.12013,1274.62 Z" id="Fill-1"></path>
        </g>
    </g>
</svg>