<?xml version="1.0" encoding="UTF-8"?>
<svg width="40px" height="40px" viewBox="0 0 40 40" version="1.1" xmlns="http://www.w3.org/2000/svg" xmlns:xlink="http://www.w3.org/1999/xlink">
    <!-- Generator: Sketch 51.3 (57544) - http://www.bohemiancoding.com/sketch -->
    <title>icon/facebook</title>
    <desc>Created with Sketch.</desc>
    <defs></defs>
    <g id="Symbols" stroke="none" stroke-width="1" fill="none" fill-rule="evenodd">
        <g id="icon/facebook">
            <rect id="Rectangle-12" x="0" y="0" width="40" height="40"></rect>
            <path d="M26.5284663,7.00507165 L23.156493,7 C19.3686442,7 16.9200499,9.51182085 16.9200499,13.398736 L16.9200499,16.3494239 L13.5294806,16.3494239 C13.2376915,16.3494239 13,16.585763 13,16.8789045 L13,21.1543083 C13,21.4460974 13.2376915,21.6837889 13.5294806,21.6837889 L16.9200499,21.6837889 L16.9200499,32.4705194 C16.9200499,32.7623085 17.1577414,33 17.450883,33 L21.8726885,33 C22.1658301,33 22.4035215,32.7623085 22.4035215,32.4705194 L22.4035215,21.6837889 L26.3671877,21.6837889 C26.6603293,21.6837889 26.8970064,21.4460974 26.8970064,21.1543083 L26.8993732,16.8789045 C26.8993732,16.7389269 26.8425707,16.604359 26.7435044,16.5039403 C26.6444381,16.404874 26.5098702,16.3494239 26.3685401,16.3494239 L22.4035215,16.3494239 L22.4035215,13.8480845 C22.4035215,12.6461026 22.690239,12.0358137 24.2553512,12.0358137 L26.5271138,12.0344612 C26.8202554,12.0344612 27.0565944,11.7967697 27.0565944,11.5049806 L27.0565944,7.53624282 C27.0565944,7.24276314 26.8202554,7.00642409 26.5284663,7.00507165 Z" id="facebook-logo" fill="#FFFFFF"></path>
        </g>
    </g>
</svg>