<?xml version="1.0" encoding="UTF-8"?>
<svg width="40px" height="40px" viewBox="0 0 40 40" version="1.1" xmlns="http://www.w3.org/2000/svg" xmlns:xlink="http://www.w3.org/1999/xlink">
    <!-- Generator: Sketch 51.3 (57544) - http://www.bohemiancoding.com/sketch -->
    <title>icon/linkedin</title>
    <desc>Created with Sketch.</desc>
    <defs></defs>
    <g id="Symbols" stroke="none" stroke-width="1" fill="none" fill-rule="evenodd">
        <g id="icon/linkedin">
            <rect id="Rectangle-12" x="0" y="0" width="40" height="40"></rect>
            <g id="Medium_logo_Monogram" transform="translate(7.000000, 7.000000)" fill="#FFFFFF">
                <path d="M26,14.1321225 L25.9995912,14.1321225 L25.9995912,25.6427348 C25.9995912,25.8404184 25.8398695,26.0004089 25.6431553,25.9999992 L20.9707582,25.9991798 C20.7739418,25.9987701 20.6143222,25.8387796 20.6143222,25.6415057 L20.6143222,15.9881971 C20.6143222,15.1536242 20.2769957,14.3978174 19.7313053,13.8512684 C19.1780529,13.2967302 18.4108164,12.956571 17.5645875,12.9661991 C15.906772,12.9850456 14.5843415,14.3649384 14.5843415,16.0266071 L14.5843415,25.6402766 C14.5843415,25.8379601 14.4246198,25.9980531 14.2279056,25.9980531 L9.56705583,25.996824 C9.36993285,25.9964143 9.21061987,25.8364237 9.21061987,25.6391499 L9.21061987,8.99880257 C9.21061987,8.801119 9.37023941,8.64112846 9.56705583,8.64112846 L14.1284755,8.64112846 C14.3257006,8.64112846 14.4853202,8.8015287 14.4853202,8.99880257 L14.4853202,10.9176647 C14.4857289,10.9168453 14.5037142,10.9193036 14.5340644,10.9237079 C14.6222537,10.7640247 14.718005,10.6091555 14.8218292,10.4603294 C15.7726998,9.0928303 17.3530559,8.1981329 19.1417758,8.1981329 L20.0793617,8.1981329 C23.3494164,8.1981329 26,10.8548772 26,14.1321225 Z M3.13996785,6.78256801e-07 C4.84642541,0.00163950577 6.2534686,1.41400154 6.24989198,3.13323403 C6.2459066,4.9328715 4.75578359,6.28930855 3.11881468,6.25048882 C1.45864883,6.28408479 -0.000408670963,4.8941542 8.58647138e-08,3.12125011 C8.58647138e-08,1.40160791 1.41266368,-0.00112601566 3.13996785,6.78256801e-07 Z M4.9526,25.9964143 L1.2969855,25.9964143 C0.822316634,25.9964143 0.437472081,25.611085 0.437472081,25.1354153 L0.437472081,9.50253717 C0.437472081,9.02676506 0.822316634,8.64153817 1.2969855,8.64153817 L4.9526,8.64153817 C5.42726886,8.64153817 5.81201123,9.02676506 5.81201123,9.50253717 L5.81201123,25.1354153 C5.81201123,25.611085 5.42726886,25.9964143 4.9526,25.9964143 Z" id="linkedin"></path>
            </g>
        </g>
    </g>
</svg>