<?xml version="1.0" encoding="UTF-8"?>
<svg width="220px" height="36px" viewBox="0 0 220 36" version="1.1" xmlns="http://www.w3.org/2000/svg" xmlns:xlink="http://www.w3.org/1999/xlink">
    <!-- Generator: Sketch 51.3 (57544) - http://www.bohemiancoding.com/sketch -->
    <title>logo</title>
    <desc>Created with Sketch.</desc>
    <defs></defs>
    <g id="logo" stroke="none" stroke-width="1" fill="none" fill-rule="evenodd">
        <path d="M189.211677,11.7098177 C188.355827,11.7098177 187.654085,11.8842017 187.105763,12.2322832 C186.557441,12.5803646 186.283624,13.1062629 186.283624,13.8106644 C186.283624,14.515066 186.557441,15.0540087 187.105763,15.426806 C187.654085,15.7996033 188.820903,16.2019223 190.606218,16.63239 C192.39222,17.0635441 193.737226,17.6683958 194.641923,18.4476314 C195.547308,19.2261805 196,20.3740941 196,21.8906858 C196,23.4072774 195.426911,24.6375772 194.28142,25.5822717 C193.135241,26.5269662 191.631312,27 189.771695,27 C187.047973,27 184.63109,26.0628576 182.521736,24.1906324 L184.365529,21.9771912 C186.126764,23.5027081 187.953358,24.2647799 189.846685,24.2647799 C190.793349,24.2647799 191.544626,24.0615608 192.101204,23.655809 C192.657781,23.2500572 192.935726,22.7111145 192.935726,22.0396674 C192.935726,21.3682203 192.674293,20.8464414 192.150738,20.4736441 C191.627872,20.1008467 190.726615,19.7610039 189.448343,19.4541155 C188.168696,19.1472271 187.197265,18.8657411 186.532674,18.6089709 C185.868771,18.3522008 185.27917,18.0164772 184.763871,17.6018003 C183.734649,16.8232512 183.219351,15.6300252 183.219351,14.0221222 C183.219351,12.4142192 183.804824,11.1756808 184.976458,10.3051339 C186.146716,9.43527348 187.595607,9 189.323131,9 C190.435598,9 191.540498,9.18193607 192.636454,9.54718133 C193.733098,9.91174003 194.679762,10.4252803 195.477133,11.0884888 L193.907157,13.3005569 C193.392547,12.8371348 192.694932,12.4560989 191.814315,12.1574491 C190.934385,11.8587993 190.066152,11.7098177 189.211677,11.7098177 Z M169.264315,24.0903959 L173.873109,24.0903959 C174.953242,24.0903959 175.778821,23.9208178 176.35191,23.5809749 C176.924999,23.241132 177.211888,22.5985201 177.211888,21.6538256 C177.211888,20.1125181 175.974896,19.3422076 173.499535,19.3422076 L169.264315,19.3422076 L169.264315,24.0903959 Z M169.264315,16.63239 L173.001436,16.63239 C175.127301,16.63239 176.190234,15.9115112 176.190234,14.4697536 C176.190234,13.6410863 175.932929,13.0437867 175.418318,12.679228 C174.903019,12.3146693 174.106335,12.1327332 173.026891,12.1327332 L169.264315,12.1327332 L169.264315,16.63239 Z M173.948099,26.8009001 L166.324566,26.8009001 L166.324566,9.42291555 L173.101193,9.42291555 C174.280395,9.42291555 175.297233,9.56365856 176.153083,9.84514456 C177.008933,10.1273171 177.643253,10.508353 178.058794,10.9889389 C178.856166,11.8842017 179.254508,12.8948051 179.254508,14.0221222 C179.254508,15.3808071 178.823143,16.392097 177.959037,17.0553055 C177.643253,17.2873598 177.427915,17.4322221 177.311646,17.4898924 L176.689021,17.7761843 C177.768466,18.0082386 178.627756,18.4929438 179.26758,19.2302998 C179.906715,19.9676558 180.225939,20.8835151 180.225939,21.9771912 C180.225939,23.1875811 179.811086,24.2565413 178.980691,25.1847586 C178.001004,26.2619574 176.323015,26.8009001 173.948099,26.8009001 Z M157.808032,20.1379205 L154.644689,12.9778778 L151.47997,20.1379205 L157.808032,20.1379205 Z M150.284256,22.8477382 L148.540221,26.8009001 L145.400957,26.8009001 L153.074713,9.42291555 L156.213977,9.42291555 L163.887045,26.8009001 L160.747781,26.8009001 L159.004433,22.8477382 L150.284256,22.8477382 Z M133.699752,26.8009001 L133.699752,9.42291555 L136.640189,9.42291555 L136.640189,24.0162484 L144.587762,24.0162484 L144.587762,26.8009001 L133.699752,26.8009001 Z M115.749602,9.42291555 L119.636015,9.42291555 L119.636015,16.5582424 L126.213127,9.42291555 L131.021436,9.42291555 L124.094829,17.1047372 L127.408841,21.7410176 L131.021436,26.8009001 L126.486944,26.8009001 L121.380051,19.9388207 L119.636015,21.8783279 L119.636015,26.8009001 L115.749602,26.8009001 L115.749602,9.42291555 Z M104.33391,14.5940194 L102.140622,19.6408574 L106.501055,19.6408574 L104.33391,14.5940194 Z M109.590096,26.8009001 L107.970585,23.0468381 L100.67178,23.0468381 L99.0515811,26.8009001 L94.9161188,26.8009001 L102.439895,9.42291555 L106.20247,9.42291555 L113.725558,26.8009001 L109.590096,26.8009001 Z M88.9925901,15.8613929 L84.2840385,25.358456 L81.9669137,25.358456 L77.2831293,15.8613929 L77.2831293,26.8009001 L73.3967166,26.8009001 L73.3967166,9.42291555 L78.6535903,9.42291555 L83.1378597,18.9694103 L87.6475845,9.42291555 L92.8790028,9.42291555 L92.8790028,26.8009001 L88.9925901,26.8009001 L88.9925901,15.8613929 Z M61.9810243,14.5940194 L59.7884243,19.6408574 L64.1488569,19.6408574 L61.9810243,14.5940194 Z M67.237898,26.8009001 L65.6183874,23.0468381 L58.3188939,23.0468381 L56.6993833,26.8009001 L52.5639209,26.8009001 L60.0876967,9.42291555 L63.8495846,9.42291555 L71.3733603,26.8009001 L67.237898,26.8009001 Z M37.1538027,9.42291555 L41.0409034,9.42291555 L41.0409034,16.5582424 L47.6180153,9.42291555 L52.4263245,9.42291555 L45.5004054,17.1047372 L48.8137288,21.7410176 L52.4263245,26.8009001 L47.8918323,26.8009001 L42.7842508,19.9388207 L41.0409034,21.8783279 L41.0409034,26.8009001 L37.1538027,26.8009001 L37.1538027,9.42291555 Z M31.2199543,24.4014036 C29.4594073,26.1164086 27.2922627,26.9739111 24.7178324,26.9739111 C22.1434022,26.9739111 19.9762576,26.1164086 18.2150226,24.4014036 C16.4544756,22.6857121 15.5745461,20.5525975 15.5745461,18 C15.5745461,15.4474025 16.4544756,13.3136013 18.2150226,11.5979098 C19.9762576,9.88290487 22.1434022,9.02471584 24.7178324,9.02471584 C27.2922627,9.02471584 29.4594073,9.88290487 31.2199543,11.5979098 C32.9805013,13.3136013 33.8611188,15.4474025 33.8611188,18 C33.8611188,20.5525975 32.9805013,22.6857121 31.2199543,24.4014036 Z M29.899716,18.0123579 C29.899716,16.4621253 29.4016168,15.1405142 28.4047302,14.0468381 C27.4078437,12.9531619 26.183235,12.4059806 24.7302161,12.4059806 C23.2765093,12.4059806 22.0519006,12.9531619 21.055702,14.0468381 C20.0588155,15.1405142 19.5607162,16.4621253 19.5607162,18.0123579 C19.5607162,19.561904 20.0588155,20.8800824 21.055702,21.9655199 C22.0519006,23.0509574 23.2765093,23.5940194 24.7302161,23.5940194 C26.183235,23.5940194 27.4078437,23.0509574 28.4047302,21.9655199 C29.4016168,20.8800824 29.899716,19.561904 29.899716,18.0123579 Z M8.81924666,12.7787779 L8.81924666,26.8009001 L4.93283396,26.8009001 L4.93283396,12.7787779 L0,12.7787779 L0,9.42291555 L13.7527686,9.42291555 L13.7527686,12.7787779 L8.81924666,12.7787779 Z" id="Fill-6" fill="#FFFFFF"></path>
    </g>
</svg>