<?xml version="1.0" encoding="UTF-8"?>
<svg width="40px" height="40px" viewBox="0 0 40 40" version="1.1" xmlns="http://www.w3.org/2000/svg" xmlns:xlink="http://www.w3.org/1999/xlink">
    <!-- Generator: Sketch 51.3 (57544) - http://www.bohemiancoding.com/sketch -->
    <title>icon/medium</title>
    <desc>Created with Sketch.</desc>
    <defs></defs>
    <g id="Symbols" stroke="none" stroke-width="1" fill="none" fill-rule="evenodd">
        <g id="icon/medium">
            <rect id="Rectangle-12" x="0" y="0" width="40" height="40"></rect>
            <g id="Medium_logo_Monogram" transform="translate(7.000000, 7.000000)" fill="#FFFFFF" fill-rule="nonzero">
                <path d="M1,0 L25,0 C25.5522847,-1.01453063e-16 26,0.44771525 26,1 L26,25 C26,25.5522847 25.5522847,26 25,26 L1,26 C0.44771525,26 6.76353751e-17,25.5522847 0,25 L0,1 C-6.76353751e-17,0.44771525 0.44771525,1.01453063e-16 1,0 Z M6.07121071,8.82876739 L6.07121071,16.5487752 C6.11871784,16.8272647 6.03092828,17.1117435 5.83473389,17.3150696 L4,19.540584 L4,19.8340584 L9.20248988,19.8340584 L9.20248988,19.540584 L7.36775599,17.3150696 C7.17012265,17.11208 7.07689704,16.8294759 7.11497043,16.5487752 L7.11497043,9.87223203 L11.6814192,19.8340584 L12.2114535,19.8340584 L16.1337068,9.87223203 L16.1337068,17.8123457 C16.1337068,18.0242995 16.1337068,18.0650597 15.9950825,18.2036449 L14.584376,19.5731923 L14.584376,19.8666667 L21.4340492,19.8666667 L21.4340492,19.5731923 L20.0722689,18.2362532 C19.9520565,18.1446203 19.8924251,17.9940152 19.9173359,17.844954 L19.9173359,8.02171272 C19.8924251,7.87265149 19.9520565,7.72204636 20.0722689,7.63041348 L21.4666667,6.29347443 L21.4666667,6 L16.639278,6 L13.1981326,14.5841269 L9.28403361,6 L4.22016807,6 L4.22016807,6.29347443 L5.85104264,8.25812267 C6.01114667,8.4024308 6.09291171,8.61435429 6.07121071,8.82876739 Z" id="Combined-Shape"></path>
            </g>
        </g>
    </g>
</svg>