<?xml version="1.0" encoding="UTF-8"?>
<svg width="375px" height="340px" viewBox="0 0 375 340" version="1.1" xmlns="http://www.w3.org/2000/svg" xmlns:xlink="http://www.w3.org/1999/xlink">
    <!-- Generator: Sketch 51.3 (57544) - http://www.bohemiancoding.com/sketch -->
    <title>project02</title>
    <desc>Created with Sketch.</desc>
    <defs>
        <linearGradient x1="15.8907137%" y1="86.0333213%" x2="72.437758%" y2="28.2854583%" id="linearGradient-1">
            <stop stop-color="#170D5B" stop-opacity="0" offset="0%"></stop>
            <stop stop-color="#255586" stop-opacity="0.328734646" offset="40.2930816%"></stop>
            <stop stop-color="#42E8DF" offset="100%"></stop>
        </linearGradient>
        <linearGradient x1="129.286042%" y1="-48.3325425%" x2="9.99010926%" y2="90.2202859%" id="linearGradient-2">
            <stop stop-color="#170D5B" stop-opacity="0" offset="0%"></stop>
            <stop stop-color="#255586" stop-opacity="0.328734646" offset="40.2930816%"></stop>
            <stop stop-color="#42E8DF" offset="100%"></stop>
        </linearGradient>
        <linearGradient x1="78.6368178%" y1="2.62365696%" x2="0.710884995%" y2="110.849553%" id="linearGradient-3">
            <stop stop-color="#5677FF" offset="0%"></stop>
            <stop stop-color="#BCD4FF" offset="100%"></stop>
        </linearGradient>
        <path d="M43.486,0.404264076 L13.505,17.5547712 L0,17.5646796 L0.003,25.840203 L0.011,25.840203 C0.022,26.0978223 0.177,26.3415698 0.499,26.5268575 L43.695,51.2365083 C44.433,51.6586075 45.725,51.605102 46.577,51.1185979 L89.357,26.6447678 C89.802,26.3911119 90.035,26.0710695 90.057,25.7599447 L90.057,17.5032473 L76.483,17.5121649 L46.369,0.285362877 C46.034,0.0941301158 45.586,0 45.117,0 C44.551,0 43.953,0.136736379 43.486,0.404264076" id="path-4"></path>
        <linearGradient x1="-33.2443691%" y1="50.0003229%" x2="109.716279%" y2="50.0003229%" id="linearGradient-6">
            <stop stop-color="#007AFD" offset="0%"></stop>
            <stop stop-color="#170D5B" offset="100%"></stop>
        </linearGradient>
        <linearGradient x1="98.4500304%" y1="45.0939261%" x2="34.556443%" y2="-16.3663675%" id="linearGradient-7">
            <stop stop-color="#1660FF" offset="0%"></stop>
            <stop stop-color="#00A8F8" offset="47.4630759%"></stop>
            <stop stop-color="#15B0FB" offset="100%"></stop>
        </linearGradient>
        <polygon id="path-8" points="33.4712644 21.2781841 33.4712644 113.298606 0.884478161 92.8673992 0.884478161 0.848037805"></polygon>
        <polygon id="path-10" points="33.4712644 21.2781841 33.4712644 113.298606 0.884478161 92.8673992 0.884478161 0.848037805"></polygon>
        <linearGradient x1="98.4500304%" y1="45.0939261%" x2="8.33784019%" y2="42.7225705%" id="linearGradient-12">
            <stop stop-color="#1660FF" offset="0%"></stop>
            <stop stop-color="#00A8F8" offset="47.4630759%"></stop>
            <stop stop-color="#15B0FB" offset="100%"></stop>
        </linearGradient>
        <linearGradient x1="93.0170799%" y1="50.0001108%" x2="-8.3578494%" y2="50.0001108%" id="linearGradient-13">
            <stop stop-color="#0D052C" offset="0%"></stop>
            <stop stop-color="#E8FFFF" offset="100%"></stop>
        </linearGradient>
        <linearGradient x1="49.9984063%" y1="53.6986905%" x2="49.9984063%" y2="-46.3013108%" id="linearGradient-14">
            <stop stop-color="#5677FF" offset="0%"></stop>
            <stop stop-color="#BCD4FF" offset="100%"></stop>
        </linearGradient>
        <linearGradient x1="62.9068353%" y1="84.8019778%" x2="38.5930433%" y2="19.2466443%" id="linearGradient-15">
            <stop stop-color="#BFD6FF" offset="0%"></stop>
            <stop stop-color="#E8FFFF" offset="100%"></stop>
        </linearGradient>
        <path d="M32.5296856,25.7386919 L31.0746237,24.8860612 L31.1947062,24.195202 L44.6899124,16.2293862 L46.5633866,17.1353063 L46.2134588,17.7252962 L32.5296856,25.7386919 Z M36.9456247,28.3165673 L35.4896247,27.4639366 L35.6106454,26.7730775 L49.1049134,18.8072616 L50.9783876,19.7122301 L50.6293979,20.3031716 L36.9456247,28.3165673 Z M41.3614701,30.8944427 L39.9054701,30.0418121 L40.0264907,29.3509529 L53.5207588,21.3851371 L55.394233,22.2901055 L55.0452433,22.881047 L41.3614701,30.8944427 Z M45.7773155,33.4723181 L44.3213155,32.6196875 L44.4413979,31.9288283 L57.9366041,23.9630125 L59.8100784,24.8679809 L59.4610887,25.4589224 L45.7773155,33.4723181 Z" id="path-16"></path>
        <linearGradient x1="-0.00335429076%" y1="50.0005963%" x2="99.9994016%" y2="50.0005963%" id="linearGradient-17">
            <stop stop-color="#5677FF" offset="0%"></stop>
            <stop stop-color="#BCD4FF" offset="100%"></stop>
        </linearGradient>
        <linearGradient x1="0.0010500193%" y1="50.0005932%" x2="99.9977334%" y2="50.0005932%" id="linearGradient-18">
            <stop stop-color="#5677FF" offset="0%"></stop>
            <stop stop-color="#BCD4FF" offset="100%"></stop>
        </linearGradient>
        <linearGradient x1="-0.000586775492%" y1="49.9994736%" x2="99.9966542%" y2="49.9994736%" id="linearGradient-19">
            <stop stop-color="#5677FF" offset="0%"></stop>
            <stop stop-color="#BCD4FF" offset="100%"></stop>
        </linearGradient>
        <linearGradient x1="-0.00224520185%" y1="49.9994695%" x2="100.000511%" y2="49.9994695%" id="linearGradient-20">
            <stop stop-color="#5677FF" offset="0%"></stop>
            <stop stop-color="#BCD4FF" offset="100%"></stop>
        </linearGradient>
        <polygon id="path-21" points="0 97.3711864 45.1862069 123.791737 90.3692759 97.3722458 45.183069 70.9516949"></polygon>
        <path d="M43.486,0.403634013 L13.505,17.5274113 L0,17.5373043 L0.003,25.79993 L0.011,25.79993 C0.022,26.0571477 0.177,26.3005153 0.499,26.4855142 L43.695,51.156654 C44.433,51.5780954 45.725,51.5246732 46.577,51.0389274 L89.357,26.6032408 C89.802,26.3499802 90.035,26.0304367 90.057,25.7197968 L90.057,17.4759678 L76.483,17.4848714 L46.369,0.284918127 C46.034,0.0939834099 45.586,0 45.117,0 C44.551,0 43.953,0.136523269 43.486,0.403634013" id="path-22"></path>
        <polygon id="path-24" points="33.4712644 21.2450212 33.4712644 71.1602754 0.884478161 50.760911 0.884478161 0.846716102"></polygon>
        <polygon id="path-26" points="33.4712644 21.2450212 33.4712644 71.1602754 0.884478161 50.760911 0.884478161 0.846716102"></polygon>
        <path d="M43.486,0.403634013 L13.505,17.5274113 L0,17.5373043 L0.003,25.79993 L0.011,25.79993 C0.022,26.0571477 0.177,26.3005153 0.499,26.4855142 L43.695,51.156654 C44.433,51.5780954 45.725,51.5246732 46.577,51.0389274 L89.357,26.6032408 C89.802,26.3499802 90.035,26.0304367 90.057,25.7197968 L90.057,17.4759678 L76.483,17.4848714 L46.369,0.284918127 C46.034,0.0939834099 45.586,0 45.117,0 C44.551,0 43.953,0.136523269 43.486,0.403634013" id="path-28"></path>
        <path d="M43.486,0.405891346 L13.505,17.6254338 L0,17.6353821 L0.003,25.9442167 L0.011,25.9442167 C0.022,26.202873 0.177,26.4476016 0.499,26.6336351 L43.695,51.4427488 C44.433,51.8665471 45.725,51.8128262 46.577,51.3243638 L89.357,26.7520201 C89.802,26.4973431 90.035,26.1760125 90.057,25.8636353 L90.057,17.5737025 L76.483,17.582656 L46.369,0.286511538 C46.034,0.0945090144 45.586,0 45.117,0 C44.551,0 43.953,0.137286779 43.486,0.405891346" id="path-30"></path>
        <path d="M43.486,0.403710896 L13.505,17.5307499 L0,17.5406447 L0.003,25.8048442 L0.011,25.8048442 C0.022,26.062111 0.177,26.3055249 0.499,26.4905591 L43.695,51.1663981 C44.433,51.5879198 45.725,51.5344874 46.577,51.0486491 L89.357,26.6083081 C89.802,26.3549993 90.035,26.0353948 90.057,25.7246958 L90.057,17.4792965 L76.483,17.4882019 L46.369,0.284972397 C46.034,0.0940013115 45.586,0 45.117,0 C44.551,0 43.953,0.136549274 43.486,0.403710896" id="path-32"></path>
        <path d="M43.486,0.404059825 L13.505,17.5459018 L0,17.5558052 L0.003,25.8271475 L0.011,25.8271475 C0.022,26.0846366 0.177,26.3282609 0.499,26.513455 L43.695,51.2106214 C44.433,51.6325074 45.725,51.5790289 46.577,51.0927707 L89.357,26.6313058 C89.802,26.377778 90.035,26.0578973 90.057,25.7469297 L90.057,17.4944039 L76.483,17.503317 L46.369,0.2852187 C46.034,0.0940825573 45.586,0 45.117,0 C44.551,0 43.953,0.136667294 43.486,0.404059825" id="path-34"></path>
        <path d="M24.4352651,124.142602 L45.3535117,111.897765 L66.2737184,124.142602 L64.7172321,125.053572 L66.2736791,124.142522 L66.2744632,148.631005 L45.3566087,160.87465 L45.3558247,136.386565 L64.7172321,125.053572 L45.3538344,136.386455 L45.3532372,160.87465 L24.4353828,148.631005 L24.4353828,124.142671 Z" id="path-36"></path>
        <filter x="-71.7%" y="-61.3%" width="243.4%" height="222.5%" filterUnits="objectBoundingBox" id="filter-37">
            <feOffset dx="0" dy="0" in="SourceAlpha" result="shadowOffsetOuter1"></feOffset>
            <feGaussianBlur stdDeviation="10" in="shadowOffsetOuter1" result="shadowBlurOuter1"></feGaussianBlur>
            <feColorMatrix values="0 0 0 0 1   0 0 0 0 0.952288541   0 0 0 0 0.728574811  0 0 0 0.5 0" type="matrix" in="shadowBlurOuter1"></feColorMatrix>
        </filter>
        <linearGradient x1="135.725117%" y1="131.428652%" x2="2.60901252%" y2="4.98361108%" id="linearGradient-38">
            <stop stop-color="#170D5B" offset="0%"></stop>
            <stop stop-color="#42E8DF" offset="100%"></stop>
        </linearGradient>
        <linearGradient x1="50.0001038%" y1="77.6633682%" x2="50.0001038%" y2="2.12041996%" id="linearGradient-39">
            <stop stop-color="#BFD6FF" offset="0%"></stop>
            <stop stop-color="#E8FFFF" offset="100%"></stop>
        </linearGradient>
        <linearGradient x1="99.9999987%" y1="49.9992124%" x2="0.000414215993%" y2="49.9992124%" id="linearGradient-40">
            <stop stop-color="#D0FFFC" offset="0%"></stop>
            <stop stop-color="#D0D3FF" offset="100%"></stop>
        </linearGradient>
        <path d="M43.486,0.404059825 L13.505,17.5459018 L0,17.5558052 L0.003,25.8271475 L0.011,25.8271475 C0.022,26.0846366 0.177,26.3282609 0.499,26.513455 L43.695,51.2106214 C44.433,51.6325074 45.725,51.5790289 46.577,51.0927707 L89.357,26.6313058 C89.802,26.377778 90.035,26.0578973 90.057,25.7469297 L90.057,17.4944039 L76.483,17.503317 L46.369,0.2852187 C46.034,0.0940825573 45.586,0 45.117,0 C44.551,0 43.953,0.136667294 43.486,0.404059825" id="path-41"></path>
        <linearGradient x1="0%" y1="0%" x2="101.999998%" y2="100.999999%" id="linearGradient-43">
            <stop stop-color="#273877" offset="0%"></stop>
            <stop stop-color="#1F327F" offset="100%"></stop>
        </linearGradient>
        <linearGradient x1="0%" y1="39.1643551%" x2="100%" y2="39.1643551%" id="linearGradient-44">
            <stop stop-color="#233564" offset="0%"></stop>
            <stop stop-color="#0F172E" offset="100%"></stop>
        </linearGradient>
        <linearGradient x1="49.999818%" y1="104.472886%" x2="49.999818%" y2="13.9158145%" id="linearGradient-45">
            <stop stop-color="#235CA0" offset="0%"></stop>
            <stop stop-color="#4DE2FF" offset="36.5381142%"></stop>
            <stop stop-color="#73DCFF" stop-opacity="0" offset="100%"></stop>
        </linearGradient>
        <linearGradient x1="49.999818%" y1="104.472886%" x2="49.999818%" y2="13.9158145%" id="linearGradient-46">
            <stop stop-color="#2A5CFF" offset="0%"></stop>
            <stop stop-color="#C9C1FF" offset="46.2969653%"></stop>
            <stop stop-color="#C1B8FF" stop-opacity="0" offset="100%"></stop>
        </linearGradient>
    </defs>
    <g id="Symbols" stroke="none" stroke-width="1" fill="none" fill-rule="evenodd">
        <g id="img/project02s">
            <g id="img/stark" transform="translate(28.000000, 32.000000)">
                <g transform="translate(0.000000, 25.838926)">
                    <path d="M127.468289,73.3578708 L124.338939,71.5184564 L26.9714286,128.022828 L30.098544,129.862243 L127.468289,73.3578708 Z M138.794304,80.1415591 L135.664953,78.3021446 L38.2952074,134.806517 L41.4245581,136.645931 L138.794304,80.1415591 Z M150.118082,86.9275071 L146.990967,85.0880926 L49.6212215,141.592465 L52.7505722,143.431879 L150.118082,86.9275071 Z M64.0765863,150.217827 L60.9472356,148.378413 L158.314746,91.8740406 L161.444096,93.7134551 L64.0765863,150.217827 Z" id="Fill-10" fill="url(#linearGradient-1)"></path>
                    <path d="M259.125432,73.3578708 L255.996082,71.5184564 L158.628571,128.022828 L161.755687,129.862243 L259.125432,73.3578708 Z M270.451446,80.1415591 L267.322096,78.3021446 L169.95235,134.806517 L173.081701,136.645931 L270.451446,80.1415591 Z M281.775225,86.9275071 L278.64811,85.0880926 L181.278364,141.592465 L184.407715,143.431879 L281.775225,86.9275071 Z M195.733729,150.217827 L192.604378,148.378413 L289.971889,91.8740406 L293.101239,93.7134551 L195.733729,150.217827 Z" id="Fill-10" fill="url(#linearGradient-2)" transform="translate(225.864905, 110.868142) scale(-1, 1) translate(-225.864905, -110.868142) "></path>
                    <g id="Group-18" transform="translate(160.228571, 174.182047) scale(-1, -1) translate(-160.228571, -174.182047) translate(26.971429, 134.731544)">
                        <path d="M100.496861,1.83941447 L97.3675102,0 L0,56.5043721 L3.1271154,58.3437866 L100.496861,1.83941447 Z M111.822875,8.62310274 L108.693524,6.78368826 L11.3237788,63.2880604 L14.4531295,65.1274748 L111.822875,8.62310274 Z M123.146654,15.4090507 L120.019538,13.5696363 L22.6497929,70.0740083 L25.7791436,71.9134228 L123.146654,15.4090507 Z M37.1051577,78.6993708 L33.9758071,76.8599563 L131.343317,20.3555842 L134.472668,22.1949987 L37.1051577,78.6993708 Z" id="Fill-10" fill="url(#linearGradient-1)"></path>
                        <path d="M232.154004,1.83941447 L229.024653,0 L131.657143,56.5043721 L134.784258,58.3437866 L232.154004,1.83941447 Z M243.480018,8.62310274 L240.350667,6.78368826 L142.980922,63.2880604 L146.110272,65.1274748 L243.480018,8.62310274 Z M254.803797,15.4090507 L251.676681,13.5696363 L154.306936,70.0740083 L157.436286,71.9134228 L254.803797,15.4090507 Z M168.762301,78.6993708 L165.63295,76.8599563 L263.00046,20.3555842 L266.129811,22.1949987 L168.762301,78.6993708 Z" id="Fill-10" fill="url(#linearGradient-2)" transform="translate(198.893477, 39.349685) scale(-1, 1) translate(-198.893477, -39.349685) "></path>
                    </g>
                    <g id="sever04">
                        <g id="Group-10">
                            <g id="Group-7" transform="translate(0.000000, 112.463415)">
                                <g id="Fill-39" transform="translate(0.000000, 7.926747)">
                                    <mask id="mask-5" fill="white">
                                        <use xlink:href="#path-4"></use>
                                    </mask>
                                    <use id="Mask" fill="url(#linearGradient-3)" xlink:href="#path-4"></use>
                                    <polygon fill="url(#linearGradient-6)" mask="url(#mask-5)" points="0 15.7799535 0 27.1146351 45.0300635 53.1858055 45.0300635 41.8511238"></polygon>
                                    <polygon id="Fill-35" fill="#21186C" mask="url(#mask-5)" points="45.0300635 39.9408862 45.0300635 53.0649709 90.057 26.9948459 90.057 13.8718065"></polygon>
                                </g>
                                <path d="M45.0567228,0 C44.5077228,0.00990843324 43.9357228,0.145653969 43.4857228,0.403273233 L0.705722763,24.8771033 C-0.148277237,25.3655891 -0.239277237,26.1027765 0.498722763,26.5268575 L43.6947228,51.2365083 C44.4327228,51.6586075 45.7247228,51.6060928 46.5767228,51.1185979 L89.3567228,26.6447678 C89.8157228,26.3821943 90.0547228,26.0472893 90.0627228,25.7282377 L90.0627228,25.6955399 C90.0567228,25.4329664 89.8917228,25.1832739 89.5637228,24.9960045 L46.3687228,0.285362877 C46.0477228,0.102056862 45.6227228,0.00792674659 45.1747228,0 L45.0567228,0 Z" id="Fill-6" fill="url(#linearGradient-7)"></path>
                            </g>
                            <g id="Group" transform="translate(9.413793, 0.000000)">
                                <polygon id="Fill-44" fill="#FFFFFF" points="0.885001149 46.4695646 0.885001149 139.395787 35.7714724 159.825934 70.6568977 139.395787 70.6568977 46.4695646 35.7714724 66.899711"></polygon>
                                <polygon id="Mask" fill="#A0A0A0" opacity="0.334988839" points="35.7709494 66.9001354 35.7709494 159.826358 0.884478161 139.395151 0.884478161 46.469989"></polygon>
                                <g id="Combined-Shape" transform="translate(1.045977, 45.621951)">
                                    <mask id="mask-9" fill="white">
                                        <use xlink:href="#path-8"></use>
                                    </mask>
                                    <g id="Mask"></g>
                                    <path d="M0.628866347,1.05079066 L0.628866347,-2.46740447 L36.4089473,18.8066423 L36.4089473,22.3227155 L0.628866347,1.05079066 Z M0.628866347,9.30433212 L0.628866347,5.78825895 L36.4089473,27.0601837 L36.4089473,30.5762569 L0.628866347,9.30433212 Z M0.628866347,17.5591468 L0.628866347,14.0430736 L36.4089473,35.3149984 L36.4089473,38.8310716 L0.628866347,17.5591468 Z M0.628866347,25.8137492 L0.628866347,22.297676 L36.4089473,43.5696008 L36.4089473,47.085674 L0.628866347,25.8137492 Z M0.628866347,34.0685638 L0.628866347,30.5524907 L36.4089473,51.8244155 L36.4089473,55.3404886 L0.628866347,34.0685638 Z M0.628866347,42.3231663 L0.628866347,38.8049711 L36.4089473,60.0768959 L36.4089473,63.5929691 L0.628866347,42.3231663 Z M0.628866347,50.5777687 L0.628866347,47.0595736 L36.4089473,68.3336203 L36.4089473,71.8496935 L0.628866347,50.5777687 Z M0.628866347,58.8315224 L0.628866347,55.3154492 L36.4089473,76.587374 L36.4089473,80.1034472 L0.628866347,58.8315224 Z M0.628866347,67.0861248 L0.628866347,63.5700516 L36.4089473,84.8419764 L36.4089473,88.3580496 L0.628866347,67.0861248 Z M0.628866347,75.3407272 L0.628866347,71.8246541 L36.4089473,93.0965789 L36.4089473,96.612652 L0.628866347,75.3407272 Z M0.628866347,83.5955419 L0.628866347,80.0794687 L36.4089473,101.351394 L36.4089473,104.867467 L0.628866347,83.5955419 Z M0.628866347,91.8490833 L0.628866347,88.3330102 L36.4089473,109.604935 L36.4089473,113.121008 L0.628866347,91.8490833 Z" fill="#0B0244" mask="url(#mask-9)"></path>
                                </g>
                                <g id="Combined-Shape" transform="translate(54.390805, 102.384146) scale(-1, 1) translate(-54.390805, -102.384146) translate(37.655172, 45.621951)">
                                    <mask id="mask-11" fill="white">
                                        <use xlink:href="#path-10"></use>
                                    </mask>
                                    <g id="Mask"></g>
                                    <path d="M0.628866347,1.05079066 L0.628866347,-2.46740447 L36.4089473,18.8066423 L36.4089473,22.3227155 L0.628866347,1.05079066 Z M0.628866347,9.30433212 L0.628866347,5.78825895 L36.4089473,27.0601837 L36.4089473,30.5762569 L0.628866347,9.30433212 Z M0.628866347,17.5591468 L0.628866347,14.0430736 L36.4089473,35.3149984 L36.4089473,38.8310716 L0.628866347,17.5591468 Z M0.628866347,25.8137492 L0.628866347,22.297676 L36.4089473,43.5696008 L36.4089473,47.085674 L0.628866347,25.8137492 Z M0.628866347,34.0685638 L0.628866347,30.5524907 L36.4089473,51.8244155 L36.4089473,55.3404886 L0.628866347,34.0685638 Z M0.628866347,42.3231663 L0.628866347,38.8049711 L36.4089473,60.0768959 L36.4089473,63.5929691 L0.628866347,42.3231663 Z M0.628866347,50.5777687 L0.628866347,47.0595736 L36.4089473,68.3336203 L36.4089473,71.8496935 L0.628866347,50.5777687 Z M0.628866347,58.8315224 L0.628866347,55.3154492 L36.4089473,76.587374 L36.4089473,80.1034472 L0.628866347,58.8315224 Z M0.628866347,67.0861248 L0.628866347,63.5700516 L36.4089473,84.8419764 L36.4089473,88.3580496 L0.628866347,67.0861248 Z M0.628866347,75.3407272 L0.628866347,71.8246541 L36.4089473,93.0965789 L36.4089473,96.612652 L0.628866347,75.3407272 Z M0.628866347,83.5955419 L0.628866347,80.0794687 L36.4089473,101.351394 L36.4089473,104.867467 L0.628866347,83.5955419 Z M0.628866347,91.8490833 L0.628866347,88.3330102 L36.4089473,109.604935 L36.4089473,113.121008 L0.628866347,91.8490833 Z" fill="#0B0244" mask="url(#mask-11)"></path>
                                </g>
                                <g id="Group-174"></g>
                            </g>
                            <g id="Group-2" transform="translate(0.000000, 40.317073)">
                                <polygon id="Fill-42" fill="#42E8E0" opacity="0.216071429" points="45.1857885 26.5830622 45.1857885 124.529395 0.000627586205 98.0676021 0.000627586207 0.121269512"></polygon>
                                <polygon id="Fill-48" fill="#5CFFF3" opacity="0.154575893" points="0.000418390805 0.121269512 0.000418390803 98.0676021 45.1855793 124.529395 90.3686483 98.0686631 90.3686483 0.122330488 45.1855793 26.5830622"></polygon>
                            </g>
                            <g id="Group-60" transform="translate(0.000000, 40.317073)" fill="#42E8E0">
                                <polygon id="Fill-53" points="0.000418390805 0.0851963415 0.000418390805 97.8119229 0.621728736 98.4467283 0.621728736 0.720001796"></polygon>
                                <polygon id="Fill-55" points="90.3691713 0.0851963415 90.3691713 97.8119229 89.7478609 98.4467283 89.7478609 0.720001796"></polygon>
                                <polygon id="Fill-58" points="45.1387652 27.6536635 44.7724938 26.7072268 44.9770115 123.27628 45.3429241 124.21145 45.7091954 123.27628 45.5046778 26.7072268"></polygon>
                            </g>
                            <polygon id="Fill-20" fill="url(#linearGradient-6)" points="0 146.600305 45.1862069 173.062098 45.1862069 165.449598 0 138.987805"></polygon>
                            <polygon id="Fill-17" fill="#21186C" points="44.9770115 165.448537 44.9770115 173.061037 90.1600805 146.600305 90.1600805 138.987805"></polygon>
                            <polygon id="Fill-20" fill="url(#linearGradient-6)" points="0 41.5637195 45.1862069 68.0255122 45.1862069 60.4130122 0 33.9512195"></polygon>
                            <polygon id="Fill-17" fill="#21186C" points="44.9770115 60.4119512 44.9770115 68.0244512 91 41.5637195 91 33.9512195"></polygon>
                            <g id="Group-8" transform="translate(0.000000, 6.365854)">
                                <polygon id="Fill-1" fill="url(#linearGradient-12)" points="45.2679031 0.950835404 -0.000375257732 27.4613673 45.2697794 53.9728509 90.5380577 27.4613673"></polygon>
                                <g id="Group-27" transform="translate(0.000000, 5.384134)">
                                    <polygon id="Fill-16" fill="url(#linearGradient-13)" opacity="0.132142857" points="45.2701546 41.6218872 33.3735464 41.6218872 0 22.077043 36.3146289 0.810760372 45.2692165 0.810760372"></polygon>
                                    <polygon id="Fill-19" fill="#FFFFFF" points="45.2701546 39.2828626 12.4229072 20.0463357 45.2692165 0.810760372 78.1155258 20.0472873"></polygon>
                                    <polygon id="Fill-25" fill="url(#linearGradient-14)" points="12.4229072 20.0463357 12.4229072 22.3853603 45.2701546 41.6218872 45.2701546 39.2828626"></polygon>
                                    <polygon id="Fill-22" fill="url(#linearGradient-15)" points="78.1155258 20.0472873 78.1155258 22.3863119 45.2701546 41.6218872 45.2701546 39.2828626"></polygon>
                                </g>
                                <g id="Combined-Shape">
                                    <use fill="#3F38FC" xlink:href="#path-16"></use>
                                    <use fill="#0305A0" xlink:href="#path-16"></use>
                                </g>
                                <g id="Group-2" transform="translate(30.020619, 15.334926)">
                                    <polygon id="Fill-29" fill="url(#linearGradient-17)" points="14.7410619 1.53973812 16.1923711 2.39046555 17.1305155 1.84139427 14.7410619 0.441595549 0.120082474 9.00406248 1.05728866 9.55313377"></polygon>
                                    <polygon id="Fill-33" fill="url(#linearGradient-18)" points="19.1559691 4.11761353 20.6091546 4.96834096 21.5463608 4.41926968 19.1559691 3.01947096 4.53498969 11.5819379 5.47219588 12.1310092"></polygon>
                                    <polygon id="Fill-37" fill="url(#linearGradient-19)" points="23.5718144 6.69453734 25.025 7.54621637 25.9622062 6.99714508 23.5718144 5.59734637 8.95083505 14.1598133 9.88804124 14.7088846"></polygon>
                                    <polygon id="Fill-41" fill="url(#linearGradient-20)" points="27.9876598 9.27336434 29.4399072 10.1231402 30.3771134 9.57502049 27.9876598 8.17522178 13.3666804 16.7376887 14.3038866 17.28676"></polygon>
                                </g>
                            </g>
                        </g>
                    </g>
                    <g id="sever2" transform="translate(228.571429, 48.447987)">
                        <g id="Group-61" transform="translate(0.000000, -7.415254)">
                            <polygon id="Fill-1" fill="#312A91" points="0 104.97161 45.1862069 131.392161 90.3692759 104.972669 45.183069 78.5521186"></polygon>
                            <g id="Fill-2">
                                <use fill="#00C9F4" xlink:href="#path-21"></use>
                                <use fill="#2C56FF" xlink:href="#path-21"></use>
                            </g>
                            <g id="Group-7" transform="translate(0.000000, 70.974576)">
                                <g id="Fill-39" transform="translate(0.000000, 7.914392)">
                                    <mask id="mask-23" fill="white">
                                        <use xlink:href="#path-22"></use>
                                    </mask>
                                    <use id="Mask" fill="url(#linearGradient-3)" xlink:href="#path-22"></use>
                                    <polygon fill="url(#linearGradient-6)" mask="url(#mask-23)" points="0 15.7553597 0 27.0723758 45.0300635 53.1029131 45.0300635 41.785897"></polygon>
                                    <polygon id="Fill-35" fill="#21186C" mask="url(#mask-23)" points="45.0300635 39.8786366 45.0300635 52.9822669 90.057 26.9527733 90.057 13.8501867"></polygon>
                                </g>
                                <path d="M45.0567228,0 C44.5077228,0.00989299052 43.9357228,0.145426961 43.4857228,0.402644714 L0.705722763,24.8383313 C-0.148277237,25.3260557 -0.239277237,26.0620942 0.498722763,26.4855142 L43.6947228,51.156654 C44.4327228,51.5780954 45.7247228,51.5256625 46.5767228,51.0389274 L89.3567228,26.6032408 C89.8157228,26.3410766 90.0547228,26.0066935 90.0627228,25.6881392 L90.0627228,25.6554923 C90.0567228,25.3933281 89.8917228,25.1440247 89.5637228,24.9570472 L46.3687228,0.284918127 C46.0477228,0.101897802 45.6227228,0.00791439242 45.1747228,0 L45.0567228,0 Z" id="Fill-6" fill="url(#linearGradient-7)"></path>
                                <g id="Group-21" transform="translate(3.877432, 1.908575)">
                                    <path d="M39.7917009,45.8845205 L1.3876569,23.9503585 C0.731691872,23.5742876 0.813938251,22.9183961 1.57220975,22.4857657 L39.606145,0.76097303 C40.3644165,0.328342647 41.5128568,0.280713614 42.1698248,0.656784521 L80.5728658,22.5909465 C81.2298339,22.9660252 81.1475875,23.6219166 80.390319,24.0555393 L42.3553807,45.780332 C41.5961062,46.2129624 40.4486689,46.2605914 39.7917009,45.8845205" id="Fill-9" fill="#FFFFFF"></path>
                                    <path d="M39.8886914,44.0472306 L4.60499482,23.8941959 C4.00218904,23.5498777 4.07741439,22.9475689 4.7745026,22.549668 L39.7181806,2.59111863 C40.4152689,2.19222547 41.4694267,2.14856553 42.0732355,2.49387602 L77.3549261,22.6469106 C77.9597379,22.9912289 77.8835095,23.5935377 77.1874243,23.9914385 L42.2437463,43.9499879 C41.5456551,44.3488811 40.4925002,44.392541 39.8886914,44.0472306" id="Fill-11" fill="#00D7FD"></path>
                                </g>
                            </g>
                            <g id="Group" transform="translate(9.413793, 0.000000)">
                                <polygon id="Fill-44" fill="#FFFFFF" points="0.885001149 46.3971398 0.885001149 96.3123941 35.7714724 116.710699 70.6568977 96.3123941 70.6568977 46.3971398 35.7714724 66.7954449"></polygon>
                                <polygon id="Mask" fill="#A0A0A0" opacity="0.334988839" points="35.7709494 66.7958686 35.7709494 116.711123 0.884478161 96.3117585 0.884478161 46.3975636"></polygon>
                                <g id="Combined-Shape" transform="translate(1.045977, 45.550847)">
                                    <mask id="mask-25" fill="white">
                                        <use xlink:href="#path-24"></use>
                                    </mask>
                                    <g id="Mask"></g>
                                    <path d="M0.628866347,-41.3237284 L0.628866347,-44.8364403 L36.4089473,-23.59555 L36.4089473,-20.0849568 L0.628866347,-41.3237284 Z M0.628866347,-33.0830504 L0.628866347,-36.5936437 L36.4089473,-15.3548721 L36.4089473,-11.8442788 L0.628866347,-33.0830504 Z M0.628866347,-24.8411013 L0.628866347,-28.3516945 L36.4089473,-7.11292291 L36.4089473,-3.60232969 L0.628866347,-24.8411013 Z M0.628866347,-16.599364 L0.628866347,-20.1099572 L36.4089473,1.12881438 L36.4089473,4.6394076 L0.628866347,-16.599364 Z M0.628866347,-8.35741484 L0.628866347,-11.8680081 L36.4089473,9.37076353 L36.4089473,12.8813568 L0.628866347,-8.35741484 Z M0.628866347,-0.115677555 L0.628866347,-3.62838942 L36.4089473,17.6103822 L36.4089473,21.1209754 L0.628866347,-0.115677555 Z M0.628866347,8.12605973 L0.628866347,4.61334787 L36.4089473,25.8542381 L36.4089473,29.3648313 L0.628866347,8.12605973 Z M0.628866347,16.3669496 L0.628866347,12.8563563 L36.4089473,34.0951279 L36.4089473,37.6057212 L0.628866347,16.3669496 Z M0.628866347,24.6086869 L0.628866347,21.0980936 L36.4089473,42.3368652 L36.4089473,45.8474584 L0.628866347,24.6086869 Z M0.628866347,32.8504241 L0.628866347,29.3398309 L36.4089473,50.5786025 L36.4089473,54.0891957 L0.628866347,32.8504241 Z M0.628866347,41.0923733 L0.628866347,37.5817801 L36.4089473,58.8205517 L36.4089473,62.3311449 L0.628866347,41.0923733 Z M0.628866347,49.3330513 L0.628866347,45.822458 L36.4089473,67.0612296 L36.4089473,70.5718229 L0.628866347,49.3330513 Z" fill="#0B0244" mask="url(#mask-25)"></path>
                                </g>
                                <g id="Combined-Shape" transform="translate(54.390805, 81.567797) scale(-1, 1) translate(-54.390805, -81.567797) translate(37.655172, 45.550847)">
                                    <mask id="mask-27" fill="white">
                                        <use xlink:href="#path-26"></use>
                                    </mask>
                                    <g id="Mask"></g>
                                    <path d="M0.628866347,-41.3237284 L0.628866347,-44.8364403 L36.4089473,-23.59555 L36.4089473,-20.0849568 L0.628866347,-41.3237284 Z M0.628866347,-33.0830504 L0.628866347,-36.5936437 L36.4089473,-15.3548721 L36.4089473,-11.8442788 L0.628866347,-33.0830504 Z M0.628866347,-24.8411013 L0.628866347,-28.3516945 L36.4089473,-7.11292291 L36.4089473,-3.60232969 L0.628866347,-24.8411013 Z M0.628866347,-16.599364 L0.628866347,-20.1099572 L36.4089473,1.12881438 L36.4089473,4.6394076 L0.628866347,-16.599364 Z M0.628866347,-8.35741484 L0.628866347,-11.8680081 L36.4089473,9.37076353 L36.4089473,12.8813568 L0.628866347,-8.35741484 Z M0.628866347,-0.115677555 L0.628866347,-3.62838942 L36.4089473,17.6103822 L36.4089473,21.1209754 L0.628866347,-0.115677555 Z M0.628866347,8.12605973 L0.628866347,4.61334787 L36.4089473,25.8542381 L36.4089473,29.3648313 L0.628866347,8.12605973 Z M0.628866347,16.3669496 L0.628866347,12.8563563 L36.4089473,34.0951279 L36.4089473,37.6057212 L0.628866347,16.3669496 Z M0.628866347,24.6086869 L0.628866347,21.0980936 L36.4089473,42.3368652 L36.4089473,45.8474584 L0.628866347,24.6086869 Z M0.628866347,32.8504241 L0.628866347,29.3398309 L36.4089473,50.5786025 L36.4089473,54.0891957 L0.628866347,32.8504241 Z M0.628866347,41.0923733 L0.628866347,37.5817801 L36.4089473,58.8205517 L36.4089473,62.3311449 L0.628866347,41.0923733 Z M0.628866347,49.3330513 L0.628866347,45.822458 L36.4089473,67.0612296 L36.4089473,70.5718229 L0.628866347,49.3330513 Z" fill="#0B0244" mask="url(#mask-27)"></path>
                                </g>
                                <g id="Group-174"></g>
                            </g>
                            <g id="Group-60" transform="translate(0.000000, 41.349576)" fill="#42E8E0">
                                <polygon id="Fill-53" points="0.000418390805 0.0850635593 0.000418390805 56.0215042 0.621728736 56.3848517 0.621728736 0.448411017"></polygon>
                                <polygon id="Fill-55" points="90.3691713 0.0850635593 90.3691713 56.0215042 89.7478609 56.3848517 89.7478609 0.448411017"></polygon>
                                <polygon id="Fill-58" points="45.3432828 26.0176863 45.3429241 26.0176863 44.9770115 25.3877119 44.9770115 81.968627 45.3429241 82.5911017 45.3432828 82.5911017 45.7091954 81.968627 45.7091954 25.3877119"></polygon>
                            </g>
                            <polygon id="Fill-20" fill="url(#linearGradient-6)" points="0 104.97161 45.1862069 131.392161 45.1862069 123.791525 0 97.3709746"></polygon>
                            <polygon id="Fill-17" fill="#21186C" points="45.1862069 123.791314 45.1862069 131.391949 90.3692759 104.972458 90.3692759 97.371822"></polygon>
                            <g id="Group-2" transform="translate(0.000000, 41.313559)" fill="#5CFFF3" opacity="0.2">
                                <polygon id="Fill-42" points="45.1857885 26.5416314 45.1857885 82.478072 0.000627586207 56.0575212 0.000627586207 0.121080508"></polygon>
                                <polygon id="Fill-48" points="0.000418390805 0.121080508 0.000418390805 56.0575212 45.1855793 82.478072 90.3686483 56.0585805 90.3686483 0.122139831 45.1855793 26.5416314"></polygon>
                            </g>
                            <g id="Group-7" transform="translate(0.000000, 7.415254)">
                                <g id="Fill-39" transform="translate(0.000000, 7.914392)">
                                    <mask id="mask-29" fill="white">
                                        <use xlink:href="#path-28"></use>
                                    </mask>
                                    <use id="Mask" fill="url(#linearGradient-3)" xlink:href="#path-28"></use>
                                    <polygon fill="url(#linearGradient-6)" mask="url(#mask-29)" points="0 15.7553597 0 27.0723758 45.0300635 53.1029131 45.0300635 41.785897"></polygon>
                                    <polygon id="Fill-35" fill="#21186C" mask="url(#mask-29)" points="45.0300635 39.8786366 45.0300635 52.9822669 90.057 26.9527733 90.057 13.8501867"></polygon>
                                </g>
                                <path d="M45.0567228,0 C44.5077228,0.00989299052 43.9357228,0.145426961 43.4857228,0.402644714 L0.705722763,24.8383313 C-0.148277237,25.3260557 -0.239277237,26.0620942 0.498722763,26.4855142 L43.6947228,51.156654 C44.4327228,51.5780954 45.7247228,51.5256625 46.5767228,51.0389274 L89.3567228,26.6032408 C89.8157228,26.3410766 90.0547228,26.0066935 90.0627228,25.6881392 L90.0627228,25.6554923 C90.0567228,25.3933281 89.8917228,25.1440247 89.5637228,24.9570472 L46.3687228,0.284918127 C46.0477228,0.101897802 45.6227228,0.00791439242 45.1747228,0 L45.0567228,0 Z" id="Fill-6" fill="url(#linearGradient-7)"></path>
                                <g id="Group-21" transform="translate(4.000000, 1.978598)">
                                    <path d="M39.6725,45.7470678 L1.3835,23.8786123 C0.7295,23.5036679 0.8115,22.8497413 1.5675,22.4184069 L39.4875,0.758693443 C40.2435,0.327359056 41.3885,0.279872702 42.0435,0.654817043 L80.3315,22.5232726 C80.9865,22.8972276 80.9045,23.5511543 80.1495,23.983478 L42.2285,45.6431914 C41.4715,46.0745258 40.3275,46.1220122 39.6725,45.7470678" id="Fill-9" fill="#FFFFFF"></path>
                                    <path d="M39.7692,43.9152817 L4.5912,23.822618 C3.9902,23.4793312 4.0652,22.8788267 4.7602,22.4821177 L39.5992,2.58335661 C40.2942,2.1856584 41.3452,2.14212924 41.9472,2.48640531 L77.1232,22.5790691 C77.7262,22.9223558 77.6502,23.5228603 76.9562,23.9195693 L42.1172,43.8183304 C41.4212,44.2160286 40.3712,44.2595578 39.7692,43.9152817" id="Fill-11" fill="#00D7FD"></path>
                                </g>
                            </g>
                        </g>
                    </g>
                    <g id="sever2-copy" transform="translate(114.285714, 13.380872)">
                        <g id="Group-8" transform="translate(0.000000, 8.476190)">
                            <g id="Group" transform="translate(0.000000, 11.654762)">
                                <g id="Fill-39" transform="translate(0.000000, 16.111384)">
                                    <mask id="mask-31" fill="white">
                                        <use xlink:href="#path-30"></use>
                                    </mask>
                                    <use id="Mask" fill="url(#linearGradient-3)" xlink:href="#path-30"></use>
                                    <polygon fill="url(#linearGradient-6)" mask="url(#mask-31)" points="0 15.843472 0 27.2237787 45.0300635 53.3998924 45.0300635 42.0195856"></polygon>
                                    <polygon id="Fill-35" fill="#21186C" mask="url(#mask-31)" points="45.0300635 40.1016589 45.0300635 53.2785715 90.057 27.1035073 90.057 13.9276442"></polygon>
                                </g>
                                <path d="M90.062,15.5318695 L71.686,15.6403061 L46.368,1.0978559 C45.628,0.673062751 44.338,0.726783664 43.485,1.21723571 L17.819,15.9596471 L1.9026211e-12,16.0641045 L0,34.174624 C0.052,34.4084095 0.21,34.6213035 0.498,34.7864455 L43.693,59.5955592 C44.432,60.0203524 45.722,59.9666315 46.576,59.4771743 L89.356,34.9058253 C89.746,34.6819882 89.968,34.4064198 90.034,34.1308514 L90.062,15.5318695 Z" id="Fill-25" fill="#00FBFF" opacity="0.2"></path>
                                <path d="M45.0567228,8.15273008 C44.5077228,8.1626784 43.9357228,8.29897035 43.4857228,8.5576266 L0.705722763,33.1299703 C-0.148277237,33.6204224 -0.239277237,34.3605772 0.498722763,34.7863652 L43.6947228,59.5954789 C44.4327228,60.0192772 45.7247228,59.9665511 46.5767228,59.4770939 L89.3567228,34.9047502 C89.8157228,34.6411197 90.0547228,34.3048666 90.0627228,33.9845308 L90.0627228,33.9517014 C90.0567228,33.6880709 89.8917228,33.4373734 89.5637228,33.2493502 L46.3687228,8.43924162 C46.0477228,8.25519775 45.6227228,8.16068874 45.1747228,8.15273008 L45.0567228,8.15273008 Z" id="Fill-6" fill="url(#linearGradient-7)"></path>
                                <g id="Group-21" transform="translate(4.000000, 10.142394)">
                                    <path d="M39.6725,46.0029094 L1.3835,24.012154 C0.7295,23.6351128 0.8115,22.977529 1.5675,22.5437824 L39.4875,0.762936454 C40.2435,0.32918982 41.3885,0.281437897 42.0435,0.658479123 L80.3315,22.6492345 C80.9865,23.0252809 80.9045,23.6828647 80.1495,24.1176062 L42.2285,45.8984521 C41.4715,46.3321987 40.3275,46.3799506 39.6725,46.0029094" id="Fill-9" fill="#FFFFFF"></path>
                                    <path d="M39.7692,44.160879 L4.5912,23.9558465 C3.9902,23.6106399 4.0652,23.0067771 4.7602,22.6078495 L39.5992,2.5978041 C40.2942,2.19788174 41.3452,2.15410915 41.9472,2.50031059 L77.1232,22.705343 C77.7262,23.0505497 77.6502,23.6544125 76.9562,24.05334 L42.1172,44.0633855 C41.4212,44.4633078 40.3712,44.5070804 39.7692,44.160879" id="Fill-11" fill="#00D7FD"></path>
                                </g>
                            </g>
                            <g id="Group-7">
                                <g id="Fill-39" transform="translate(0.000000, 7.915900)">
                                    <mask id="mask-33" fill="white">
                                        <use xlink:href="#path-32"></use>
                                    </mask>
                                    <use id="Mask" fill="url(#linearGradient-3)" xlink:href="#path-32"></use>
                                    <polygon fill="url(#linearGradient-6)" mask="url(#mask-33)" points="0 15.7583608 0 27.0775325 45.0300635 53.1130279 45.0300635 41.7938562"></polygon>
                                    <polygon id="Fill-35" fill="#21186C" mask="url(#mask-33)" points="45.0300635 39.8862326 45.0300635 52.9923587 90.057 26.9579071 90.057 13.8528249"></polygon>
                                </g>
                                <path d="M45.0567228,0 C44.5077228,0.0098948749 43.9357228,0.145454661 43.4857228,0.402721408 L0.705722763,24.8430624 C-0.148277237,25.3308797 -0.239277237,26.0670584 0.498722763,26.4905591 L43.6947228,51.1663981 C44.4327228,51.5879198 45.7247228,51.5354769 46.5767228,51.0486491 L89.3567228,26.6083081 C89.8157228,26.3460939 90.0547228,26.0116471 90.0627228,25.6930322 L90.0627228,25.6603791 C90.0567228,25.3981649 89.8917228,25.148814 89.5637228,24.9618009 L46.3687228,0.284972397 C46.0477228,0.101917211 45.6227228,0.00791589992 45.1747228,0 L45.0567228,0 Z" id="Fill-6" fill="url(#linearGradient-7)"></path>
                                <g id="Group-21" transform="translate(4.000000, 1.978975)">
                                    <path d="M39.6725,45.7557816 L1.3835,23.8831606 C0.7295,23.5081448 0.8115,22.8540936 1.5675,22.4226771 L39.4875,0.758837956 C40.2435,0.32742141 41.3885,0.279926011 42.0435,0.65494177 L80.3315,22.5275627 C80.9865,22.901589 80.9045,23.5556402 80.1495,23.9880463 L42.2285,45.6518854 C41.4715,46.0833019 40.3275,46.1307973 39.6725,45.7557816" id="Fill-9" fill="#FFFFFF"></path>
                                    <path d="M39.7692,43.9236465 L4.5912,23.8271556 C3.9902,23.4838034 4.0652,22.8831845 4.7602,22.4864001 L39.5992,2.58384868 C40.2942,2.18607471 41.3452,2.14253726 41.9472,2.48687891 L77.1232,22.5833698 C77.7262,22.926722 77.6502,23.5273409 76.9562,23.9241254 L42.1172,43.8266767 C41.4212,44.2244507 40.3712,44.2679882 39.7692,43.9236465" id="Fill-11" fill="#00D7FD"></path>
                                </g>
                            </g>
                        </g>
                    </g>
                    <g id="sever-copy-4" transform="translate(114.285714, 49.370805)">
                        <g id="Group-61" stroke-width="1" transform="translate(0.000000, 9.543956)">
                            <g id="Group" transform="translate(0.000000, 121.950549)"></g>
                            <path d="M89.954023,112.293768 L71.6423455,112.402298 L46.4129675,97.8472791 C45.6755577,97.4221188 44.3900732,97.4758862 43.540059,97.9667621 L17.9638991,112.721915 L0.207271926,112.826463 L0,150.148888 C0.0518179816,150.382876 0.209264926,150.595954 0.496256823,150.761238 L43.540059,175.591795 C44.2764722,176.016955 45.5619568,175.963188 46.4129675,175.473308 L89.0432223,150.880721 C89.4318572,150.656691 89.6530801,150.380884 89.7188491,150.105078 L89.954023,112.293768 Z" id="Fill-25" fill="#5CFFF3" opacity="0.2"></path>
                            <g id="Group-7" transform="translate(0.000000, 124.071429)">
                                <g id="Fill-39" transform="translate(0.000000, 7.922742)">
                                    <mask id="mask-35" fill="white">
                                        <use xlink:href="#path-34"></use>
                                    </mask>
                                    <use id="Mask" fill="url(#linearGradient-3)" xlink:href="#path-34"></use>
                                    <polygon fill="url(#linearGradient-6)" mask="url(#mask-35)" points="0 15.7719808 0 27.1009357 45.0300635 53.1589338 45.0300635 41.8299788"></polygon>
                                    <polygon id="Fill-35" fill="#21186C" mask="url(#mask-35)" points="45.0300635 39.9207064 45.0300635 53.0381602 90.057 26.981207 90.057 13.8647979"></polygon>
                                </g>
                                <path d="M45.0567228,0 C44.5077228,0.00990342708 43.9357228,0.145580378 43.4857228,0.403069482 L0.705722763,24.8645344 C-0.148277237,25.3527733 -0.239277237,26.0895883 0.498722763,26.513455 L43.6947228,51.2106214 C44.4327228,51.6325074 45.7247228,51.5800193 46.5767228,51.0927707 L89.3567228,26.6313058 C89.8157228,26.3688649 90.0547228,26.0341291 90.0627228,25.7152388 L90.0627228,25.6825575 C90.0567228,25.4201166 89.8917228,25.1705503 89.5637228,24.9833755 L46.3687228,0.2852187 C46.0477228,0.102005299 45.6227228,0.00792274167 45.1747228,0 L45.0567228,0 Z" id="Fill-6" fill="url(#linearGradient-7)"></path>
                                <g id="Group-21" transform="translate(4.000000, 1.980685)">
                                    <path d="M39.6725,45.7953285 L1.3835,23.9038029 C0.7295,23.528463 0.8115,22.8738465 1.5675,22.4420571 L39.4875,0.759493823 C40.2435,0.327704402 41.3885,0.280167952 42.0435,0.655507839 L80.3315,22.5470334 C80.9865,22.9213829 80.9045,23.5759995 80.1495,24.0087792 L42.2285,45.6913425 C41.4715,46.1231319 40.3275,46.1706684 39.6725,45.7953285" id="Fill-9" fill="#FFFFFF"></path>
                                    <path d="M39.7692,43.9616099 L4.5912,23.8477495 C3.9902,23.5041006 4.0652,22.9029626 4.7602,22.5058351 L39.5992,2.58608191 C40.2942,2.18796415 41.3452,2.14438907 41.9472,2.48902833 L77.1232,22.6028887 C77.7262,22.9465377 77.6502,23.5476757 76.9562,23.9448031 L42.1172,43.8645563 C41.4212,44.2626741 40.3712,44.3062492 39.7692,43.9616099" id="Fill-11" fill="#00D7FD"></path>
                                </g>
                            </g>
                            <g id="Combined-Shape" opacity="0.5">
                                <use fill="black" fill-opacity="1" filter="url(#filter-37)" xlink:href="#path-36"></use>
                                <use fill="#FFFFFF" fill-rule="evenodd" xlink:href="#path-36"></use>
                            </g>
                            <g id="Group-16" transform="translate(9.413793, 88.016484)">
                                <polygon id="Fill-13" fill="url(#linearGradient-38)" style="mix-blend-mode: soft-light;" points="35.7713678 81.8033681 0.884896552 61.383544 35.7703218 40.9637198 70.6567931 61.383544"></polygon>
                                <polygon id="Fill-6" fill="url(#linearGradient-39)" opacity="0.3" points="70.6567931 20.4283077 70.6567931 61.383544 35.7713678 81.8033681 35.7713678 40.8481319"></polygon>
                                <polygon id="Fill-9" fill="url(#linearGradient-7)" opacity="0.3" points="0.884896552 20.4283077 0.884896552 61.383544 35.7713678 81.8033681 35.7713678 40.8481319"></polygon>
                                <polygon id="Fill-3" fill="url(#linearGradient-40)" opacity="0.0856584821" points="35.7713678 40.8481319 0.884896552 20.4272473 35.7703218 0.00848351648 70.6567931 20.4283077"></polygon>
                            </g>
                            <g id="Group-7" transform="translate(0.000000, 82.714286)">
                                <g id="Fill-39" transform="translate(0.000000, 7.423077)">
                                    <mask id="mask-42" fill="white">
                                        <use xlink:href="#path-41"></use>
                                    </mask>
                                    <use id="Mask" fill="url(#linearGradient-3)" xlink:href="#path-41"></use>
                                    <polygon fill="url(#linearGradient-6)" mask="url(#mask-42)" points="0 15.7719808 0 27.1009357 45.0300635 53.1589338 45.0300635 41.8299788"></polygon>
                                    <polygon id="Fill-35" fill="#21186C" mask="url(#mask-42)" points="45.0300635 39.9207064 45.0300635 53.0381602 90.057 26.981207 90.057 13.8647979"></polygon>
                                </g>
                                <path d="M45.0023423,0 C44.4540049,0.00999303265 43.8826952,0.14689758 43.4332384,0.406716429 L0.704871002,25.0895071 C-0.148098276,25.5821636 -0.238988445,26.3256452 0.498120837,26.753347 L43.6419861,51.6739718 C44.3790954,52.099675 45.669536,52.0467119 46.5205077,51.5550547 L89.2488751,26.8722641 C89.7073211,26.6074487 89.9460326,26.2696842 89.954023,25.9479086 L89.954023,25.9149316 C89.9480302,25.6501162 89.7832294,25.3982918 89.4556252,25.2094235 L46.3127588,0.28779934 C45.9921462,0.102928236 45.5676591,0.00799442612 45.1201998,0 L45.0023423,0 Z" id="Fill-6" fill="url(#linearGradient-7)"></path>
                                <g id="Group-21" transform="translate(4.183908, 2.120879)">
                                    <path d="M39.6725,45.7953285 L1.3835,23.9038029 C0.7295,23.528463 0.8115,22.8738465 1.5675,22.4420571 L39.4875,0.759493823 C40.2435,0.327704402 41.3885,0.280167952 42.0435,0.655507839 L80.3315,22.5470334 C80.9865,22.9213829 80.9045,23.5759995 80.1495,24.0087792 L42.2285,45.6913425 C41.4715,46.1231319 40.3275,46.1706684 39.6725,45.7953285" id="Fill-9" fill="#FFFFFF"></path>
                                    <path d="M39.7692,43.9616099 L4.5912,23.8477495 C3.9902,23.5041006 4.0652,22.9029626 4.7602,22.5058351 L39.5992,2.58608191 C40.2942,2.18796415 41.3452,2.14438907 41.9472,2.48902833 L77.1232,22.6028887 C77.7262,22.9465377 77.6502,23.5476757 76.9562,23.9448031 L42.1172,43.8645563 C41.4212,44.2626741 40.3712,44.3062492 39.7692,43.9616099" id="Fill-11" fill="#00D7FD"></path>
                                </g>
                            </g>
                            <g id="Group-2" transform="translate(14.643678, 0.000000)">
                                <g id="Group-16" transform="translate(9.413793, 95.439560)">
                                    <path d="M1.39715849,13.5207962 C0.649605198,13.0814015 0.743278952,12.3138632 1.606853,11.8065337 L19.6592547,1.19624319 C20.5228288,0.688913742 21.828445,0.634067316 22.5763044,1.07315036 L41.0484012,11.9299382 C41.7959545,12.3693329 41.7019746,13.1368712 40.8390128,13.6442006 L22.7859989,24.2541796 C21.9230371,24.761509 20.6168086,24.8166671 19.8695615,24.3772724 L1.39715849,13.5207962 Z" id="Fill-9" fill="url(#linearGradient-43)" style="mix-blend-mode: hard-light;" opacity="0.850279018"></path>
                                    <path d="M1.34014069,13.4146222 L2.96290271,14.3585918 L19.6022594,4.68051363 C20.4658345,4.17846121 21.7714523,4.12387688 22.5193127,4.55870116 L39.3686703,14.3589002 L40.7820436,13.5367431 C41.6450065,13.0346907 41.7389865,12.2751359 40.9911262,11.8403116 L22.5193127,1.09645142 C21.7714523,0.661627142 20.4658345,0.716211466 19.6022594,1.21826389 L1.54983546,11.7181908 C0.686260345,12.2202432 0.592586476,12.9797979 1.34014069,13.4146222" id="Fill-14" fill="url(#linearGradient-44)" opacity="0.377120536"></path>
                                </g>
                                <path d="M51.462069,47.9632665 C48.6663659,39.5295138 41.4048989,35.3126374 29.6776679,35.3126374 C17.9504368,35.3126374 11.2658483,39.5295138 9.62390236,47.9632665 L9.62390236,107.710113 C9.60909674,108.019574 9.77384865,108.31833 10.1433592,108.538261 L29.1518873,119.838773 C29.9211496,120.296477 31.264996,120.239061 32.1533333,119.710966 L50.7302932,108.666392 C51.1917876,108.391965 51.4346628,108.044875 51.4582888,107.710113 L51.462069,47.9632665 Z" id="Fill-42" fill="url(#linearGradient-45)" opacity="0.264453125"></path>
                                <path d="M54.9137931,39.8406401 C51.6637883,30.2472463 43.2223329,25.4505495 29.5894268,25.4505495 C15.9565207,25.4505495 8.18568661,30.2472463 6.27692442,39.8406401 L6.27692442,107.802678 C6.25971289,108.154689 6.45123699,108.494525 6.88079296,108.744697 L28.9782069,121.599029 C29.8724743,122.119667 31.4346958,122.054356 32.4673879,121.453649 L54.0631038,108.890446 C54.599591,108.578284 54.8819335,108.18347 54.9093987,107.802678 L54.9137931,39.8406401 Z" id="Fill-42" fill="url(#linearGradient-45)" opacity="0.264453125"></path>
                                <path d="M61.7126437,18.659678 C57.5889817,6.21989267 46.8783178,0 29.580652,0 C12.2829863,0 2.42321824,6.21989267 0.00134793229,18.659678 L0.00134793229,106.786276 C-0.0204903596,107.242731 0.222518718,107.683396 0.767546727,108.007795 L28.8051257,124.67605 C29.9397875,125.351163 31.921961,125.266475 33.2322585,124.487535 L60.6332745,108.196788 C61.3139787,107.792008 61.6722196,107.280051 61.7070679,106.786276 L61.7126437,18.659678 Z" id="Fill-42" fill="url(#linearGradient-46)" opacity="0.264453125"></path>
                            </g>
                        </g>
                        <path d="M58.9782367,73.962056 L55.7417347,75.8607043 L55.7417347,73.6569004 L58.9782367,71.7591315 L58.9782367,73.962056 Z M58.9782367,88.8640268 L55.7417347,90.7626751 L55.7417347,77.8687514 L58.9782367,75.9709825 L58.9782367,88.8640268 Z M58.9782367,95.9912131 L55.7417347,97.8898614 L55.7417347,92.7708101 L58.9782367,90.8730412 L58.9782367,95.9912131 Z M58.9782367,103.377738 L55.7417347,105.275507 L55.7417347,100.157335 L58.9782367,98.2586864 L58.9782367,103.377738 Z M63.8045977,78.2582425 L60.5680957,80.1568908 L60.5680957,75.0378395 L63.8045977,73.1400706 L63.8045977,78.2582425 Z M63.8045977,88.0421293 L60.5680957,89.9398982 L60.5680957,82.424452 L63.8045977,80.5258037 L63.8045977,88.0421293 Z M63.8045977,97.0479133 L60.5680957,98.9465616 L60.5680957,92.4995998 L63.8045977,90.6009515 L63.8045977,97.0479133 Z M58.9782367,110.763823 L55.7417347,112.662471 L55.7417347,107.54342 L58.9782367,105.645651 L58.9782367,110.763823 Z M63.8045977,71.1314959 L60.5680957,73.0292648 L60.5680957,70.8263403 L63.8045977,68.9285714 L63.8045977,71.1314959 Z M61.3904217,116.51605 L55.7423406,119.82967 L55.7423406,117.690943 L61.3904217,114.378202 L61.3904217,116.51605 Z M30.9757863,73.962056 L30.9757863,71.7591315 L34.2122883,73.6569004 L34.2122883,75.8607043 L30.9757863,73.962056 Z M30.9757863,88.8640268 L30.9757863,75.9709825 L34.2122883,77.8687514 L34.2122883,90.7626751 L30.9757863,88.8640268 Z M30.9757863,95.9912131 L30.9757863,90.8730412 L34.2122883,92.7708101 L34.2122883,97.8898614 L30.9757863,95.9912131 Z M30.9757863,103.377738 L30.9757863,98.2586864 L34.2122883,100.157335 L34.2122883,105.275507 L30.9757863,103.377738 Z M26.1494253,78.2582425 L26.1494253,73.1400706 L29.3859272,75.0378395 L29.3859272,80.1568908 L26.1494253,78.2582425 Z M26.1494253,88.0421293 L26.1494253,80.5258037 L29.3859272,82.424452 L29.3859272,89.9398982 L26.1494253,88.0421293 Z M26.1494253,97.0479133 L26.1494253,90.6009515 L29.3859272,92.4995998 L29.3859272,98.9465616 L26.1494253,97.0479133 Z M30.9757863,110.763823 L30.9757863,105.645651 L34.2122883,107.54342 L34.2122883,112.662471 L30.9757863,110.763823 Z M26.1494253,71.1314959 L26.1494253,68.9285714 L29.3859272,70.8263403 L29.3859272,73.0292648 L26.1494253,71.1314959 Z M28.5636878,116.51605 L28.5636878,114.378202 L34.2117689,117.690943 L34.2117689,119.82967 L28.5636878,116.51605 Z" id="Combined-Shape" fill="#FFFFFF" style="mix-blend-mode: lighten;" opacity="0.713839286"></path>
                    </g>
                </g>
            </g>
        </g>
    </g>
</svg>