<?xml version="1.0" encoding="UTF-8"?>
<svg width="375px" height="340px" viewBox="0 0 375 340" version="1.1" xmlns="http://www.w3.org/2000/svg" xmlns:xlink="http://www.w3.org/1999/xlink">
    <!-- Generator: Sketch 51.3 (57544) - http://www.bohemiancoding.com/sketch -->
    <title>project02</title>
    <desc>Created with Sketch.</desc>
    <defs>
        <linearGradient x1="15.8907137%" y1="86.0333213%" x2="72.437758%" y2="28.2854583%" id="linearGradient-1">
            <stop stop-color="#170D5B" stop-opacity="0" offset="0%"></stop>
            <stop stop-color="#255586" stop-opacity="0.328734646" offset="40.2930816%"></stop>
            <stop stop-color="#42E8DF" offset="100%"></stop>
        </linearGradient>
        <linearGradient x1="129.286042%" y1="-48.3325425%" x2="9.99010926%" y2="90.2202859%" id="linearGradient-2">
            <stop stop-color="#170D5B" stop-opacity="0" offset="0%"></stop>
            <stop stop-color="#255586" stop-opacity="0.328734646" offset="40.2930816%"></stop>
            <stop stop-color="#42E8DF" offset="100%"></stop>
        </linearGradient>
        <linearGradient x1="78.6368178%" y1="2.62365696%" x2="0.710884995%" y2="110.849553%" id="linearGradient-3">
            <stop stop-color="#5677FF" offset="0%"></stop>
            <stop stop-color="#BCD4FF" offset="100%"></stop>
        </linearGradient>
        <path d="M44.9196044,0.418204217 L13.9502198,18.1601081 L0,18.1703582 L0.0030989011,26.7312445 L0.0113626374,26.7312445 C0.0227252747,26.9977472 0.182835165,27.2498998 0.515450549,27.4415767 L45.1354945,53.0032844 C45.8978242,53.4399388 47.2324176,53.3845883 48.1125055,52.8813082 L92.3028352,27.5635529 C92.7625055,27.3011503 93.0031868,26.9700719 93.0259121,26.6482187 L93.0259121,18.1068076 L79.0044176,18.1160327 L47.8976484,0.295202976 C47.5516044,0.0973759818 47.0888352,0 46.6043736,0 C46.0197143,0 45.402,0.141451426 44.9196044,0.418204217" id="path-4"></path>
        <linearGradient x1="-33.2443691%" y1="50.0003229%" x2="109.716279%" y2="50.0003229%" id="linearGradient-6">
            <stop stop-color="#007AFD" offset="0%"></stop>
            <stop stop-color="#170D5B" offset="100%"></stop>
        </linearGradient>
        <linearGradient x1="98.4500304%" y1="45.0939261%" x2="34.556443%" y2="-16.3663675%" id="linearGradient-7">
            <stop stop-color="#1660FF" offset="0%"></stop>
            <stop stop-color="#00A8F8" offset="47.4630759%"></stop>
            <stop stop-color="#15B0FB" offset="100%"></stop>
        </linearGradient>
        <polygon id="path-8" points="34.5747126 22.0119146 34.5747126 117.205455 0.913636782 96.0697233 0.913636782 0.877280488"></polygon>
        <polygon id="path-10" points="34.5747126 22.0119146 34.5747126 117.205455 0.913636782 96.0697233 0.913636782 0.877280488"></polygon>
        <linearGradient x1="98.4500304%" y1="45.0939261%" x2="8.33784019%" y2="42.7225705%" id="linearGradient-12">
            <stop stop-color="#1660FF" offset="0%"></stop>
            <stop stop-color="#00A8F8" offset="47.4630759%"></stop>
            <stop stop-color="#15B0FB" offset="100%"></stop>
        </linearGradient>
        <linearGradient x1="93.0170799%" y1="50.0001108%" x2="-8.3578494%" y2="50.0001108%" id="linearGradient-13">
            <stop stop-color="#072394" offset="0%"></stop>
            <stop stop-color="#E8FFFF" offset="100%"></stop>
        </linearGradient>
        <linearGradient x1="49.9984063%" y1="53.6986905%" x2="49.9984063%" y2="-46.3013108%" id="linearGradient-14">
            <stop stop-color="#5677FF" offset="0%"></stop>
            <stop stop-color="#BCD4FF" offset="100%"></stop>
        </linearGradient>
        <linearGradient x1="62.9068353%" y1="84.8019778%" x2="38.5930433%" y2="19.2466443%" id="linearGradient-15">
            <stop stop-color="#BFD6FF" offset="0%"></stop>
            <stop stop-color="#E8FFFF" offset="100%"></stop>
        </linearGradient>
        <path d="M33.6020928,26.626233 L32.0990619,25.7442013 L32.2231031,25.0295194 L46.1632062,16.7890202 L48.0984433,17.7261789 L47.7369794,18.3365133 L33.6020928,26.626233 Z M38.1636124,29.2930006 L36.6596124,28.4109689 L36.7846227,27.696287 L50.7237567,19.4557879 L52.6589938,20.3919622 L52.298499,21.003281 L38.1636124,29.2930006 Z M42.7250351,31.9597683 L41.2210351,31.0777366 L41.3460454,30.3630547 L55.2851794,22.1225556 L57.2204165,23.0587298 L56.8599216,23.6700487 L42.7250351,31.9597683 Z M47.2864577,34.626536 L45.7824577,33.7445043 L45.906499,33.0298224 L59.8466021,24.7893232 L61.7818392,25.7254975 L61.4213443,26.3368163 L47.2864577,34.626536 Z" id="path-16"></path>
        <linearGradient x1="-0.00335429076%" y1="50.0005963%" x2="99.9994016%" y2="50.0005963%" id="linearGradient-17">
            <stop stop-color="#5677FF" offset="0%"></stop>
            <stop stop-color="#BCD4FF" offset="100%"></stop>
        </linearGradient>
        <linearGradient x1="0.0010500193%" y1="50.0005932%" x2="99.9977334%" y2="50.0005932%" id="linearGradient-18">
            <stop stop-color="#5677FF" offset="0%"></stop>
            <stop stop-color="#BCD4FF" offset="100%"></stop>
        </linearGradient>
        <linearGradient x1="-0.000586775492%" y1="49.9994736%" x2="99.9966542%" y2="49.9994736%" id="linearGradient-19">
            <stop stop-color="#5677FF" offset="0%"></stop>
            <stop stop-color="#BCD4FF" offset="100%"></stop>
        </linearGradient>
        <linearGradient x1="-0.00224520185%" y1="49.9994695%" x2="100.000511%" y2="49.9994695%" id="linearGradient-20">
            <stop stop-color="#5677FF" offset="0%"></stop>
            <stop stop-color="#BCD4FF" offset="100%"></stop>
        </linearGradient>
        <polygon id="path-21" points="0 100.487064 46.6758621 127.753073 93.3484828 100.488158 46.6726207 73.2221492"></polygon>
        <path d="M44.9196044,0.416550302 L13.9502198,18.0882885 L0,18.098498 L0.0030989011,26.6255277 L0.0113626374,26.6255277 C0.0227252747,26.8909765 0.182835165,27.1421318 0.515450549,27.3330507 L45.1354945,52.7936669 C45.8978242,53.2285944 47.2324176,53.1734628 48.1125055,52.6721731 L92.3028352,27.4545445 C92.7625055,27.1931796 93.0031868,26.8634106 93.0259121,26.5428302 L93.0259121,18.0351987 L79.0044176,18.0443873 L47.8976484,0.294035507 C47.5516044,0.0969908791 47.0888352,0 46.6043736,0 C46.0197143,0 45.402,0.140892014 44.9196044,0.416550302" id="path-22"></path>
        <polygon id="path-24" points="34.5747126 21.9248619 34.5747126 73.4374042 0.913636782 52.3852602 0.913636782 0.873811017"></polygon>
        <polygon id="path-26" points="34.5747126 21.9248619 34.5747126 73.4374042 0.913636782 52.3852602 0.913636782 0.873811017"></polygon>
        <path d="M44.9196044,0.416550302 L13.9502198,18.0882885 L0,18.098498 L0.0030989011,26.6255277 L0.0113626374,26.6255277 C0.0227252747,26.8909765 0.182835165,27.1421318 0.515450549,27.3330507 L45.1354945,52.7936669 C45.8978242,53.2285944 47.2324176,53.1734628 48.1125055,52.6721731 L92.3028352,27.4545445 C92.7625055,27.1931796 93.0031868,26.8634106 93.0259121,26.5428302 L93.0259121,18.0351987 L79.0044176,18.0443873 L47.8976484,0.294035507 C47.5516044,0.0969908791 47.0888352,0 46.6043736,0 C46.0197143,0 45.402,0.140892014 44.9196044,0.416550302" id="path-28"></path>
        <path d="M44.9196044,0.419573077 L13.9502198,18.2195495 L0,18.2298332 L0.0030989011,26.8187409 L0.0113626374,26.8187409 C0.0227252747,27.0861159 0.182835165,27.3390938 0.515450549,27.5313981 L45.1354945,53.176774 C45.8978242,53.6148577 47.2324176,53.559326 48.1125055,53.0543986 L92.3028352,27.6537736 C92.7625055,27.390512 93.0031868,27.05835 93.0259121,26.7354433 L93.0259121,18.1660745 L79.0044176,18.1753298 L47.8976484,0.296169231 C47.5516044,0.0976947115 47.0888352,0 46.6043736,0 C46.0197143,0 45.402,0.141914423 44.9196044,0.419573077" id="path-30"></path>
        <path d="M93.0310769,16.0554156 L74.0492747,16.1675075 L47.8966154,1.13486228 C47.1322198,0.695750259 45.7996923,0.75128199 44.9185714,1.25826612 L18.4064396,16.4976128 L1.96534487e-12,16.6055911 L0,35.3265776 C0.0537142857,35.5682435 0.216923077,35.7883137 0.514417582,35.9590223 L45.1334286,61.6043983 C45.8967912,62.0435103 47.2293187,61.9879786 48.1114725,61.4820228 L92.3018022,36.0824262 C92.7046593,35.851044 92.933978,35.5661868 93.0021538,35.2813296 L93.0310769,16.0554156 Z" id="path-32"></path>
        <path d="M44.9196044,0.417319128 L13.9502198,18.121674 L0,18.1319024 L0.0030989011,26.6746705 L0.0113626374,26.6746705 C0.0227252747,26.9406091 0.182835165,27.192228 0.515450549,27.3834993 L45.1354945,52.8911082 C45.8978242,53.3268384 47.2324176,53.271605 48.1125055,52.7693901 L92.3028352,27.5052174 C92.7625055,27.2433701 93.0031868,26.9129924 93.0259121,26.5918203 L93.0259121,18.0684863 L79.0044176,18.0776918 L47.8976484,0.294578208 C47.5516044,0.0971698951 47.0888352,0 46.6043736,0 C46.0197143,0 45.402,0.141152058 44.9196044,0.417319128" id="path-33"></path>
        <path d="M92.9195402,115.784766 L74.0041811,115.89667 L47.9430653,100.889163 C47.1813454,100.450786 45.8534822,100.506225 44.9754456,101.012361 L18.5561156,116.226224 L0.214105067,116.334022 L0,154.816729 C0.0535262667,155.057991 0.216163769,155.277693 0.512616938,155.448116 L44.9754456,181.050607 C45.7361362,181.488985 47.0639993,181.433546 47.9430653,180.928436 L91.9787132,155.571314 C92.3801602,155.340319 92.6086761,155.055938 92.6766133,154.771557 L92.9195402,115.784766 Z" id="path-35"></path>
        <path d="M44.9196044,0.41662127 L13.9502198,18.0913702 L0,18.1015815 L0.0030989011,26.630064 L0.0113626374,26.630064 C0.0227252747,26.8955579 0.182835165,27.1467561 0.515450549,27.3377075 L45.1354945,52.8026615 C45.8978242,53.2376631 47.2324176,53.1825221 48.1125055,52.6811469 L92.3028352,27.459222 C92.7625055,27.1978126 93.0031868,26.8679874 93.0259121,26.5473524 L93.0259121,18.0382714 L79.0044176,18.0474616 L47.8976484,0.294085603 C47.5516044,0.0970074036 47.0888352,0 46.6043736,0 C46.0197143,0 45.402,0.140916018 44.9196044,0.41662127" id="path-36"></path>
        <path d="M25.2408233,128.001957 L46.8486824,115.376452 L68.4585662,128.001957 L66.8507673,128.941248 L68.4585257,128.001875 L68.4593356,153.251658 L46.8518816,165.875934 L46.8510716,140.626562 L66.8507673,128.941248 L46.8490158,140.626449 L46.8483989,165.875934 L25.2409448,153.251658 L25.2409448,128.002028 Z" id="path-38"></path>
        <filter x="-69.4%" y="-59.4%" width="238.8%" height="218.8%" filterUnits="objectBoundingBox" id="filter-39">
            <feOffset dx="0" dy="0" in="SourceAlpha" result="shadowOffsetOuter1"></feOffset>
            <feGaussianBlur stdDeviation="10" in="shadowOffsetOuter1" result="shadowBlurOuter1"></feGaussianBlur>
            <feColorMatrix values="0 0 0 0 1   0 0 0 0 0.952288541   0 0 0 0 0.728574811  0 0 0 0.5 0" type="matrix" in="shadowBlurOuter1"></feColorMatrix>
        </filter>
        <linearGradient x1="135.725117%" y1="131.428652%" x2="2.60901252%" y2="4.98361108%" id="linearGradient-40">
            <stop stop-color="#170D5B" offset="0%"></stop>
            <stop stop-color="#42E8DF" offset="100%"></stop>
        </linearGradient>
        <linearGradient x1="50.0001038%" y1="77.6633682%" x2="50.0001038%" y2="2.12041996%" id="linearGradient-41">
            <stop stop-color="#BFD6FF" offset="0%"></stop>
            <stop stop-color="#E8FFFF" offset="100%"></stop>
        </linearGradient>
        <linearGradient x1="99.9999987%" y1="49.9992124%" x2="0.000414215993%" y2="49.9992124%" id="linearGradient-42">
            <stop stop-color="#D0FFFC" offset="0%"></stop>
            <stop stop-color="#D0D3FF" offset="100%"></stop>
        </linearGradient>
        <path d="M44.9196044,0.41662127 L13.9502198,18.0913702 L0,18.1015815 L0.0030989011,26.630064 L0.0113626374,26.630064 C0.0227252747,26.8955579 0.182835165,27.1467561 0.515450549,27.3377075 L45.1354945,52.8026615 C45.8978242,53.2376631 47.2324176,53.1825221 48.1125055,52.6811469 L92.3028352,27.459222 C92.7625055,27.1978126 93.0031868,26.8679874 93.0259121,26.5473524 L93.0259121,18.0382714 L79.0044176,18.0474616 L47.8976484,0.294085603 C47.5516044,0.0970074036 47.0888352,0 46.6043736,0 C46.0197143,0 45.402,0.140916018 44.9196044,0.41662127" id="path-43"></path>
        <linearGradient x1="0%" y1="0%" x2="101.999998%" y2="100.999999%" id="linearGradient-45">
            <stop stop-color="#273877" offset="0%"></stop>
            <stop stop-color="#1F327F" offset="100%"></stop>
        </linearGradient>
        <linearGradient x1="0%" y1="39.1643551%" x2="100%" y2="39.1643551%" id="linearGradient-46">
            <stop stop-color="#233564" offset="0%"></stop>
            <stop stop-color="#0F172E" offset="100%"></stop>
        </linearGradient>
        <linearGradient x1="49.999818%" y1="104.472886%" x2="49.999818%" y2="13.9158145%" id="linearGradient-47">
            <stop stop-color="#FFFFFF" offset="3.21531792%"></stop>
            <stop stop-color="#FFFFFF" offset="36.3509702%"></stop>
            <stop stop-color="#FEFEFF" stop-opacity="0" offset="100%"></stop>
        </linearGradient>
        <linearGradient x1="49.999818%" y1="104.472886%" x2="49.999818%" y2="13.9158145%" id="linearGradient-48">
            <stop stop-color="#235CA0" offset="0%"></stop>
            <stop stop-color="#8F80F9" offset="36.3509702%"></stop>
            <stop stop-color="#FEFEFF" stop-opacity="0" offset="100%"></stop>
        </linearGradient>
        <linearGradient x1="49.999818%" y1="104.472886%" x2="49.999818%" y2="13.9158145%" id="linearGradient-49">
            <stop stop-color="#2AAAFF" offset="0%"></stop>
            <stop stop-color="#C9C1FF" offset="36.3509702%"></stop>
            <stop stop-color="#FEFEFF" stop-opacity="0" offset="100%"></stop>
        </linearGradient>
    </defs>
    <g id="Symbols" stroke="none" stroke-width="1" fill="none" fill-rule="evenodd">
        <g id="img/project02s">
            <rect id="Rectangle" fill="#192E59" x="0" y="0" width="375" height="340"></rect>
            <g id="img/stark" transform="translate(23.000000, 28.000000)">
                <g transform="translate(0.000000, 26.684564)">
                    <path d="M131.451673,75.7586739 L128.224531,73.8590604 L27.8142857,132.212666 L31.0391235,134.11228 L131.451673,75.7586739 Z M143.131626,82.7643738 L139.904483,80.8647603 L39.4919327,139.218366 L42.7190755,141.11798 L143.131626,82.7643738 Z M154.809272,89.7724073 L151.584435,87.8727938 L51.1718847,146.2264 L54.3990276,148.126013 L154.809272,89.7724073 Z M66.0789796,155.134047 L62.8518367,153.234433 L163.262082,94.8808274 L166.489224,96.7804409 L66.0789796,155.134047 Z" id="Fill-10" fill="url(#linearGradient-1)"></path>
                    <path d="M267.223102,75.7586739 L263.995959,73.8590604 L163.585714,132.212666 L166.810552,134.11228 L267.223102,75.7586739 Z M278.903054,82.7643738 L275.675911,80.8647603 L175.263361,139.218366 L178.490504,141.11798 L278.903054,82.7643738 Z M290.580701,89.7724073 L287.355863,87.8727938 L186.943313,146.2264 L190.170456,148.126013 L290.580701,89.7724073 Z M201.850408,155.134047 L198.623265,153.234433 L299.03351,94.8808274 L302.260653,96.7804409 L201.850408,155.134047 Z" id="Fill-10" fill="url(#linearGradient-2)" transform="translate(232.923184, 114.496554) scale(-1, 1) translate(-232.923184, -114.496554) "></path>
                    <g id="Group-18" transform="translate(165.235714, 179.882550) scale(-1, -1) translate(-165.235714, -179.882550) translate(27.814286, 139.140940)">
                        <path d="M103.637388,1.89961349 L100.410245,0 L0,58.3536061 L3.22483776,60.2532196 L103.637388,1.89961349 Z M115.31734,8.90531337 L112.090197,7.00569988 L11.6776469,65.359306 L14.9047898,67.2589195 L115.31734,8.90531337 Z M126.994987,15.9133469 L123.770149,14.0137334 L23.357599,72.3673395 L26.5847418,74.266953 L126.994987,15.9133469 Z M38.2646939,81.2749866 L35.037551,79.3753731 L135.447796,21.021767 L138.674939,22.9213805 L38.2646939,81.2749866 Z" id="Fill-10" fill="url(#linearGradient-1)"></path>
                        <path d="M239.408816,1.89961349 L236.181673,0 L135.771429,58.3536061 L138.996266,60.2532196 L239.408816,1.89961349 Z M251.088768,8.90531337 L247.861626,7.00569988 L147.449076,65.359306 L150.676218,67.2589195 L251.088768,8.90531337 Z M262.766415,15.9133469 L259.541578,14.0137334 L159.129028,72.3673395 L162.35617,74.266953 L262.766415,15.9133469 Z M174.036122,81.2749866 L170.80898,79.3753731 L271.219224,21.021767 L274.446367,22.9213805 L174.036122,81.2749866 Z" id="Fill-10" fill="url(#linearGradient-2)" transform="translate(205.108898, 40.637493) scale(-1, 1) translate(-205.108898, -40.637493) "></path>
                    </g>
                    <g id="sever04">
                        <g id="Group-10">
                            <g id="Group-7" transform="translate(0.000000, 116.341463)">
                                <g id="Fill-39" transform="translate(0.000000, 8.200083)">
                                    <mask id="mask-5" fill="white">
                                        <use xlink:href="#path-4"></use>
                                    </mask>
                                    <use id="Mask" fill="url(#linearGradient-3)" xlink:href="#path-4"></use>
                                    <polygon fill="url(#linearGradient-6)" mask="url(#mask-5)" points="0 16.3240898 0 28.0496226 46.5145711 55.0197987 46.5145711 43.294266"></polygon>
                                    <polygon id="Fill-35" fill="#21186C" mask="url(#mask-5)" points="46.5145711 41.3181582 46.5145711 54.8947975 93.0259121 27.9257026 93.0259121 14.3501447"></polygon>
                                </g>
                                <path d="M46.5421092,0 C45.9750103,0.0102501033 45.3841532,0.150676519 44.919318,0.417179206 L0.728988348,25.7349345 C-0.153165498,26.2402646 -0.247165498,27.0028723 0.515164173,27.4415767 L45.1352081,53.0032844 C45.8975378,53.4399388 47.2321312,53.3856133 48.1122191,52.8813082 L92.3025488,27.5635529 C92.7766807,27.2919252 93.0235598,26.9454717 93.0318235,26.6154184 L93.0318235,26.581593 C93.0256257,26.3099653 92.8551862,26.0516627 92.516373,25.8579357 L47.897362,0.295202976 C47.5657796,0.105576064 47.1267686,0.00820008268 46.6639993,0 L46.5421092,0 Z" id="Fill-6" fill="url(#linearGradient-7)"></path>
                            </g>
                            <g id="Group" transform="translate(9.724138, 0.000000)">
                                <polygon id="Fill-44" fill="#FFFFFF" points="0.914177011 48.0719634 0.914177011 144.202539 36.9507517 165.337173 72.986246 144.202539 72.986246 48.0719634 36.9507517 69.2065976"></polygon>
                                <polygon id="Mask" fill="#A0A0A0" opacity="0.334988839" points="36.9502115 69.2070366 36.9502115 165.337612 0.913636782 144.20188 0.913636782 48.0724024"></polygon>
                                <g id="Combined-Shape" transform="translate(1.080460, 47.195122)">
                                    <mask id="mask-9" fill="white">
                                        <use xlink:href="#path-8"></use>
                                    </mask>
                                    <g id="Mask"></g>
                                    <path d="M0.649598205,1.08702482 L0.649598205,-2.55248738 L37.6092423,19.4551472 L37.6092423,23.0924643 L0.649598205,1.08702482 Z M0.649598205,9.62517116 L0.649598205,5.98785408 L37.6092423,27.9932935 L37.6092423,31.6306106 L0.649598205,9.62517116 Z M0.649598205,18.1646346 L0.649598205,14.5273175 L37.6092423,36.5327569 L37.6092423,40.170074 L0.649598205,18.1646346 Z M0.649598205,26.7038785 L0.649598205,23.0665614 L37.6092423,45.0720009 L37.6092423,48.7093179 L0.649598205,26.7038785 Z M0.649598205,35.2433419 L0.649598205,31.6060248 L37.6092423,53.6114643 L37.6092423,57.2487813 L0.649598205,35.2433419 Z M0.649598205,43.7825858 L0.649598205,40.1430736 L37.6092423,62.148513 L37.6092423,65.7858301 L0.649598205,43.7825858 Z M0.649598205,52.3218297 L0.649598205,48.6823175 L37.6092423,70.6899521 L37.6092423,74.3272691 L0.649598205,52.3218297 Z M0.649598205,60.8601955 L0.649598205,57.2228785 L37.6092423,79.2283179 L37.6092423,82.865635 L0.649598205,60.8601955 Z M0.649598205,69.3994394 L0.649598205,65.7621224 L37.6092423,87.7675618 L37.6092423,91.4048789 L0.649598205,69.3994394 Z M0.649598205,77.9386834 L0.649598205,74.3013663 L37.6092423,96.3068057 L37.6092423,99.9441228 L0.649598205,77.9386834 Z M0.649598205,86.4781468 L0.649598205,82.8408297 L37.6092423,104.846269 L37.6092423,108.483586 L0.649598205,86.4781468 Z M0.649598205,95.0162931 L0.649598205,91.378976 L37.6092423,113.384415 L37.6092423,117.021733 L0.649598205,95.0162931 Z" fill="#0B0244" mask="url(#mask-9)"></path>
                                </g>
                                <g id="Combined-Shape" transform="translate(56.183908, 105.914634) scale(-1, 1) translate(-56.183908, -105.914634) translate(38.896552, 47.195122)">
                                    <mask id="mask-11" fill="white">
                                        <use xlink:href="#path-10"></use>
                                    </mask>
                                    <g id="Mask"></g>
                                    <path d="M0.649598205,1.08702482 L0.649598205,-2.55248738 L37.6092423,19.4551472 L37.6092423,23.0924643 L0.649598205,1.08702482 Z M0.649598205,9.62517116 L0.649598205,5.98785408 L37.6092423,27.9932935 L37.6092423,31.6306106 L0.649598205,9.62517116 Z M0.649598205,18.1646346 L0.649598205,14.5273175 L37.6092423,36.5327569 L37.6092423,40.170074 L0.649598205,18.1646346 Z M0.649598205,26.7038785 L0.649598205,23.0665614 L37.6092423,45.0720009 L37.6092423,48.7093179 L0.649598205,26.7038785 Z M0.649598205,35.2433419 L0.649598205,31.6060248 L37.6092423,53.6114643 L37.6092423,57.2487813 L0.649598205,35.2433419 Z M0.649598205,43.7825858 L0.649598205,40.1430736 L37.6092423,62.148513 L37.6092423,65.7858301 L0.649598205,43.7825858 Z M0.649598205,52.3218297 L0.649598205,48.6823175 L37.6092423,70.6899521 L37.6092423,74.3272691 L0.649598205,52.3218297 Z M0.649598205,60.8601955 L0.649598205,57.2228785 L37.6092423,79.2283179 L37.6092423,82.865635 L0.649598205,60.8601955 Z M0.649598205,69.3994394 L0.649598205,65.7621224 L37.6092423,87.7675618 L37.6092423,91.4048789 L0.649598205,69.3994394 Z M0.649598205,77.9386834 L0.649598205,74.3013663 L37.6092423,96.3068057 L37.6092423,99.9441228 L0.649598205,77.9386834 Z M0.649598205,86.4781468 L0.649598205,82.8408297 L37.6092423,104.846269 L37.6092423,108.483586 L0.649598205,86.4781468 Z M0.649598205,95.0162931 L0.649598205,91.378976 L37.6092423,113.384415 L37.6092423,117.021733 L0.649598205,95.0162931 Z" fill="#0B0244" mask="url(#mask-11)"></path>
                                </g>
                                <g id="Group-174"></g>
                            </g>
                            <g id="Group-2" transform="translate(0.000000, 41.707317)">
                                <polygon id="Fill-42" fill="#42E8E0" style="mix-blend-mode: soft-light;" points="46.6754299 27.4997195 46.6754299 128.823512 0.00064827586 101.449244 0.000648275862 0.12545122"></polygon>
                                <polygon id="Fill-48" fill="#5CFFF3" style="mix-blend-mode: soft-light;" points="0.000432183908 0.12545122 0.000432183906 101.449244 46.6752138 128.823512 93.3478345 101.450341 93.3478345 0.12654878 46.6752138 27.4997195"></polygon>
                            </g>
                            <g id="Group-60" transform="translate(0.000000, 41.707317)" fill="#42E8E0">
                                <polygon id="Fill-53" points="0.000432183908 0.0881341463 0.000432183908 101.184748 0.642225287 101.841443 0.642225287 0.744829444"></polygon>
                                <polygon id="Fill-55" points="93.3483747 0.0881341463 93.3483747 101.184748 92.7065816 101.841443 92.7065816 0.744829444"></polygon>
                                <polygon id="Fill-58" points="46.6268563 28.6072381 46.2485101 27.6281657 46.4597701 127.527186 46.8377458 128.494603 47.216092 127.527186 47.004832 27.6281657"></polygon>
                            </g>
                            <polygon id="Fill-20" fill="url(#linearGradient-6)" points="0 151.655488 46.6758621 179.029756 46.6758621 171.154756 0 143.780488"></polygon>
                            <polygon id="Fill-17" fill="#21186C" points="46.4597701 171.153659 46.4597701 179.028659 93.1323908 151.655488 93.1323908 143.780488"></polygon>
                            <polygon id="Fill-20" fill="url(#linearGradient-6)" points="0 42.9969512 46.6758621 70.3712195 46.6758621 62.4962195 0 35.1219512"></polygon>
                            <polygon id="Fill-17" fill="#21186C" points="46.4597701 62.495122 46.4597701 70.370122 94 42.9969512 94 35.1219512"></polygon>
                            <g id="Group-8" transform="translate(0.000000, 6.585366)">
                                <polygon id="Fill-1" fill="url(#linearGradient-12)" points="46.7602515 0.983622831 -0.000387628866 28.408311 46.7621897 55.8339837 93.5228289 28.408311"></polygon>
                                <g id="Group-27" transform="translate(0.000000, 5.569794)">
                                    <polygon id="Fill-16" fill="url(#linearGradient-13)" style="mix-blend-mode: soft-light;" points="46.7625773 43.0571247 34.4737732 43.0571247 0 22.8383203 37.5118144 0.838717626 46.7616082 0.838717626"></polygon>
                                    <polygon id="Fill-19" fill="#FFFFFF" points="46.7625773 40.6374441 12.8324536 20.7375886 46.7616082 0.838717626 80.6907629 20.738573"></polygon>
                                    <polygon id="Fill-25" fill="url(#linearGradient-14)" points="12.8324536 20.7375886 12.8324536 23.1572693 46.7625773 43.0571247 46.7625773 40.6374441"></polygon>
                                    <polygon id="Fill-22" fill="url(#linearGradient-15)" points="80.6907629 20.738573 80.6907629 23.1582537 46.7625773 43.0571247 46.7625773 40.6374441"></polygon>
                                </g>
                                <g id="Combined-Shape">
                                    <use fill="#3F38FC" xlink:href="#path-16"></use>
                                    <use fill="#0305A0" xlink:href="#path-16"></use>
                                </g>
                                <g id="Group-2" transform="translate(31.010309, 15.863716)">
                                    <polygon id="Fill-29" fill="url(#linearGradient-17)" points="15.2270309 1.59283254 16.7261856 2.4728954 17.6952577 1.90489062 15.2270309 0.456822982 0.124041237 9.3145474 1.09214433 9.88255218"></polygon>
                                    <polygon id="Fill-33" fill="url(#linearGradient-18)" points="19.7874845 4.2596002 21.2885773 5.13966306 22.2566804 4.57165829 19.7874845 3.12359065 4.68449485 11.9813151 5.65259794 12.5493198"></polygon>
                                    <polygon id="Fill-37" fill="url(#linearGradient-19)" points="24.3489072 6.92538345 25.85 7.80643073 26.8181031 7.23842595 24.3489072 5.79035831 9.24591753 14.6480827 10.2140206 15.2160875"></polygon>
                                    <polygon id="Fill-41" fill="url(#linearGradient-20)" points="28.9103299 9.59313553 30.4104536 10.472214 31.3785567 9.90519361 28.9103299 8.45712597 13.8073402 17.3148504 14.7754433 17.8828552"></polygon>
                                </g>
                            </g>
                        </g>
                    </g>
                    <g id="sever2" transform="translate(235.714286, 50.033557)">
                        <g id="Group-61" transform="translate(0.000000, -7.652542)">
                            <polygon id="Fill-1" fill="#312A91" points="0 108.330702 46.6758621 135.59671 93.3484828 108.331795 46.6726207 81.0657864"></polygon>
                            <g id="Fill-2">
                                <use fill="#00C9F4" xlink:href="#path-21"></use>
                                <use fill="#2C56FF" xlink:href="#path-21"></use>
                            </g>
                            <g id="Group-7" transform="translate(0.000000, 73.245763)">
                                <g id="Fill-39" transform="translate(0.000000, 8.167653)">
                                    <mask id="mask-23" fill="white">
                                        <use xlink:href="#path-22"></use>
                                    </mask>
                                    <use id="Mask" fill="url(#linearGradient-3)" xlink:href="#path-22"></use>
                                    <polygon fill="url(#linearGradient-6)" mask="url(#mask-23)" points="0 16.2595312 0 27.9386919 46.5145711 54.8022063 46.5145711 43.1230457"></polygon>
                                    <polygon id="Fill-35" fill="#21186C" mask="url(#mask-23)" points="46.5145711 41.154753 46.5145711 54.6776994 93.0259121 27.815262 93.0259121 14.2933927"></polygon>
                                </g>
                                <path d="M46.5421092,0 C45.9750103,0.0102095662 45.3841532,0.150080623 44.919318,0.415529345 L0.728988348,25.6331579 C-0.153165498,26.1364895 -0.247165498,26.8960812 0.515164173,27.3330507 L45.1352081,52.7936669 C45.8975378,53.2285944 47.2321312,53.1744837 48.1122191,52.6721731 L92.3025488,27.4545445 C92.7766807,27.183991 93.0235598,26.8389077 93.0318235,26.5101596 L93.0318235,26.4764681 C93.0256257,26.2059146 92.8551862,25.9486335 92.516373,25.7556727 L47.897362,0.294035507 C47.5657796,0.105158532 47.1267686,0.00816765297 46.6639993,0 L46.5421092,0 Z" id="Fill-6" fill="url(#linearGradient-7)"></path>
                                <g id="Group-21" transform="translate(4.005260, 1.969650)">
                                    <path d="M41.1035152,47.3528252 L1.43340383,24.71677 C0.755813582,24.3286648 0.84077138,23.6517848 1.62404084,23.2053102 L40.9118421,0.785324167 C41.6951116,0.338849611 42.8814125,0.289696449 43.5600389,0.677801625 L83.2291142,23.3138568 C83.9077405,23.700938 83.8227827,24.377818 83.0405493,24.8253165 L43.7517119,47.2453026 C42.9674064,47.6917772 41.7821415,47.7409303 41.1035152,47.3528252" id="Fill-9" fill="#FFFFFF"></path>
                                    <path d="M41.2037032,45.4567419 L4.75680784,24.6588102 C4.13412934,24.3034738 4.21183465,23.6818911 4.93190379,23.2712574 L41.0275712,2.67403442 C41.7476404,2.26237669 42.8365507,2.21731962 43.4602652,2.57368005 L79.9050885,23.3716118 C80.5298391,23.7269482 80.4510978,24.3485309 79.7320647,24.7591646 L43.6363973,45.3563876 C42.915292,45.7680453 41.8274178,45.8131024 41.2037032,45.4567419" id="Fill-11" fill="#00D7FD"></path>
                                </g>
                            </g>
                            <g id="Group" transform="translate(9.724138, 0.000000)">
                                <polygon id="Fill-44" fill="#FFFFFF" points="0.914177011 47.8818483 0.914177011 99.3943907 36.9507517 120.445442 72.986246 99.3943907 72.986246 47.8818483 36.9507517 68.9328992"></polygon>
                                <polygon id="Mask" fill="#A0A0A0" opacity="0.334988839" points="36.9502115 68.9333364 36.9502115 120.445879 0.913636782 99.3937347 0.913636782 47.8822856"></polygon>
                                <g id="Combined-Shape" transform="translate(1.080460, 47.008475)">
                                    <mask id="mask-25" fill="white">
                                        <use xlink:href="#path-24"></use>
                                    </mask>
                                    <g id="Mask"></g>
                                    <path d="M0.649598205,-42.6460877 L0.649598205,-46.2712064 L37.6092423,-24.3506076 L37.6092423,-20.7276754 L0.649598205,-42.6460877 Z M0.649598205,-34.1417081 L0.649598205,-37.7646403 L37.6092423,-15.846228 L37.6092423,-12.2232958 L0.649598205,-34.1417081 Z M0.649598205,-25.6360165 L0.649598205,-29.2589487 L37.6092423,-7.34053644 L37.6092423,-3.71760424 L0.649598205,-25.6360165 Z M0.649598205,-17.1305436 L0.649598205,-20.7534758 L37.6092423,1.16493644 L37.6092423,4.78786864 L0.649598205,-17.1305436 Z M0.649598205,-8.62485212 L0.649598205,-12.2477843 L37.6092423,9.67062797 L37.6092423,13.2935602 L0.649598205,-8.62485212 Z M0.649598205,-0.119379237 L0.649598205,-3.74449788 L37.6092423,18.1739144 L37.6092423,21.7968466 L0.649598205,-0.119379237 Z M0.649598205,8.38609364 L0.649598205,4.760975 L37.6092423,26.6815737 L37.6092423,30.3045059 L0.649598205,8.38609364 Z M0.649598205,16.8906919 L0.649598205,13.2677597 L37.6092423,35.186172 L37.6092423,38.8091042 L0.649598205,16.8906919 Z M0.649598205,25.3961648 L0.649598205,21.7732326 L37.6092423,43.6916449 L37.6092423,47.3145771 L0.649598205,25.3961648 Z M0.649598205,33.9016377 L0.649598205,30.2787055 L37.6092423,52.1971178 L37.6092423,55.82005 L0.649598205,33.9016377 Z M0.649598205,42.4073292 L0.649598205,38.784397 L37.6092423,60.7028093 L37.6092423,64.3257415 L0.649598205,42.4073292 Z M0.649598205,50.9117089 L0.649598205,47.2887767 L37.6092423,69.207189 L37.6092423,72.8301212 L0.649598205,50.9117089 Z" fill="#0B0244" mask="url(#mask-25)"></path>
                                </g>
                                <g id="Combined-Shape" transform="translate(56.183908, 84.177966) scale(-1, 1) translate(-56.183908, -84.177966) translate(38.896552, 47.008475)">
                                    <mask id="mask-27" fill="white">
                                        <use xlink:href="#path-26"></use>
                                    </mask>
                                    <g id="Mask"></g>
                                    <path d="M0.649598205,-42.6460877 L0.649598205,-46.2712064 L37.6092423,-24.3506076 L37.6092423,-20.7276754 L0.649598205,-42.6460877 Z M0.649598205,-34.1417081 L0.649598205,-37.7646403 L37.6092423,-15.846228 L37.6092423,-12.2232958 L0.649598205,-34.1417081 Z M0.649598205,-25.6360165 L0.649598205,-29.2589487 L37.6092423,-7.34053644 L37.6092423,-3.71760424 L0.649598205,-25.6360165 Z M0.649598205,-17.1305436 L0.649598205,-20.7534758 L37.6092423,1.16493644 L37.6092423,4.78786864 L0.649598205,-17.1305436 Z M0.649598205,-8.62485212 L0.649598205,-12.2477843 L37.6092423,9.67062797 L37.6092423,13.2935602 L0.649598205,-8.62485212 Z M0.649598205,-0.119379237 L0.649598205,-3.74449788 L37.6092423,18.1739144 L37.6092423,21.7968466 L0.649598205,-0.119379237 Z M0.649598205,8.38609364 L0.649598205,4.760975 L37.6092423,26.6815737 L37.6092423,30.3045059 L0.649598205,8.38609364 Z M0.649598205,16.8906919 L0.649598205,13.2677597 L37.6092423,35.186172 L37.6092423,38.8091042 L0.649598205,16.8906919 Z M0.649598205,25.3961648 L0.649598205,21.7732326 L37.6092423,43.6916449 L37.6092423,47.3145771 L0.649598205,25.3961648 Z M0.649598205,33.9016377 L0.649598205,30.2787055 L37.6092423,52.1971178 L37.6092423,55.82005 L0.649598205,33.9016377 Z M0.649598205,42.4073292 L0.649598205,38.784397 L37.6092423,60.7028093 L37.6092423,64.3257415 L0.649598205,42.4073292 Z M0.649598205,50.9117089 L0.649598205,47.2887767 L37.6092423,69.207189 L37.6092423,72.8301212 L0.649598205,50.9117089 Z" fill="#0B0244" mask="url(#mask-27)"></path>
                                </g>
                                <g id="Group-174"></g>
                            </g>
                            <g id="Group-60" transform="translate(0.000000, 42.672763)" fill="#42E8E0">
                                <polygon id="Fill-53" points="0.000432183908 0.0877855932 0.000432183908 57.8141924 0.642225287 58.1891669 0.642225287 0.462760169"></polygon>
                                <polygon id="Fill-55" points="93.3483747 0.0877855932 93.3483747 57.8141924 92.7065816 58.1891669 92.7065816 0.462760169"></polygon>
                                <polygon id="Fill-58" points="46.8381163 26.8502522 46.8377458 26.8502522 46.4597701 26.2001186 46.4597701 84.5916231 46.8377458 85.2340169 46.8381163 85.2340169 47.216092 84.5916231 47.216092 26.2001186"></polygon>
                            </g>
                            <polygon id="Fill-20" fill="url(#linearGradient-6)" points="0 108.330702 46.6758621 135.59671 46.6758621 127.752854 0 100.486846"></polygon>
                            <polygon id="Fill-17" fill="#21186C" points="46.6758621 127.752636 46.6758621 135.596492 93.3484828 108.331576 93.3484828 100.48772"></polygon>
                            <g id="Group-2" transform="translate(0.000000, 42.635593)">
                                <polygon id="Fill-42" fill="#42E8E0" style="mix-blend-mode: soft-light;" points="46.6754299 27.3909636 46.6754299 85.1173703 0.000648275862 57.8513619 0.000648275862 0.124955085"></polygon>
                                <polygon id="Fill-48" fill="#5CFFF3" style="mix-blend-mode: soft-light;" points="0.000432183908 0.124955085 0.000432183908 57.8513619 46.6752138 85.1173703 93.3478345 57.8524551 93.3478345 0.126048305 46.6752138 27.3909636"></polygon>
                            </g>
                            <g id="Group-7" transform="translate(0.000000, 7.652542)">
                                <g id="Fill-39" transform="translate(0.000000, 8.167653)">
                                    <mask id="mask-29" fill="white">
                                        <use xlink:href="#path-28"></use>
                                    </mask>
                                    <use id="Mask" fill="url(#linearGradient-3)" xlink:href="#path-28"></use>
                                    <polygon fill="url(#linearGradient-6)" mask="url(#mask-29)" points="0 16.2595312 0 27.9386919 46.5145711 54.8022063 46.5145711 43.1230457"></polygon>
                                    <polygon id="Fill-35" fill="#21186C" mask="url(#mask-29)" points="46.5145711 41.154753 46.5145711 54.6776994 93.0259121 27.815262 93.0259121 14.2933927"></polygon>
                                </g>
                                <path d="M46.5421092,0 C45.9750103,0.0102095662 45.3841532,0.150080623 44.919318,0.415529345 L0.728988348,25.6331579 C-0.153165498,26.1364895 -0.247165498,26.8960812 0.515164173,27.3330507 L45.1352081,52.7936669 C45.8975378,53.2285944 47.2321312,53.1744837 48.1122191,52.6721731 L92.3025488,27.4545445 C92.7766807,27.183991 93.0235598,26.8389077 93.0318235,26.5101596 L93.0318235,26.4764681 C93.0256257,26.2059146 92.8551862,25.9486335 92.516373,25.7556727 L47.897362,0.294035507 C47.5657796,0.105158532 47.1267686,0.00816765297 46.6639993,0 L46.5421092,0 Z" id="Fill-6" fill="url(#linearGradient-7)"></path>
                                <g id="Group-21" transform="translate(4.131868, 2.041913)">
                                    <path d="M40.9803846,47.210974 L1.42910989,24.6427279 C0.753549451,24.2557853 0.838252747,23.580933 1.61917582,23.1357959 L40.7892857,0.782971633 C41.5702088,0.337834546 42.752956,0.288828628 43.4295495,0.675771188 L82.9797912,23.2440173 C83.6563846,23.6299389 83.5716813,24.3047912 82.7917912,24.7509493 L43.6206484,47.1037736 C42.8386923,47.5489106 41.656978,47.5979166 40.9803846,47.210974" id="Fill-9" fill="#FFFFFF"></path>
                                    <path d="M41.0802725,45.3205707 L4.74255824,24.5849417 C4.12174505,24.2306698 4.19921758,23.6109491 4.91712967,23.2015455 L40.9046681,2.66602403 C41.6225802,2.25559946 42.7082286,2.21067737 43.3300747,2.56597028 L79.6657231,23.3015993 C80.2886022,23.6558712 80.2100967,24.2755919 79.4932176,24.6849955 L43.5056791,45.220517 C42.7867341,45.6309415 41.7021187,45.6758636 41.0802725,45.3205707" id="Fill-11" fill="#00D7FD"></path>
                                </g>
                            </g>
                        </g>
                    </g>
                    <g id="sever2-copy" transform="translate(117.857143, 13.818792)">
                        <g id="Group-8" transform="translate(0.000000, 8.761905)">
                            <g id="Group" transform="translate(0.000000, 12.047619)">
                                <g id="Fill-39" transform="translate(0.000000, 16.654464)">
                                    <mask id="mask-31" fill="white">
                                        <use xlink:href="#path-30"></use>
                                    </mask>
                                    <use id="Mask" fill="url(#linearGradient-3)" xlink:href="#path-30"></use>
                                    <polygon fill="url(#linearGradient-6)" mask="url(#mask-31)" points="0 16.3775216 0 28.1414342 46.5145711 55.1998888 46.5145711 43.4359762"></polygon>
                                    <polygon id="Fill-35" fill="#21186C" mask="url(#mask-31)" points="46.5145711 41.4534002 46.5145711 55.0744784 93.0259121 28.0171087 93.0259121 14.3971154"></polygon>
                                </g>
                                <g id="Fill-25">
                                    <use fill="#00FBFF" style="mix-blend-mode: soft-light;" xlink:href="#path-32"></use>
                                    <use fill="#FFFFFF" style="mix-blend-mode: soft-light;" xlink:href="#path-32"></use>
                                </g>
                                <path d="M46.5421092,8.42754121 C45.9750103,8.43782486 45.3841532,8.57871092 44.919318,8.84608592 L0.728988348,34.2467109 C-0.153165498,34.7536951 -0.247165498,35.5187989 0.515164173,35.9589393 L45.1352081,61.6043152 C45.8975378,62.0423989 47.2321312,61.9878955 48.1122191,61.4819398 L92.3025488,36.0813148 C92.7766807,35.8087979 93.0235598,35.4612104 93.0318235,35.1300768 L93.0318235,35.0961407 C93.0256257,34.8236239 92.8551862,34.5644758 92.516373,34.3701148 L47.897362,8.72371044 C47.5657796,8.53346284 47.1267686,8.43576813 46.6639993,8.42754121 L46.5421092,8.42754121 Z" id="Fill-6" fill="url(#linearGradient-7)"></path>
                                <g id="Group-21" transform="translate(4.131868, 10.484272)">
                                    <path d="M40.9803846,47.5535693 L1.42910989,24.8215525 C0.753549451,24.431802 0.838252747,23.7520525 1.61917582,23.3036851 L40.7892857,0.788653413 C41.5702088,0.340286106 42.752956,0.290924567 43.4295495,0.680675048 L82.9797912,23.4126919 C83.6563846,23.801414 83.5716813,24.4811635 82.7917912,24.9305592 L43.6206484,47.4455909 C42.8386923,47.8939582 41.656978,47.9433198 40.9803846,47.5535693" id="Fill-9" fill="#FFFFFF"></path>
                                    <path d="M41.0802725,45.6494479 L4.74255824,24.763347 C4.12174505,24.4065042 4.19921758,23.7822864 4.91712967,23.3699119 L40.9046681,2.68537053 C41.6225802,2.27196764 42.7082286,2.22671957 43.3300747,2.58459072 L79.6657231,23.4706917 C80.2886022,23.8275345 80.2100967,24.4517523 79.4932176,24.8641268 L43.5056791,45.5486681 C42.7867341,45.962071 41.7021187,46.0073191 41.0802725,45.6494479" id="Fill-11" fill="#00D7FD"></path>
                                </g>
                            </g>
                            <g id="Group-7">
                                <g id="Fill-39" transform="translate(0.000000, 8.182728)">
                                    <mask id="mask-34" fill="white">
                                        <use xlink:href="#path-33"></use>
                                    </mask>
                                    <use id="Mask" fill="url(#linearGradient-3)" xlink:href="#path-33"></use>
                                    <polygon fill="url(#linearGradient-6)" mask="url(#mask-34)" points="0 16.2895414 0 27.9902583 46.5145711 54.9033547 46.5145711 43.2026379"></polygon>
                                    <polygon id="Fill-35" fill="#21186C" mask="url(#mask-34)" points="46.5145711 41.2307123 46.5145711 54.778618 93.0259121 27.8666006 93.0259121 14.319774"></polygon>
                                </g>
                                <path d="M46.5421092,0 C45.9750103,0.01022841 45.3841532,0.150357627 44.919318,0.416296287 L0.728988348,25.680469 C-0.153165498,26.1847296 -0.247165498,26.9457233 0.515164173,27.3834993 L45.1352081,52.8911082 C45.8975378,53.3268384 47.2321312,53.2726278 48.1122191,52.7693901 L92.3025488,27.5052174 C92.7766807,27.2341645 93.0235598,26.8884442 93.0318235,26.5590894 L93.0318235,26.5253357 C93.0256257,26.2542828 92.8551862,25.9965269 92.516373,25.8032099 L47.897362,0.294578208 C47.5657796,0.105352623 47.1267686,0.00818272801 46.6639993,0 L46.5421092,0 Z" id="Fill-6" fill="url(#linearGradient-7)"></path>
                                <g id="Group-21" transform="translate(4.131868, 2.045682)">
                                    <path d="M40.9803846,47.2981113 L1.42910989,24.688211 C0.753549451,24.3005542 0.838252747,23.6244563 1.61917582,23.1784976 L40.7892857,0.784416764 C41.5702088,0.338458087 42.752956,0.289361719 43.4295495,0.677018458 L82.9797912,23.2869188 C83.6563846,23.6735527 83.5716813,24.3496506 82.7917912,24.7966321 L43.6206484,47.190713 C42.8386923,47.6366716 41.656978,47.685768 40.9803846,47.2981113" id="Fill-9" fill="#FFFFFF"></path>
                                    <path d="M41.0802725,45.4042189 L4.74255824,24.6303182 C4.12174505,24.2753923 4.19921758,23.6545278 4.91712967,23.2443686 L40.9046681,2.67094471 C41.6225802,2.25976262 42.7082286,2.21475762 43.3300747,2.57070629 L79.6657231,23.344607 C80.2886022,23.6995328 80.2100967,24.3203973 79.4932176,24.7305566 L43.5056791,45.3039805 C42.7867341,45.7151625 41.7021187,45.7601675 41.0802725,45.4042189" id="Fill-11" fill="#00D7FD"></path>
                                </g>
                            </g>
                        </g>
                    </g>
                    <g id="sever-copy-4" transform="translate(117.857143, 50.986577)">
                        <g id="Group-61" stroke-width="1" transform="translate(0.000000, 9.840659)">
                            <g id="Group" transform="translate(0.000000, 125.741758)"></g>
                            <g id="Fill-25">
                                <use fill="#00FBFF" style="mix-blend-mode: soft-light;" xlink:href="#path-35"></use>
                                <use fill="#FFFFFF" style="mix-blend-mode: soft-light;" xlink:href="#path-35"></use>
                            </g>
                            <g id="Group-7" transform="translate(0.000000, 127.928571)">
                                <g id="Fill-39" transform="translate(0.000000, 8.169045)">
                                    <mask id="mask-37" fill="white">
                                        <use xlink:href="#path-36"></use>
                                    </mask>
                                    <use id="Mask" fill="url(#linearGradient-3)" xlink:href="#path-36"></use>
                                    <polygon fill="url(#linearGradient-6)" mask="url(#mask-37)" points="0 16.2623014 0 27.9434518 46.5145711 54.8115431 46.5145711 43.1303927"></polygon>
                                    <polygon id="Fill-35" fill="#21186C" mask="url(#mask-37)" points="46.5145711 41.1617646 46.5145711 54.687015 93.0259121 27.820001 93.0259121 14.2958279"></polygon>
                                </g>
                                <path d="M46.5421092,0 C45.9750103,0.0102113056 45.3841532,0.150106193 44.919318,0.41560014 L0.728988348,25.6375251 C-0.153165498,26.1409424 -0.247165498,26.9006636 0.515164173,27.3377075 L45.1352081,52.8026615 C45.8975378,53.2376631 47.2321312,53.1835432 48.1122191,52.6811469 L92.3025488,27.459222 C92.7766807,27.1886224 93.0235598,26.8434803 93.0318235,26.5146762 L93.0318235,26.4809789 C93.0256257,26.2103793 92.8551862,25.9530544 92.516373,25.7600607 L47.897362,0.294085603 C47.5657796,0.105176448 47.1267686,0.00816904451 46.6639993,0 L46.5421092,0 Z" id="Fill-6" fill="url(#linearGradient-7)"></path>
                                <g id="Group-21" transform="translate(4.131868, 2.042261)">
                                    <path d="M40.9803846,47.2190174 L1.42910989,24.6469263 C0.753549451,24.2599178 0.838252747,23.5849505 1.61917582,23.1397376 L40.7892857,0.78310503 C41.5702088,0.337892104 42.752956,0.288877837 43.4295495,0.675886321 L82.9797912,23.2479774 C83.6563846,23.6339648 83.5716813,24.3089321 82.7917912,24.7551662 L43.6206484,47.1117987 C42.8386923,47.5570117 41.656978,47.6060259 40.9803846,47.2190174" id="Fill-9" fill="#FFFFFF"></path>
                                    <path d="M41.0802725,45.3282921 L4.74255824,24.5891303 C4.12174505,24.234798 4.19921758,23.6149718 4.91712967,23.2054984 L40.9046681,2.66647824 C41.6225802,2.25598376 42.7082286,2.21105401 43.3300747,2.56640745 L79.6657231,23.3055692 C80.2886022,23.6599015 80.2100967,24.2797278 79.4932176,24.6892011 L43.5056791,45.2282213 C42.7867341,45.6387158 41.7021187,45.6836455 41.0802725,45.3282921" id="Fill-11" fill="#00D7FD"></path>
                                </g>
                            </g>
                            <g id="Combined-Shape" opacity="0.736774554">
                                <use fill="black" fill-opacity="1" filter="url(#filter-39)" xlink:href="#path-38"></use>
                                <use fill="#FFFFFF" fill-rule="evenodd" xlink:href="#path-38"></use>
                            </g>
                            <g id="Group-16" transform="translate(9.724138, 90.752747)">
                                <polygon id="Fill-13" fill="url(#linearGradient-40)" style="mix-blend-mode: soft-light;" points="36.9506437 84.346478 0.914068966 63.2918407 36.9495632 42.2372033 72.9861379 63.2918407"></polygon>
                                <polygon id="Fill-6" fill="url(#linearGradient-41)" style="mix-blend-mode: soft-light;" points="72.9861379 21.0633846 72.9861379 63.2918407 36.9506437 84.346478 36.9506437 42.118022"></polygon>
                                <polygon id="Fill-9" fill="url(#linearGradient-7)" style="mix-blend-mode: lighten;" points="0.914068966 21.0633846 0.914068966 63.2918407 36.9506437 84.346478 36.9506437 42.118022"></polygon>
                                <polygon id="Fill-3" fill="url(#linearGradient-42)" opacity="0.0856584821" points="36.9506437 42.118022 0.914068966 21.0622912 36.9495632 0.00874725275 72.9861379 21.0633846"></polygon>
                            </g>
                            <g id="Group-7" transform="translate(0.000000, 85.285714)">
                                <g id="Fill-39" transform="translate(0.000000, 7.653846)">
                                    <mask id="mask-44" fill="white">
                                        <use xlink:href="#path-43"></use>
                                    </mask>
                                    <use id="Mask" fill="url(#linearGradient-3)" xlink:href="#path-43"></use>
                                    <polygon fill="url(#linearGradient-6)" mask="url(#mask-44)" points="0 16.2623014 0 27.9434518 46.5145711 54.8115431 46.5145711 43.1303927"></polygon>
                                    <polygon id="Fill-35" fill="#21186C" mask="url(#mask-44)" points="46.5145711 41.1617646 46.5145711 54.687015 93.0259121 27.820001 93.0259121 14.2958279"></polygon>
                                </g>
                                <path d="M46.485936,0 C45.9195215,0.0103036969 45.3293775,0.151464344 44.8651034,0.419360463 L0.728108507,25.8694917 C-0.152980637,26.377464 -0.246867185,27.144059 0.514542403,27.5850573 L45.0807329,53.2804165 C45.8421425,53.719354 47.1751251,53.6647444 48.0541508,53.1578025 L92.1911457,27.7076713 C92.6647053,27.4346233 92.9112865,27.0863583 92.9195402,26.7545793 L92.9195402,26.7205771 C92.9133499,26.4475291 92.7431161,26.187876 92.4047118,25.9931361 L47.839553,0.29674647 C47.5083708,0.106128078 47.0698897,0.0082429575 46.607679,0 L46.485936,0 Z" id="Fill-6" fill="url(#linearGradient-7)"></path>
                                <g id="Group-21" transform="translate(4.321839, 2.186813)">
                                    <path d="M40.9803846,47.2190174 L1.42910989,24.6469263 C0.753549451,24.2599178 0.838252747,23.5849505 1.61917582,23.1397376 L40.7892857,0.78310503 C41.5702088,0.337892104 42.752956,0.288877837 43.4295495,0.675886321 L82.9797912,23.2479774 C83.6563846,23.6339648 83.5716813,24.3089321 82.7917912,24.7551662 L43.6206484,47.1117987 C42.8386923,47.5570117 41.656978,47.6060259 40.9803846,47.2190174" id="Fill-9" fill="#FFFFFF"></path>
                                    <path d="M41.0802725,45.3282921 L4.74255824,24.5891303 C4.12174505,24.234798 4.19921758,23.6149718 4.91712967,23.2054984 L40.9046681,2.66647824 C41.6225802,2.25598376 42.7082286,2.21105401 43.3300747,2.56640745 L79.6657231,23.3055692 C80.2886022,23.6599015 80.2100967,24.2797278 79.4932176,24.6892011 L43.5056791,45.2282213 C42.7867341,45.6387158 41.7021187,45.6836455 41.0802725,45.3282921" id="Fill-11" fill="#00D7FD"></path>
                                </g>
                            </g>
                            <g id="Group-2" transform="translate(15.126437, 0.000000)">
                                <g id="Group-16" transform="translate(9.724138, 98.406593)">
                                    <path d="M1.44321866,13.9411318 C0.671020754,13.4880772 0.767782653,12.6966776 1.65982618,12.1735762 L20.307362,1.2334321 C21.1994055,0.71033075 22.548064,0.653779253 23.3205781,1.10651254 L42.4016452,12.3008171 C43.1738431,12.7538717 43.076765,13.5452713 42.1853539,14.0683727 L23.5371857,25.0081955 C22.6457746,25.5312968 21.2964836,25.5881697 20.524602,25.1351151 L1.44321866,13.9411318 Z" id="Fill-9" fill="url(#linearGradient-45)" style="mix-blend-mode: hard-light;" opacity="0.850279018"></path>
                                    <path d="M1.38432115,13.8316571 L3.06058082,14.8049729 L20.2484877,4.82602183 C21.1405324,4.30836156 22.4891925,4.25208031 23.2617076,4.70042244 L40.6665385,14.8052909 L42.1265066,13.9575745 C43.0179188,13.4399142 43.114997,12.6567464 42.342482,12.2084042 L23.2617076,1.13053799 C22.4891925,0.682195862 21.1405324,0.738477108 20.2484877,1.25613738 L1.60092893,12.0824869 C0.708884312,12.6001471 0.612122294,13.383315 1.38432115,13.8316571" id="Fill-14" fill="url(#linearGradient-46)" opacity="0.377120536"></path>
                                </g>
                                <path d="M53.1586207,49.4543525 C50.2707516,40.7584106 42.7698956,36.4104396 30.6560525,36.4104396 C18.5422095,36.4104396 11.6372499,40.7584106 9.94117386,49.4543525 L9.94117386,111.058614 C9.92588015,111.377695 10.0960634,111.685739 10.4777556,111.912508 L30.1129385,123.564331 C30.9075611,124.036264 32.2957101,123.977063 33.2133333,123.432551 L52.4027205,112.044622 C52.879429,111.761663 53.130311,111.403783 53.1547159,111.058614 L53.1586207,49.4543525 Z" id="Fill-42" fill="url(#linearGradient-47)" style="mix-blend-mode: soft-light;"></path>
                                <path d="M56.7241379,41.0792092 C53.3669901,31.1875752 44.647245,26.2417582 30.5649024,26.2417582 C16.4825599,26.2417582 8.45554441,31.1875752 6.483856,41.0792092 L6.483856,111.154056 C6.46607705,111.517011 6.66391513,111.867411 7.10763229,112.125361 L29.9335324,125.37931 C30.8572811,125.916133 32.4710044,125.848792 33.5377413,125.22941 L55.845404,112.275641 C56.3995776,111.953775 56.691228,111.546687 56.7195986,111.154056 L56.7241379,41.0792092 Z" id="Fill-42" fill="url(#linearGradient-48)" style="mix-blend-mode: soft-light;"></path>
                                <path d="M63.7471264,19.2397716 C59.4875195,6.41325721 48.4237569,0 30.5558384,0 C12.6879199,0 2.50310455,6.41325721 0.00139236962,19.2397716 L0.00139236962,110.106057 C-0.021165866,110.576702 0.2298545,111.031067 0.792850465,111.36555 L29.7547452,128.55199 C30.9268135,129.24809 32.9743334,129.16077 34.3278275,128.357614 L62.6321736,111.560419 C63.3353186,111.143055 63.7053697,110.615182 63.7413669,110.106057 L63.7471264,19.2397716 Z" id="Fill-42" fill="url(#linearGradient-49)" style="mix-blend-mode: soft-light;"></path>
                            </g>
                        </g>
                        <path d="M60.9225741,76.2613946 L57.5793743,78.2190682 L57.5793743,75.9467523 L60.9225741,73.9899854 L60.9225741,76.2613946 Z M60.9225741,91.6266391 L57.5793743,93.5843127 L57.5793743,80.2895416 L60.9225741,78.3327747 L60.9225741,91.6266391 Z M60.9225741,98.9753959 L57.5793743,100.93307 L57.5793743,95.6548767 L60.9225741,93.6981099 L60.9225741,98.9753959 Z M60.9225741,106.591553 L57.5793743,108.54832 L57.5793743,103.271034 L60.9225741,101.313361 L60.9225741,106.591553 Z M65.908046,80.6911412 L62.5648462,82.6488149 L62.5648462,77.3706221 L65.908046,75.4138552 L65.908046,80.6911412 Z M65.908046,90.7791904 L62.5648462,92.7359572 L62.5648462,84.9868702 L65.908046,83.0291966 L65.908046,90.7791904 Z M65.908046,100.064947 L62.5648462,102.022621 L62.5648462,95.375235 L65.908046,93.4175614 L65.908046,100.064947 Z M60.9225741,114.207257 L57.5793743,116.164931 L57.5793743,110.886738 L60.9225741,108.929971 L60.9225741,114.207257 Z M65.908046,73.3428378 L62.5648462,75.2996047 L62.5648462,73.0281955 L65.908046,71.0714286 L65.908046,73.3428378 Z M63.4142818,120.13831 L57.5800002,123.554945 L57.5800002,121.349729 L63.4142818,117.934001 L63.4142818,120.13831 Z M31.9969661,76.2613946 L31.9969661,73.9899854 L35.3401659,75.9467523 L35.3401659,78.2190682 L31.9969661,76.2613946 Z M31.9969661,91.6266391 L31.9969661,78.3327747 L35.3401659,80.2895416 L35.3401659,93.5843127 L31.9969661,91.6266391 Z M31.9969661,98.9753959 L31.9969661,93.6981099 L35.3401659,95.6548767 L35.3401659,100.93307 L31.9969661,98.9753959 Z M31.9969661,106.591553 L31.9969661,101.313361 L35.3401659,103.271034 L35.3401659,108.54832 L31.9969661,106.591553 Z M27.0114943,80.6911412 L27.0114943,75.4138552 L30.3546941,77.3706221 L30.3546941,82.6488149 L27.0114943,80.6911412 Z M27.0114943,90.7791904 L27.0114943,83.0291966 L30.3546941,84.9868702 L30.3546941,92.7359572 L27.0114943,90.7791904 Z M27.0114943,100.064947 L27.0114943,93.4175614 L30.3546941,95.375235 L30.3546941,102.022621 L27.0114943,100.064947 Z M31.9969661,114.207257 L31.9969661,108.929971 L35.3401659,110.886738 L35.3401659,116.164931 L31.9969661,114.207257 Z M27.0114943,73.3428378 L27.0114943,71.0714286 L30.3546941,73.0281955 L30.3546941,75.2996047 L27.0114943,73.3428378 Z M29.5053479,120.13831 L29.5053479,117.934001 L35.3396294,121.349729 L35.3396294,123.554945 L29.5053479,120.13831 Z" id="Combined-Shape" fill="#FFFFFF" style="mix-blend-mode: lighten;" opacity="0.713839286"></path>
                    </g>
                </g>
            </g>
        </g>
    </g>
</svg>