<?xml version="1.0" encoding="UTF-8"?>
<svg width="375px" height="340px" viewBox="0 0 375 340" version="1.1" xmlns="http://www.w3.org/2000/svg" xmlns:xlink="http://www.w3.org/1999/xlink">
    <!-- Generator: Sketch 51.3 (57544) - http://www.bohemiancoding.com/sketch -->
    <title>project03</title>
    <desc>Created with Sketch.</desc>
    <defs>
        <linearGradient x1="49.999818%" y1="104.472886%" x2="49.999818%" y2="28.7002476%" id="linearGradient-1">
            <stop stop-color="#2AFFF3" offset="0%"></stop>
            <stop stop-color="#77CBFF" offset="20.9522922%"></stop>
            <stop stop-color="#FEFEFF" stop-opacity="0" offset="100%"></stop>
        </linearGradient>
        <linearGradient x1="49.999818%" y1="104.472886%" x2="49.999818%" y2="27.5434381%" id="linearGradient-2">
            <stop stop-color="#2AFFF3" offset="0%"></stop>
            <stop stop-color="#77CBFF" offset="18.838866%"></stop>
            <stop stop-color="#FEFEFF" stop-opacity="0" offset="100%"></stop>
        </linearGradient>
        <linearGradient x1="83.419633%" y1="94.3737592%" x2="12.6798631%" y2="2.15087065%" id="linearGradient-3">
            <stop stop-color="#1660FF" offset="0%"></stop>
            <stop stop-color="#00A8F8" offset="47.4630759%"></stop>
            <stop stop-color="#15B0FB" offset="100%"></stop>
        </linearGradient>
        <radialGradient cx="98.5182545%" cy="50%" fx="98.5182545%" fy="50%" r="95.6704223%" gradientTransform="translate(0.985183,0.500000),scale(1.000000,0.255157),rotate(180.000000),translate(-0.985183,-0.500000)" id="radialGradient-4">
            <stop stop-color="#092274" offset="0%"></stop>
            <stop stop-color="#0D65C2" offset="100%"></stop>
        </radialGradient>
        <linearGradient x1="0%" y1="0%" x2="101.999998%" y2="100.999999%" id="linearGradient-5">
            <stop stop-color="#273877" offset="0%"></stop>
            <stop stop-color="#1F327F" offset="100%"></stop>
        </linearGradient>
        <linearGradient x1="101.80518%" y1="-51.0553611%" x2="-3.25305042%" y2="123.784132%" id="linearGradient-6">
            <stop stop-color="#00C8F2" offset="0%"></stop>
            <stop stop-color="#5431FF" offset="100%"></stop>
        </linearGradient>
        <linearGradient x1="117.533176%" y1="73.7056352%" x2="0%" y2="37.1215243%" id="linearGradient-7">
            <stop stop-color="#BFD6FF" offset="0%"></stop>
            <stop stop-color="#E8FFFF" offset="100%"></stop>
        </linearGradient>
        <linearGradient x1="5.67472812%" y1="27.7788446%" x2="100%" y2="95.9245435%" id="linearGradient-8">
            <stop stop-color="#78D3F7" offset="0%"></stop>
            <stop stop-color="#91AFFF" offset="100%"></stop>
        </linearGradient>
        <path d="M56.9597683,30.2417273 C58.8394576,31.3131081 60.3091244,34.8664451 60.3037538,36.9994829 L60.30293,53.3497844 C60.2966644,55.4854742 58.7678504,56.3438164 56.8872659,55.2715516 L3.58464633,24.8795195 C1.70495698,23.8072548 0.185093869,21.2110127 0.1913595,19.0753229 L0.191288199,2.72413741 C0.19755383,0.591099587 1.72726293,-0.269010569 3.60695229,0.802370221 L56.9597683,30.2417273 Z" id="path-9"></path>
    </defs>
    <g id="Symbols" stroke="none" stroke-width="1" fill="none" fill-rule="evenodd">
        <g id="img/project03s">
            <rect id="Rectangle" fill="#192E59" x="0" y="0" width="375" height="340"></rect>
            <g id="img/thor-copy" transform="translate(23.000000, 28.000000)">
                <g id="Group" transform="translate(13.399072, -138.440541)">
                    <path d="M270.164585,356.924073 C269.702019,357.800146 269.671181,357.845397 269.147848,358.556754 C269.102498,358.610151 269.053521,358.664453 268.412278,359.325127 C268.345161,359.387575 268.274415,359.448212 267.521613,360.053679 C267.418216,360.127892 267.30847,360.2012 266.473131,360.73155 L191.75791,404.948876 C189.890416,406.026771 187.593915,406.730887 184.735079,407.133627 C183.756436,407.256712 182.75149,407.330019 181.731125,407.3445 C176.89505,407.413282 171.744248,406.26751 167.744418,403.96601 C56.3993054,338.633655 30.3752332,323.766411 30.3740239,323.765808 C30.1363923,323.629148 29.9069236,323.489773 29.4715679,323.208307 C28.6670669,322.652617 28.5400882,322.557588 28.1936177,322.287888 C27.5224444,321.720432 27.4072565,321.613638 27.1351592,321.354799 C26.3714728,320.545698 26.0993755,320.208121 25.8290922,319.820767 C25.3919226,319.125701 25.3130144,318.982705 25.1914776,318.742872 C24.8967055,318.065906 24.8395651,317.906621 24.7769827,317.712943 C24.5702837,317.046002 24.479102,316.378272 24.5056546,315.720076 L24.5011601,78.2398566 L270.748048,69.9768596 L270.748048,355.189104 C270.444845,356.103208 270.439403,356.129454 270.164585,356.924073 Z" id="Combined-Shape" fill="url(#linearGradient-1)" style="mix-blend-mode: soft-light;"></path>
                    <path d="M261.167506,348.262741 C260.738903,349.074491 260.710329,349.11642 260.22542,349.775547 C260.1834,349.825024 260.138018,349.875339 259.543857,350.487506 C259.481667,350.545368 259.416116,350.601553 258.718585,351.162566 C258.62278,351.23133 258.521092,351.299256 257.747085,351.790666 L188.517574,392.761487 C186.787194,393.760241 184.659305,394.41266 182.01037,394.78583 C181.10358,394.899878 180.172419,394.967803 179.226971,394.98122 C174.745967,395.044953 169.973346,393.983305 166.267189,391.850784 C63.0972106,331.315234 38.9838669,317.539567 38.9827464,317.539008 C38.762562,317.412381 38.5499413,317.283239 38.1465501,317.02244 C37.4011169,316.507549 37.2834611,316.419497 36.962429,316.169599 C36.3405343,315.643807 36.2338037,315.544854 35.9816842,315.305018 C35.2740689,314.555324 35.0219494,314.242532 34.7715107,313.883617 C34.3664388,313.239585 34.2933241,313.107088 34.1807107,312.884863 C33.9075813,312.257602 33.8546362,312.110011 33.7966487,311.930554 C33.6051259,311.312581 33.5206389,310.693876 33.545242,310.084006 L33.5410775,94.6823537 L261.708131,87.026039 L261.708131,346.655155 C261.427189,347.502145 261.422147,347.526464 261.167506,348.262741 Z" id="Combined-Shape" fill="url(#linearGradient-2)" style="mix-blend-mode: soft-light;"></path>
                </g>
                <g id="Group-3" transform="translate(63.549884, 15.297297)">
                    <g id="Group-108" transform="translate(0.000000, 21.033784)">
                        <path d="M90.2201624,0 C90.0264501,0.00383143178 89.8511137,0.058237763 89.7033411,0.157088703 L89.7056381,0.146360694 L87.9262413,1.16782041 L89.1099536,1.66743911 L74.3809281,89.1290648 C74.2109513,90.1306011 74.9429234,91.5635566 75.9091879,92.1221793 L192.918306,159.733157 L192.81877,159.702506 L193.118144,161.329332 L194.859258,160.322431 L194.858492,160.321665 C195.173179,160.187565 195.399814,159.884115 195.477912,159.424344 L210.324849,71.2669299 C210.494826,70.2653936 209.762854,68.8332044 208.796589,68.2745817 L91.0746404,0.251341925 C90.7890487,0.0865903581 90.517239,0.00536400449 90.2737587,0 L90.2201624,0 Z" id="Fill-4" fill="url(#linearGradient-3)"></path>
                        <path d="M208.140418,70.6661614 L186.996682,156.311688 L192.918306,159.733157 L192.81877,159.702506 L193.118144,161.329332 L194.859258,160.322431 L194.858492,160.322431 C195.173179,160.187565 195.399814,159.884115 195.477912,159.424344 L210.324849,71.2669299 C210.399884,70.8270815 210.293457,70.3052405 210.076009,69.808687 L208.140418,70.6661614 Z" id="Fill-7" fill="url(#radialGradient-4)"></path>
                        <g id="Group-14" transform="translate(72.357793, 0.937934)">
                            <path d="M1.70431371,92.244402 L119.426263,160.266875 C120.335103,160.791782 121.11378,160.489099 121.273038,159.546566 L136.120741,71.3899189 C136.289952,70.3883826 135.55798,68.9554271 134.591715,68.3968044 L16.8697661,0.374330885 C15.9601606,-0.150575269 15.1830144,0.152107842 15.0229912,1.09387377 L0.176053849,89.2520538 C0.00531138931,90.2528238 0.737283547,91.6857793 1.70431371,92.244402" id="Fill-10" fill="url(#linearGradient-5)"></path>
                            <polygon id="Fill-12" fill="#FFFFFF" style="mix-blend-mode: soft-light;" points="18.4083624 6.00163136 131.883188 71.5696896 117.8111 154.59605 4.41284039 89.07167"></polygon>
                        </g>
                        <g id="Group-17" transform="translate(0.000000, 100.555161)">
                            <path d="M70.9063573,0.498852417 L6.48668213,37.7219784 L0.0620185615,34.3641116 L2.39881671,41.1227573 L2.40723898,41.1173933 C2.53663573,41.4798467 2.84902552,41.8361699 3.36048724,42.1319564 L117.058886,107.828751 C118.303086,108.548294 120.185847,108.626455 121.263898,108.003464 L189.111439,68.7994878 C189.462877,68.596422 189.670371,68.3420149 189.768376,68.0692169 C189.769907,68.0707495 189.778329,68.0768798 189.778329,68.0768798 L192.129675,61.9442901 C192.129675,61.9442901 187.282274,64.2776321 186.21877,64.8730366 L75.1113689,0.673565706 C74.4306961,0.27969452 73.5586079,0.0781612082 72.7324594,0.0781612082 C72.0479582,0.0781612082 71.3948492,0.216092752 70.9063573,0.498852417" id="Fill-15" fill="url(#linearGradient-6)"></path>
                            <path d="M184.884912,69.0297569 L184.884912,67.750825 C184.884912,67.6297517 184.811408,67.5745791 184.720295,67.6266866 L180.212847,70.2305276 C180.122499,70.2834014 180.048995,70.4236318 180.048995,70.5454713 L180.048995,71.8244032 C180.048995,71.9462428 180.122499,72.0014154 180.212847,71.9493079 L184.720295,69.3447006 C184.811408,69.2925931 184.884912,69.1508301 184.884912,69.0297569" id="Fill-21" fill="#242993"></path>
                            <path d="M178.144949,72.9247904 L178.144949,71.6450922 C178.144949,71.524019 178.071445,71.4688464 177.980332,71.5209538 L173.472884,74.1247949 C173.382536,74.1776686 173.309032,74.3186653 173.309032,74.4405048 L173.309032,75.7186705 C173.309032,75.84051 173.382536,75.8956826 173.472884,75.8435752 L177.980332,73.2389678 C178.071445,73.1868604 178.144949,73.0458637 178.144949,72.9247904" id="Fill-23" fill="#242993"></path>
                        </g>
                        <g id="Group-20" transform="translate(0.000000, 92.868952)" fill="url(#linearGradient-7)">
                            <path d="M70.2808121,0.437906422 L0.74575406,40.6173652 C0.25037123,40.9039563 0.00535962877,41.2855669 0,41.6855684 L0,41.7123884 C0.00612529002,42.1974476 0.363689095,42.7077944 1.05508121,43.1070295 L117.580302,110.437546 C118.855893,111.174714 120.784594,111.255174 121.890209,110.616091 L191.424501,70.438165 C192.52935,69.7998484 192.390766,68.6849018 191.115174,67.9477343 L74.5899536,0.617217429 C73.8916705,0.214150806 72.9989095,0.00725349034 72.1520882,0.00725349034 C71.4507425,0.00725349034 70.7815545,0.149016466 70.2808121,0.437906422" id="Fill-18"></path>
                        </g>
                        <g id="Group-43" transform="translate(39.434359, 103.239980)">
                            <path d="M133.861657,56.3039042 L37.0292441,0.351973353 C36.383026,-0.0212081018 35.5882696,-0.0204418154 34.9435829,0.35273964 L0.461262665,20.3190969 C-0.0341201652,20.6064543 -0.033354504,21.3221658 0.461262665,21.6079906 L97.2492673,77.5331013 C97.8931884,77.9055165 98.6887105,77.9062828 99.3326316,77.5338676 L133.861657,57.5927978 C134.35704,57.306973 134.35704,56.5904953 133.861657,56.3039042" id="Fill-25" fill="#FFFFFF"></path>
                            <path d="M133.514813,57.7933349 L37.0292441,2.04140488 C36.383026,1.66898971 35.587504,1.669756 34.9435829,2.04293745 L0.808872874,21.8085277 L0.461262665,21.6077607 C-0.033354504,21.3219359 -0.0341201652,20.6062244 0.461262665,20.318867 L34.9435829,0.35327604 C35.587504,-0.0206717013 36.383026,-0.0214379877 37.0292441,0.352509754 L133.861657,56.3036743 C134.35704,56.5902654 134.35704,57.3067431 133.861657,57.5925679 L133.514813,57.7933349 Z" id="Fill-27" fill="url(#linearGradient-8)"></path>
                            <path d="M30.8091652,6.17574965 L34.5494204,4.01558842 L118.661903,52.6165342 L114.921648,54.778228 L30.8091652,6.17574965 Z M24.703323,9.94135743 L28.4435782,7.7811962 L107.338079,53.3675715 L103.597824,55.528499 L24.703323,9.94135743 Z M18.7313183,13.3918683 L22.4715736,11.231707 L115.360831,64.9054685 L111.620576,67.0656297 L18.7313183,13.3918683 Z M12.7593137,16.8431454 L16.4995689,14.6822179 L109.388826,68.3559793 L105.648571,70.5169068 L12.7593137,16.8431454 Z M6.78730907,20.2937328 L10.5275643,18.1328053 L103.416822,71.8065668 L99.6765666,73.9674943 L6.78730907,20.2937328 Z M120.00426,57.7144841 L123.744516,55.5543228 L127.484771,57.7144841 L123.744516,59.8754116 L120.00426,57.7144841 Z M107.08248,57.6798214 L110.82197,55.5188938 L121.377474,61.4799386 L117.637984,63.6416324 L107.08248,57.6798214 Z" id="Combined-Shape" fill="#242993"></path>
                        </g>
                        <g id="Group-46" transform="translate(44.408353, 143.467197)">
                            <path d="M0.765182742,10.7594267 C-0.255443709,11.3487009 -0.254678047,12.30426 0.765182742,12.8935342 L37.8420674,34.2586467 C38.8634595,34.8479209 40.5180535,34.8479209 41.5386799,34.2586467 L59.392369,23.9421335 C60.4129955,23.3528593 60.4129955,22.3965339 59.392369,21.8064934 L22.3154844,0.442913513 C21.8047883,0.147893267 21.136366,0 20.4671781,0 C19.7987558,0 19.1295679,0.147893267 18.6196375,0.442913513 L0.765182742,10.7594267 Z" id="Fill-44" fill="#FFFFFF"></path>
                            <path d="M22.305251,1.31609682 C21.2846245,0.726056322 19.6307962,0.726056322 18.6101698,1.31609682 L0.755714995,11.63261 C0.44102822,11.8149862 0.235065343,12.0333778 0.114856526,12.2632637 C-0.156187557,11.747553 0.0505409812,11.1667079 0.755714995,10.7590436 L18.6101698,0.44253037 C19.6307962,-0.147510123 21.2846245,-0.147510123 22.305251,0.44253037 L59.3829013,21.8061103 C60.088841,22.2145409 60.2940382,22.795386 60.0245254,23.3110967 C59.9043166,23.0804445 59.6975881,22.8620529 59.3829013,22.680443 L22.305251,1.31609682 Z" id="Fill-47" fill="url(#linearGradient-8)"></path>
                        </g>
                    </g>
                    <path d="M66.0675174,7.76226652 L56.2762556,2.13905102 L56.2762556,0 L66.0675174,5.6232155 L66.0675174,7.76226652 Z M71.0882247,10.6462447 L67.5630635,8.62170394 L67.5630635,6.48265291 L71.0882247,8.50719371 L71.0882247,10.6462447 Z M74.9796374,12.8813317 L72.5840011,11.5056821 L72.5840011,9.36663113 L74.9796374,10.7422806 L74.9796374,12.8813317 Z M61.611112,10.0893433 L56.2765625,7.02504969 L56.2765625,4.88599866 L61.611112,7.95029231 L61.611112,10.0893433 Z M69.6449344,14.703342 L63.106428,10.9489334 L63.106428,8.80911901 L69.6449344,12.564291 L69.6449344,14.703342 Z M73.5355798,16.9387343 L71.1407108,15.5623214 L71.1407108,13.4240338 L73.5355798,14.7996833 L73.5355798,16.9387343 Z M77.2389174,19.0653419 L74.843281,17.6896924 L74.843281,15.5506414 L77.2389174,16.9262909 L77.2389174,19.0653419 Z M56.2766392,11.91143 L56.2766392,9.77237903 L60.1363608,11.989297 L60.1363608,14.128348 L56.2766392,11.91143 Z M62.9517322,15.7455378 L61.6319069,14.9874801 L61.6319069,12.8484291 L62.9517322,13.6064868 L62.9517322,15.7455378 Z M66.8423776,17.980243 L64.4475086,16.6045935 L64.4475086,14.4655425 L66.8423776,15.841192 L66.8423776,17.980243 Z M70.5232321,24.9809402 L56.2767927,16.7980394 L56.2767927,14.6589884 L70.5232321,22.8418892 L70.5232321,24.9809402 Z M75.5438627,27.8649184 L72.0187015,25.8403776 L72.0187015,23.7005632 L75.5438627,25.7258674 L75.5438627,27.8649184 Z M60.1363608,23.9010324 L56.2766392,21.6841144 L56.2766392,19.5450634 L60.1363608,21.7619814 L60.1363608,23.9010324 Z M69.1945824,29.1043771 L61.6324441,24.7606225 L61.6324441,22.6215715 L69.1945824,26.9653261 L69.1945824,29.1043771 Z M73.0859951,31.3393877 L70.6903588,29.9637382 L70.6903588,27.8246871 L73.0859951,29.2003367 L73.0859951,31.3393877 Z M64.173875,31.1067792 L56.276409,26.5706475 L56.276409,24.4315965 L64.173875,28.9677282 L64.173875,31.1067792 Z M71.3811952,35.2462476 L65.6698816,31.9659113 L65.6698816,29.8268603 L71.3811952,33.1071965 L71.3811952,35.2462476 Z M76.7368466,38.3225266 L72.8771251,36.1056086 L72.8771251,33.9665576 L76.7368466,36.1834756 L76.7368466,38.3225266 Z M58.9441442,32.9891747 L56.2761021,31.4570278 L56.2761021,29.3179768 L58.9441442,30.8501236 L58.9441442,32.9891747 Z M63.9648516,35.8728475 L60.4396904,33.8483067 L60.4396904,31.7092557 L63.9648516,33.7337965 L63.9648516,35.8728475 Z M71.1406341,39.9943759 L65.4607814,36.7323613 L65.4607814,34.5933103 L71.1406341,37.8553249 L71.1406341,39.9943759 Z M64.4474319,41.03619 L56.2767927,36.3435609 L56.2767927,34.2045099 L64.4474319,38.8971389 L64.4474319,41.03619 Z M73.5985784,46.29282 L65.9428246,41.8956274 L65.9428246,39.7565763 L73.5985784,44.153769 L73.5985784,46.29282 Z M77.4899911,48.5278306 L75.0943548,47.1521811 L75.0943548,45.0131301 L77.4899911,46.3887796 L77.4899911,48.5278306 Z M81.2240223,50.6726835 L78.828386,49.297034 L78.828386,47.157983 L81.2240223,48.5336325 L81.2240223,50.6726835 Z M61.1719632,44.04132 L56.2763323,41.2297122 L56.2763323,39.0906612 L61.1719632,41.902269 L61.1719632,44.04132 Z M81.6451386,16.7102483 L81.6451386,14.5711972 L88.433798,18.4706521 L88.433798,20.6089398 L81.6451386,16.7102483 Z M83.0988648,22.4316372 L83.0988648,20.2925862 L88.4334143,23.3568798 L88.4334143,25.4959308 L83.0988648,22.4316372 Z M82.8193994,32.0434729 L82.8193994,29.9044219 L88.4332608,33.1290298 L88.4332608,35.2688442 L82.8193994,32.0434729 Z M64.7493802,46.0963205 L62.6675861,44.9008337 L62.6675861,42.7617827 L64.7493802,43.9572695 L64.7493802,46.0963205 Z M70.9308432,49.6472063 L66.2454636,46.9554526 L66.2454636,44.8164015 L70.9308432,47.5081552 L70.9308432,49.6472063 Z M66.0675174,51.7681647 L56.2762556,46.1441858 L56.2762556,44.0051348 L66.0675174,49.6291137 L66.0675174,51.7681647 Z M71.0882247,54.6518375 L67.5630635,52.6272967 L67.5630635,50.4882457 L71.0882247,52.5127865 L71.0882247,54.6518375 Z M74.9796374,56.8868481 L72.5840011,55.5111986 L72.5840011,53.3721476 L74.9796374,54.7477971 L74.9796374,56.8868481 Z M61.611112,54.0949361 L56.2765625,51.0306425 L56.2765625,48.8915915 L61.611112,51.9558851 L61.611112,54.0949361 Z M69.6449344,58.7092402 L63.106428,54.9540682 L63.106428,52.8150172 L69.6449344,56.5701892 L69.6449344,58.7092402 Z M73.5355798,60.9439454 L71.1407108,59.5682959 L71.1407108,57.4292449 L73.5355798,58.8048944 L73.5355798,60.9439454 Z M77.2389174,63.0708584 L74.843281,61.6952088 L74.843281,59.5561578 L77.2389174,60.9318073 L77.2389174,63.0708584 Z M60.1363608,58.1340935 L56.2766392,55.9171755 L56.2766392,53.7781245 L60.1363608,55.9950425 L60.1363608,58.1340935 Z M62.9517322,59.7511306 L61.6319069,58.9930729 L61.6319069,56.8540219 L62.9517322,57.6120795 L62.9517322,59.7511306 Z M66.8423776,61.9861412 L64.4475086,60.6104916 L64.4475086,58.4714406 L66.8423776,59.8470901 L66.8423776,61.9861412 Z M70.5232321,68.9864566 L56.2767927,60.8035559 L56.2767927,58.6645049 L70.5232321,66.8474056 L70.5232321,68.9864566 Z M75.5438627,71.8704348 L72.0187015,69.8458941 L72.0187015,67.7060796 L75.5438627,69.7313838 L75.5438627,71.8704348 Z M60.1363608,67.9066252 L56.2766392,65.6897072 L56.2766392,63.5506562 L60.1363608,65.7675742 L60.1363608,67.9066252 Z M69.1945824,73.1098935 L61.6324441,68.766139 L61.6324441,66.6270879 L69.1945824,70.9708425 L69.1945824,73.1098935 Z M73.0859951,75.3449041 L70.6903588,73.9692546 L70.6903588,71.8302036 L73.0859951,73.2058531 L73.0859951,75.3449041 Z M64.173875,75.1122957 L56.276409,70.5761639 L56.276409,68.4371129 L64.173875,72.9732447 L64.173875,75.1122957 Z M71.3811952,79.251764 L65.6698816,75.9714277 L65.6698816,73.8323767 L71.3811952,77.112713 L71.3811952,79.251764 Z M76.7368466,82.3281194 L72.8771251,80.1112014 L72.8771251,77.9721504 L76.7368466,80.1890684 L76.7368466,82.3281194 Z M58.9441442,76.9946911 L56.2761021,75.4625443 L56.2761021,73.3234933 L58.9441442,74.8556401 L58.9441442,76.9946911 Z M63.9648516,79.878364 L60.4396904,77.8538232 L60.4396904,75.7147722 L63.9648516,77.739313 L63.9648516,79.878364 Z M71.1406341,83.9998924 L65.4607814,80.7378777 L65.4607814,78.5988267 L71.1406341,81.8608413 L71.1406341,83.9998924 Z M64.4474319,85.0417827 L56.2767927,80.3491537 L56.2767927,78.2101027 L64.4474319,82.9027317 L64.4474319,85.0417827 Z M73.5985784,90.2983365 L65.9428246,85.9011438 L65.9428246,83.7620928 L73.5985784,88.1592855 L73.5985784,90.2983365 Z M77.4899911,92.5333471 L75.0943548,91.1576976 L75.0943548,89.0186466 L77.4899911,90.3942961 L77.4899911,92.5333471 Z M81.2240223,94.6782 L78.828386,93.3025504 L78.828386,91.1634994 L81.2240223,92.5391489 L81.2240223,94.6782 Z M61.1719632,88.0469128 L56.2763323,85.235305 L56.2763323,83.096254 L61.1719632,85.9078618 L61.1719632,88.0469128 Z M81.6451386,60.7157647 L81.6451386,58.5767137 L88.433798,62.4761686 L88.433798,64.6144562 L81.6451386,60.7157647 Z M83.0988648,66.43723 L83.0988648,64.298179 L88.4334143,67.3624726 L88.4334143,69.5015236 L83.0988648,66.43723 Z M82.8193994,76.0490657 L82.8193994,73.9100147 L88.4332608,77.1346226 L88.4332608,79.274437 L82.8193994,76.0490657 Z M64.7493802,90.1019133 L62.6675861,88.9064265 L62.6675861,86.7673755 L64.7493802,87.9628623 L64.7493802,90.1019133 Z M70.9308432,93.6524174 L66.2454636,90.961427 L66.2454636,88.8216126 L70.9308432,91.5133663 L70.9308432,93.6524174 Z M74.8079834,110.088986 L66.8997746,105.547511 L66.8997746,103.40846 L74.8079834,107.949935 L74.8079834,110.088986 Z M80.2236408,113.2 L77.1090067,111.410587 L77.1090067,109.271536 L80.2236408,111.060949 L80.2236408,113.2 Z M84.573616,28.1650115 L84.573616,26.0259605 L88.4333376,28.2428785 L88.4333376,30.3819295 L84.573616,28.1650115 Z M84.573616,37.9378486 L84.573616,35.7987976 L88.4333376,38.0157156 L88.4333376,40.1547666 L84.573616,37.9378486 Z M83.5387809,42.2293865 L83.5387809,40.0903355 L88.4336445,42.9019432 L88.4336445,45.0409943 L83.5387809,42.2293865 Z M85.7665999,48.3955332 L85.7665999,46.2564821 L88.4338747,47.788629 L88.4338747,49.92768 L85.7665999,48.3955332 Z M83.2652241,51.8453446 L83.2652241,49.7062935 L88.4332608,52.6743986 L88.4332608,54.814213 L83.2652241,51.8453446 Z M83.5387809,56.8883749 L83.5387809,54.7493239 L88.4336445,57.5609316 L88.4336445,59.7007461 L83.5387809,56.8883749 Z M84.573616,72.170528 L84.573616,70.031477 L88.4333376,72.2483949 L88.4333376,74.387446 L84.573616,72.170528 Z M84.573616,81.9434414 L84.573616,79.8043904 L88.4333376,82.0213083 L88.4333376,84.1603594 L84.573616,81.9434414 Z M83.5387809,86.2349793 L83.5387809,84.0959283 L88.4336445,86.907536 L88.4336445,89.046587 L83.5387809,86.2349793 Z M85.7665999,92.4010496 L85.7665999,90.2619986 L88.4338747,91.7941454 L88.4338747,93.9331964 L85.7665999,92.4010496 Z M83.2652241,95.8505557 L83.2652241,93.7115046 L88.4332608,96.6803731 L88.4332608,98.8194241 L83.2652241,95.8505557 Z M83.5387809,100.893891 L83.5387809,98.7548403 L88.4336445,101.567212 L88.4336445,103.706263 L83.5387809,100.893891 Z" id="Combined-Shape" fill="#42FFFF"></path>
                    <path d="M111.241531,57.8646304 L101.450269,52.2387235 L101.450269,50.0986486 L111.241531,55.7245556 L111.241531,57.8646304 Z M116.262162,60.749989 L112.737001,58.7244792 L112.737001,56.5844043 L116.262162,58.6099141 L116.262162,60.749989 Z M120.153575,62.9860693 L117.757938,61.6097614 L117.757938,59.4696865 L120.153575,60.8459945 L120.153575,62.9860693 Z M106.785049,60.192821 L101.4505,57.1270607 L101.4505,54.9869859 L106.785049,58.0527462 L106.785049,60.192821 Z M114.818948,64.8093336 L108.280442,61.0523643 L108.280442,58.9122895 L114.818948,62.6692588 L114.818948,64.8093336 Z M118.709594,67.0454903 L116.314725,65.6691824 L116.314725,63.5291076 L118.709594,64.9054155 L118.709594,67.0454903 Z M122.412931,69.1730394 L120.017295,67.7967314 L120.017295,65.6566566 L122.412931,67.0329646 L122.412931,69.1730394 Z M105.310375,64.2339117 L101.450653,62.0159326 L101.450653,59.8758578 L105.310375,62.0938368 L105.310375,64.2339117 Z M108.125669,65.8517227 L106.805844,65.0933022 L106.805844,62.9539911 L108.125669,63.7116478 L108.125669,65.8517227 Z M112.016315,68.087803 L109.621446,66.7114951 L109.621446,64.5714202 L112.016315,65.9477282 L112.016315,68.087803 Z M115.697169,75.091469 L101.45073,66.9046517 L101.45073,64.7645769 L115.697169,72.9513942 L115.697169,75.091469 Z M120.717877,77.976904 L117.192715,75.9513942 L117.192715,73.8105556 L120.717877,75.8368291 L120.717877,77.976904 Z M105.310375,74.0115026 L101.450653,71.7935236 L101.450653,69.6534488 L105.310375,71.8714278 L105.310375,74.0115026 Z M114.368596,79.2168795 L106.806458,74.8710459 L106.806458,72.7309711 L114.368596,77.0768047 L114.368596,79.2168795 Z M118.260009,81.4529599 L115.86514,80.0766519 L115.86514,77.9365771 L118.260009,79.312885 L118.260009,81.4529599 Z M109.347889,81.2202401 L101.450423,76.6819372 L101.450423,74.5418624 L109.347889,79.0801653 L109.347889,81.2202401 Z M116.555209,85.3616897 L110.843896,82.0797833 L110.843896,79.9397085 L116.555209,83.2216148 L116.555209,85.3616897 Z M121.910861,88.4395175 L118.051139,86.2215384 L118.051139,84.0814636 L121.910861,86.2994427 L121.910861,88.4395175 Z M104.118158,83.1036129 L101.450116,81.5707327 L101.450116,79.4306579 L104.118158,80.963538 L104.118158,83.1036129 Z M109.138789,85.9885895 L105.613628,83.9630797 L105.613628,81.8230049 L109.138789,83.8485147 L109.138789,85.9885895 Z M116.314648,90.1120906 L110.634795,86.8485147 L110.634795,84.7084399 L116.314648,87.9720158 L116.314648,90.1120906 Z M109.621369,91.1544797 L101.45073,86.4596046 L101.45073,84.3195298 L109.621369,89.0144048 L109.621369,91.1544797 Z M118.772516,96.4135494 L111.116762,92.0142521 L111.116762,89.8741772 L118.772516,94.2734745 L118.772516,96.4135494 Z M122.663928,98.6497061 L120.268292,97.2733981 L120.268292,95.1333233 L122.663928,96.5096312 L122.663928,98.6497061 Z M126.397959,100.795509 L124.002323,99.4192012 L124.002323,97.2791264 L126.397959,98.6554343 L126.397959,100.795509 Z M106.345977,94.161048 L101.450346,91.3480946 L101.450346,89.2080197 L106.345977,92.0209732 L106.345977,94.161048 Z M126.819306,66.8165894 L126.819306,64.6765146 L133.607198,68.5778358 L133.607198,70.7171469 L126.819306,66.8165894 Z M128.272879,72.5410223 L128.272879,70.4009474 L133.607428,73.4667077 L133.607428,75.6067826 L128.272879,72.5410223 Z M129.748321,78.2774462 L129.748321,76.1373714 L133.607275,78.3553505 L133.607275,80.4954253 L129.748321,78.2774462 Z M127.993337,82.1578403 L127.993337,80.0177655 L133.607198,83.2439168 L133.607198,85.3839917 L127.993337,82.1578403 Z M129.748321,88.0546554 L129.748321,85.9145805 L133.607275,88.1325596 L133.607275,90.2726344 L129.748321,88.0546554 Z M128.712718,92.3482473 L128.712718,90.2081725 L133.607582,93.021126 L133.607582,95.1612008 L128.712718,92.3482473 Z M130.940614,98.5172689 L130.940614,96.3771941 L133.607889,97.9100742 L133.607889,100.050149 L130.940614,98.5172689 Z M128.439238,101.968808 L128.439238,99.828733 L133.607275,102.798259 L133.607275,104.939097 L128.439238,101.968808 Z M128.712718,107.014176 L128.712718,104.874101 L133.607582,107.687054 L133.607582,109.827893 L128.712718,107.014176 Z M109.923394,96.2170321 L107.8416,95.0209732 L107.8416,92.8808984 L109.923394,94.0769573 L109.923394,96.2170321 Z M116.105548,99.7696175 L111.419401,97.0765754 L111.419401,94.9365006 L116.105548,97.6295426 L116.105548,99.7696175 Z M111.241531,101.891591 L101.450269,96.2649203 L101.450269,94.1256093 L111.241531,99.7515162 L111.241531,101.891591 Z M116.262162,104.776568 L112.737001,102.751058 L112.737001,100.610983 L116.262162,102.636493 L116.262162,104.776568 Z M120.153575,107.012724 L117.757938,105.636416 L117.757938,103.496342 L120.153575,104.87265 L120.153575,107.012724 Z M106.785049,104.2194 L101.4505,101.153639 L101.4505,99.0135646 L106.785049,102.079325 L106.785049,104.2194 Z M114.818948,108.835989 L108.280442,105.079019 L108.280442,102.938945 L114.818948,106.695914 L114.818948,108.835989 Z M118.709594,111.072069 L116.314725,109.695761 L116.314725,107.555686 L118.709594,108.931994 L118.709594,111.072069 Z M122.412931,113.2 L120.017295,111.822928 L120.017295,109.683617 L122.412931,111.059925 L122.412931,113.2 Z" id="Combined-Shape" fill="#42FFFF"></path>
                </g>
                <g id="Group-2" transform="translate(204.431555, 104.404054)">
                    <mask id="mask-10" fill="white">
                        <use xlink:href="#path-9"></use>
                    </mask>
                    <g id="Mask"></g>
                    <path d="M12.7299085,-3.13616415 L4.77312264,-7.693258 L4.77312264,-9.42676018 L12.7299085,-4.86966632 L12.7299085,-3.13616415 Z M16.8098814,-0.798967677 L13.9451891,-2.43966995 L13.9451891,-4.17317212 L16.8098814,-2.53246985 L16.8098814,-0.798967677 Z M19.972205,1.01230081 L18.0254114,-0.102535345 L18.0254114,-1.83603752 L19.972205,-0.72120136 L19.972205,1.01230081 Z M9.10838616,-1.25028453 L4.77330971,-3.73360992 L4.77330971,-5.46711209 L9.10838616,-2.98378671 L9.10838616,-1.25028453 Z M15.6370662,2.48918032 L10.3236044,-0.554037803 L10.3236044,-2.28753997 L15.6370662,0.755678149 L15.6370662,2.48918032 Z M18.7987661,4.30051068 L16.8525962,3.18567452 L16.8525962,1.45217235 L18.7987661,2.56700851 L18.7987661,4.30051068 Z M21.808252,6.02386673 L19.8614585,4.90903057 L19.8614585,3.1755284 L21.808252,4.29036455 L21.808252,6.02386673 Z M7.91000441,2.02307735 L4.77343443,0.226471241 L4.77343443,-1.50703093 L7.91000441,0.289575174 L7.91000441,2.02307735 Z M10.1978298,3.3335357 L9.12528498,2.71920034 L9.12528498,0.986316839 L10.1978298,1.60003353 L10.1978298,3.3335357 Z M13.3595297,5.14480419 L11.4133598,4.02996803 L11.4133598,2.29646586 L13.3595297,3.41130201 L13.3595297,5.14480419 Z M16.350745,10.8179097 L4.77349678,4.18642866 L4.77349678,2.45292649 L16.350745,9.0844075 L16.350745,10.8179097 Z M20.4307802,13.155168 L17.5660879,11.5144657 L17.5660879,9.7803449 L20.4307802,11.4216658 L20.4307802,13.155168 Z M7.91000441,9.94311592 L4.77343443,8.14650982 L4.77343443,6.41300765 L7.91000441,8.20961375 L7.91000441,9.94311592 Z M15.2710914,14.1595723 L9.12578383,10.6393627 L9.12578383,8.90586048 L15.2710914,12.4260701 L15.2710914,14.1595723 Z M18.433415,15.9708408 L16.487245,14.8560046 L16.487245,13.1225024 L18.433415,14.2373386 L18.433415,15.9708408 Z M11.1910562,15.7823332 L4.77324736,12.1062198 L4.77324736,10.3727176 L11.1910562,14.0488311 L11.1910562,15.7823332 Z M17.0480238,19.1369878 L12.4067732,16.47858 L12.4067732,14.7450778 L17.0480238,17.4034857 L17.0480238,19.1369878 Z M21.4002485,21.6300881 L18.2636785,19.833482 L18.2636785,18.0999799 L21.4002485,19.896586 L21.4002485,21.6300881 Z M6.94115972,17.3079018 L4.77299793,16.0662391 L4.77299793,14.3327369 L6.94115972,15.5743996 L6.94115972,17.3079018 Z M11.0211326,19.6447889 L8.15644029,18.0040866 L8.15644029,16.2705844 L11.0211326,17.9112867 L11.0211326,19.6447889 Z M16.8525338,22.9849048 L12.2368497,20.341345 L12.2368497,18.6078428 L16.8525338,21.2514027 L16.8525338,22.9849048 Z M11.4132974,23.8292602 L4.77349678,20.0263202 L4.77349678,18.292818 L11.4132974,22.095758 L11.4132974,23.8292602 Z M18.8498991,28.0892088 L12.6285156,24.5256925 L12.6285156,22.7921904 L18.8498991,26.3557066 L18.8498991,28.0892088 Z M22.0122226,29.9005391 L20.0654291,28.785703 L20.0654291,27.0522008 L22.0122226,28.167037 L22.0122226,29.9005391 Z M25.0466514,31.6386813 L23.0998579,30.5238451 L23.0998579,28.790343 L25.0466514,29.9051791 L25.0466514,31.6386813 Z M8.75157794,26.264639 L4.773185,23.986092 L4.773185,22.2525899 L8.75157794,24.5311368 L8.75157794,26.264639 Z M25.3890551,4.11509647 L25.3890551,2.3815943 L30.905178,5.5417403 L30.905178,7.27462381 L25.3890551,4.11509647 Z M26.5702886,8.75199825 L26.5702886,7.01849608 L30.905365,9.50182146 L30.905365,11.2353236 L26.5702886,8.75199825 Z M27.7692939,13.3986131 L27.7692939,11.6651109 L30.9052403,13.461717 L30.9052403,15.1952192 L27.7692939,13.3986131 Z M26.3431211,16.5418076 L26.3431211,14.8083055 L30.905178,17.4215507 L30.905178,19.1550529 L26.3431211,16.5418076 Z M27.7692939,21.3183423 L27.7692939,19.5848402 L30.9052403,21.3814463 L30.9052403,23.1149484 L27.7692939,21.3183423 Z M26.9277204,24.7962352 L26.9277204,23.062733 L30.9054898,25.3412799 L30.9054898,27.0747821 L26.9277204,24.7962352 Z M28.738201,29.7932625 L28.738201,28.0597603 L30.9057392,29.301423 L30.9057392,31.0349251 L28.738201,29.7932625 Z M26.7054791,32.589076 L26.7054791,30.8555739 L30.9052403,33.2609473 L30.9052403,34.9950682 L26.7054791,32.589076 Z M26.9277204,36.6759219 L26.9277204,34.9424197 L30.9054898,37.2209666 L30.9054898,38.9550875 L26.9277204,36.6759219 Z M11.6587356,27.930026 L9.96698322,26.961195 L9.96698322,25.2276929 L11.6587356,26.1965238 L11.6587356,27.930026 Z M16.6826103,30.8076891 L12.8744526,28.6262727 L12.8744526,26.8927706 L16.6826103,29.0741869 L16.6826103,30.8076891 Z M12.7299085,32.5265289 L4.77312264,27.9688164 L4.77312264,26.2359329 L12.7299085,30.7930267 L12.7299085,32.5265289 Z M16.8098814,34.863416 L13.9451891,33.2227138 L13.9451891,31.4892116 L16.8098814,33.1299139 L16.8098814,34.863416 Z M19.972205,36.6747464 L18.0254114,35.5599102 L18.0254114,33.8264081 L19.972205,34.9412442 L19.972205,36.6747464 Z M9.10838616,34.4120992 L4.77330971,31.9287738 L4.77330971,30.1952716 L9.10838616,32.678597 L9.10838616,34.4120992 Z M15.6370662,38.1516259 L10.3236044,35.1084078 L10.3236044,33.3749056 L15.6370662,36.4181237 L15.6370662,38.1516259 Z M18.7987661,39.9628944 L16.8525962,38.8480582 L16.8525962,37.1145561 L18.7987661,38.2293922 L18.7987661,39.9628944 Z M21.808252,41.6865598 L19.8614585,40.5711049 L19.8614585,38.8382214 L21.808252,39.9530576 L21.808252,41.6865598 Z" id="Combined-Shape" fill="#42FFFF" mask="url(#mask-10)"></path>
                    <path d="M40.8295153,24.8441823 L29.2522671,18.2127013 L29.2522671,16.4791991 L40.8295153,23.1106801 L40.8295153,24.8441823 Z M44.9095505,27.1814406 L42.0448582,25.5407384 L42.0448582,23.8066175 L44.9095505,25.4479384 L44.9095505,27.1814406 Z M32.3887747,23.9693885 L29.2522047,22.1727824 L29.2522047,20.4392803 L32.3887747,22.2358864 L32.3887747,23.9693885 Z M39.7498617,28.1858449 L33.6045541,24.6656353 L33.6045541,22.9321331 L39.7498617,26.4523427 L39.7498617,28.1858449 Z M42.9121853,29.9971134 L40.9660153,28.8822772 L40.9660153,27.1487751 L42.9121853,28.2636112 L42.9121853,29.9971134 Z M35.6698265,29.8086058 L29.2520177,26.1324924 L29.2520177,24.3989902 L35.6698265,28.0751037 L35.6698265,29.8086058 Z M41.5267941,33.1632604 L36.8855435,30.5048526 L36.8855435,28.7713504 L41.5267941,31.4297583 L41.5267941,33.1632604 Z M45.8790188,35.6563607 L42.7424488,33.8597546 L42.7424488,32.1262525 L45.8790188,33.9228586 L45.8790188,35.6563607 Z M31.41993,31.3341744 L29.2517682,30.0925117 L29.2517682,28.3590095 L31.41993,29.6006722 L31.41993,31.3341744 Z M35.4999029,33.6710615 L32.6352106,32.0303592 L32.6352106,30.2968571 L35.4999029,31.9375593 L35.4999029,33.6710615 Z M41.3313041,37.0111775 L36.71562,34.3676176 L36.71562,32.6341154 L41.3313041,35.2776753 L41.3313041,37.0111775 Z M35.8920677,37.8555328 L29.2522671,34.0525928 L29.2522671,32.3190907 L35.8920677,36.1220307 L35.8920677,37.8555328 Z M43.3286694,42.1154814 L37.1072859,38.5519652 L37.1072859,36.818463 L43.3286694,40.3819792 L43.3286694,42.1154814 Z M46.4909929,43.9268118 L44.5441994,42.8119756 L44.5441994,41.0784734 L46.4909929,42.1933096 L46.4909929,43.9268118 Z M49.5254217,45.6649539 L47.5786282,44.5501178 L47.5786282,42.8166156 L49.5254217,43.9314518 L49.5254217,45.6649539 Z M33.2303482,40.2909116 L29.2519553,38.0123647 L29.2519553,36.2788625 L33.2303482,38.5574094 L33.2303482,40.2909116 Z M49.8678254,18.1413691 L49.8678254,16.4078669 L55.3839483,19.5680129 L55.3839483,21.3008964 L49.8678254,18.1413691 Z M51.0490589,22.7782709 L51.0490589,21.0447687 L55.3841353,23.5280941 L55.3841353,25.2615962 L51.0490589,22.7782709 Z M52.2480642,27.4248857 L52.2480642,25.6913835 L55.3840106,27.4879896 L55.3840106,29.2214918 L52.2480642,27.4248857 Z M50.8218914,30.5680802 L50.8218914,28.8345781 L55.3839483,31.4478233 L55.3839483,33.1813255 L50.8218914,30.5680802 Z M52.2480642,35.3446149 L52.2480642,33.6111128 L55.3840106,35.4077189 L55.3840106,37.141221 L52.2480642,35.3446149 Z M51.4064907,38.8225078 L51.4064907,37.0890056 L55.3842601,39.3675526 L55.3842601,41.1010547 L51.4064907,38.8225078 Z M53.2169713,43.8195351 L53.2169713,42.0860329 L55.3845095,43.3276956 L55.3845095,45.0611978 L53.2169713,43.8195351 Z M51.1842494,46.6153487 L51.1842494,44.8818465 L55.3840106,47.2872199 L55.3840106,49.0213408 L51.1842494,46.6153487 Z M51.4064907,50.7021945 L51.4064907,48.9686923 L55.3842601,51.2472392 L55.3842601,52.9813601 L51.4064907,50.7021945 Z M36.1375059,41.9562986 L34.4457535,40.9874677 L34.4457535,39.2539655 L36.1375059,40.2227965 L36.1375059,41.9562986 Z M41.1613806,44.8339617 L37.3532229,42.6525454 L37.3532229,40.9190432 L41.1613806,43.1004596 L41.1613806,44.8339617 Z" id="Combined-Shape" fill="#42FFFF" mask="url(#mask-10)"></path>
                </g>
            </g>
        </g>
    </g>
</svg>