<?xml version="1.0" encoding="UTF-8"?>
<svg width="40px" height="40px" viewBox="0 0 40 40" version="1.1" xmlns="http://www.w3.org/2000/svg" xmlns:xlink="http://www.w3.org/1999/xlink">
    <!-- Generator: Sketch 51.3 (57544) - http://www.bohemiancoding.com/sketch -->
    <title>icon/Twitter</title>
    <desc>Created with Sketch.</desc>
    <defs></defs>
    <g id="Symbols" stroke="none" stroke-width="1" fill="none" fill-rule="evenodd">
        <g id="icon/Twitter">
            <rect id="Rectangle-12" x="0" y="0" width="40" height="40"></rect>
            <path d="M33,11.500875 C32.033125,11.925 31.002875,12.206125 29.92875,12.342625 C31.03375,11.682875 31.877125,10.646125 32.273625,9.3965 C31.243375,10.01075 30.105875,10.444625 28.893625,10.68675 C27.915375,9.645125 26.521125,9 25.000125,9 C22.049125,9 19.673375,11.39525 19.673375,14.331625 C19.673375,14.754125 19.709125,15.160375 19.796875,15.547125 C15.3655,15.331 11.444375,13.207125 8.81025,9.97175 C8.350375,10.769625 8.080625,11.682875 8.080625,12.666 C8.080625,14.512 9.03125,16.148375 10.44825,17.09575 C9.591875,17.0795 8.75175,16.830875 8.04,16.43925 C8.04,16.4555 8.04,16.476625 8.04,16.49775 C8.04,19.088 9.887625,21.2395 12.3105,21.735125 C11.876625,21.85375 11.40375,21.910625 10.913,21.910625 C10.57175,21.910625 10.22725,21.891125 9.903875,21.819625 C10.5945,23.9305 12.55425,25.482375 14.8845,25.53275 C13.071,26.951375 10.768375,27.806125 8.275625,27.806125 C7.8385,27.806125 7.41925,27.786625 7,27.733 C9.361125,29.255625 12.159375,30.125 15.177,30.125 C24.9855,30.125 30.348,22 30.348,14.95725 C30.348,14.721625 30.339875,14.494125 30.3285,14.26825 C31.386375,13.5175 32.27525,12.579875 33,11.500875" id="Fill-1" fill="#FFFFFF"></path>
        </g>
    </g>
</svg>